<?xml version="1.0" encoding="utf-8"?>
<!-- Generator: Adobe Illustrator 23.1.0, SVG Export Plug-In . SVG Version: 6.00 Build 0)  -->
<svg version="1.1" xmlns="http://www.w3.org/2000/svg" xmlns:xlink="http://www.w3.org/1999/xlink" x="0px" y="0px"
	 viewBox="0 0 960 1080" style="enable-background:new 0 0 960 1080;" xml:space="preserve">
<style type="text/css">
	.st0{fill:#F3E7D9;}
	.st1{fill:#B44C29;}
	.st2{fill:#F5894E;}
	.st3{fill:#BB83C3;}
	.st4{fill:#7A462F;}
	.st5{fill:#D77D5B;}
	.st6{fill:#CC6D3D;}
	.st7{fill:#C94039;}
	.st8{fill:#992C29;}
	.st9{fill:#F7BC4B;}
	.st10{fill:#CE9436;}
	.st11{fill:#A96443;}
	.st12{opacity:0.5;fill:#7A462F;}
	.st13{fill:#273252;}
	.st14{fill:#3E4D70;}
	.st15{fill:none;stroke:#1D2538;stroke-width:0.5;stroke-linecap:round;stroke-linejoin:round;stroke-miterlimit:10;}
	.st16{fill:#FEED7F;}
	.st17{fill:#29ABE2;}
	.st18{fill:#FFACFF;}
	.st19{fill:#EE5D4F;}
	.st20{fill:none;stroke:#FEED7F;stroke-miterlimit:10;}
	.st21{fill:#FFFCF3;}
	.st22{fill:none;stroke:#F3E7D9;stroke-linecap:round;stroke-linejoin:round;stroke-miterlimit:10;}
	.st23{fill:none;stroke:#29ABE2;stroke-miterlimit:10;}
	.st24{fill:none;stroke:#1689CB;stroke-width:2;stroke-miterlimit:10;}
	.st25{fill:none;stroke:#1689CB;stroke-miterlimit:10;}
	.st26{fill:#1689CB;}
	.st27{fill:#48598B;}
	.st28{fill:#3E4C6F;}
	.st29{fill:none;stroke:#C94039;stroke-miterlimit:10;}
	.st30{fill:none;stroke:#C94039;stroke-linecap:round;stroke-linejoin:round;stroke-miterlimit:10;}
	.st31{fill:none;stroke:#9E54C7;stroke-miterlimit:10;}
	.st32{fill:#9E54C7;}
</style>
<g id="cloud">
	<path class="st0" d="M621.01,866.15c4.07-2.44,193.05-36.4,208.88-66.46c15.82-30.07-1.58-36.4-34.81-30.07
		c0,0,71.21-14.24,75.96-60.13c0,0,49.05-44.31,34.81-66.46c-14.24-22.15-36.4,15.82-36.4,15.82s64.88-88.62,4.75-139.25
		c-60.13-50.64-99.69-3.16-99.69-3.16s-23.74-37.98-87.03-15.82s-41.14,85.45-41.14,85.45s-11.08-18.99-30.07-11.08
		s-26.9,39.56-26.9,39.56s-22.15-7.91-39.56,0c-17.41,7.91-44.31,83.87-44.31,83.87s-30.07-12.66-50.64-9.49
		c-20.57,3.16-25.32,26.9-25.32,26.9s-41.14-74.37-93.36-74.37s-63.3,44.31-63.3,75.96c0,0-18.99-14.24-60.13,7.91
		c-41.14,22.15-47.47,117.1-3.16,144c0,0-30.07,11.08-71.21,31.65s-3.16,25.32-3.16,25.32s-61.71,20.57-44.31,20.57
		S549.8,908.88,621.01,866.15z"/>
</g>
<g id="paddle2">
	<g>
		<path class="st1" d="M266.31,928.67c0,0,179.6-184.56,185.73-190.17c6.24-5.72,21.9-5.47,8.49,7.25
			c-12.91,12.24-189.59,189.06-189.59,189.06L266.31,928.67z"/>
		<path class="st1" d="M250.33,947.25c21.36,0,4.75,3.56,17.01,2.37c1.5-0.14,2.82-0.34,4.01-0.56c0.23-0.36,0.37-0.61,0.41-0.75
			c0.88-3.01,18.67-33.77,13.22-37.6c-5.41-3.79-47.04,21.71-55.25,30.03c-2.64,2.68-5.47,5.97-8.07,9.17
			C229.9,949.48,239,947.25,250.33,947.25z"/>
		<path class="st2" d="M250.33,947.25c21.36,0,4.75,3.56,17.01,2.37c4.2-0.41,7.1-1.18,9.1-2.03c3.5-7.18,17.69-32.6,12.74-36.06
			c-5.45-3.81-47.54,21.74-55.85,30.08c-2.32,2.33-4.79,5.12-7.12,7.91C233.26,948.75,241.05,947.25,250.33,947.25z"/>
	</g>
</g>
<g id="water">
	<path class="st3" d="M258.11,962.42c0,0-66.86-5.14-101.27,5.54s17.41,17.8,17.41,17.8s-30.86-8.31,3.16-16.22
		C211.43,961.63,258.11,962.42,258.11,962.42z"/>
	<path class="st3" d="M416.88,945.27c0,0-49.85-2.37-90.99,1.58c-41.14,3.96-51.43,15.03-51.43,15.03S332.22,947.65,416.88,945.27z"
		/>
	<path class="st3" d="M523.3,972.57c0,0-52.22-0.4-68.04,3.56c-15.82,3.96,11.87,2.37,34.81,1.58c22.95-0.79-17.8,3.96,1.19,6.33
		c18.99,2.37,111.56-3.16,111.56-3.16l-22.55-1.98c0,0,117.67-5.79,65.27-8.7C609.93,968.22,579.46,972.09,523.3,972.57z"/>
	<path class="st3" d="M380.09,956.75c0,0-40.75,2.77-32.44,13.45c8.31,10.68,81.89,3.56,81.89,3.56s-65.27,13.05-92.57,4.75
		C309.67,970.2,345.67,959.12,380.09,956.75z"/>
	<path class="st3" d="M397.1,955.96c0,0,17.8,17.8,58.15,15.43c40.35-2.37,173.27-10.68,232.62-10.68
		c59.34,0,118.04-6.12,130.55-17.8c5.93-5.54-32.04-2.37-32.04-2.37s29.27,3.16-10.29,6.33c-42.61,3.41-183.16,0.79-224.7,9.1
		S433.89,967.82,397.1,955.96z"/>
	<path class="st3" d="M674.81,969.8c0,0,31.65,1.58,96.53,2.37c43.76,0.53,95.18-1.31,126.58-9.79
		c34.04-9.2-17.39-22.65-17.39-22.65s16.7-8.97-6.02-11.04c-26.42-2.41-43.41-0.02-52.53,0.76s0.54-1.13,30.07,1.58
		c40.99,3.76-1.58,7.91,28.48,16.62C917.11,958.24,829.89,965.05,674.81,969.8z"/>
	<path class="st3" d="M795.42,1009.85c0,0-10.75,7.27-32.69,3.21s-7.81-3.95-27.56-1.72c-46.12,3.93-60.74,2.38-39.14-11.87
		c0,0-52.42,11.25-6.19,15.76c41.53,4.05,57.18-2.19,57.18-2.19S795.35,1023.54,795.42,1009.85z"/>
	<path class="st3" d="M806.15,1009.36c0,0,17.41-1.58,17.41-7.91c0-6.33-10.29-9.49-10.29-9.49s30.07,2.37,19.78,11.87
		C822.53,1013.54,806.15,1009.36,806.15,1009.36z"/>
	<path class="st3" d="M182.68,979.3c-3.18,0.74,74.12-1.84,87.03,11.08c5.54,5.54-6.33,11.87,52.22,15.82s109.19-10.29,160.62-7.91
		c0,0-42.2-5.01-98.64-0.26c-38.24,3.22-97.58,2.64-96-9.23C289.49,976.92,219.87,970.59,182.68,979.3z"/>
	<path class="st3" d="M707.25,944.48c0,0,23.34-5.54,7.52-8.31s-105.63,1.98-105.63,1.98s109.19-11.47,125.8-2.77
		C751.56,944.09,707.25,944.48,707.25,944.48z"/>
	<path class="st3" d="M437.84,1010.87c0,0,53.2-8.67,71.77-4.39c22.32,5.14,33.11,7.64,58.55,2.97c0,0-41.94,12.34-63.34,4.18
		C486.65,1006.71,460.52,1009.26,437.84,1010.87z"/>
</g>
<g id="boat-back">
	<path class="st4" d="M482,828.4c37.57-1.91,186.22-24.51,206.72-30.25c20.5-5.74,19.5-7.97,29.73,0.93
		c21.15,18.38,43.53,47.03,27.64,61.69C687.57,890.2,427.31,831.19,482,828.4z"/>
	<path class="st5" d="M709.56,797.17c-25.25,8.21-33.03,7.6-92.06,16.4c-42.19,6.3-91.01,15.79-121.79,12.53
		c0,0-17.98-9.66-4.33-9.25c92.11,2.81,220.36-25.61,220.36-25.61S715,795.4,709.56,797.17z"/>
	<path class="st5" d="M717.93,855.08c0,0,46.29,5.93,23.34-24.26c-13.63-17.94-34.81-34.29-34.81-34.29l5.34-5.34
		c9.69,8.09,40.27,36.43,45.82,42.26c10.55,11.08,12.66,14.77,6.33,23.21C757.63,865.1,717.93,855.08,717.93,855.08z"/>
</g>
<g id="right_arm">
	<path class="st2" d="M456.84,668.75c0,0,11.47,18.59,2.37,24.92c-9.1,6.33-35.6,20.97-45.1,23.74s-19.78-16.62-2.37-26.11
		S451.69,666.77,456.84,668.75z"/>
	<path class="st6" d="M456.84,668.75c0,0,11.47,18.59,2.37,24.92c-9.1,6.33-35.6,20.97-45.1,23.74s8.57-10.55,25.98-21.1
		c8.69-5.26-0.58-20.93-0.58-20.93C447.68,670.86,454.33,667.78,456.84,668.75z"/>
	<path class="st2" d="M418.99,713.19c1.98-3.71,0.61-20.12-6.35-25.11c-12.12-8.69-51.85-41.97-57.08-44.65
		c-5.24-2.68-13.36,10.33-5.57,17.54c7.79,7.21,37.19,44.26,47.9,52.48C408.6,721.67,417.01,716.89,418.99,713.19z"/>
	<path class="st6" d="M418.99,713.19c0,0,2.77-3.68,0.12-3.3c-3.74,0.54-13.45,0.68-17.52-2.24c-12.12-8.69-30.81-30.01-34.55-34.55
		c-2.7-3.28-7.34-8.04-9.76-9.76c-8.67-6.17-13.38-8.01-7.28-2.37c7.79,7.21,37.19,44.26,47.9,52.48
		C408.6,721.67,417.01,716.89,418.99,713.19z"/>
	<path class="st7" d="M456.84,696.44c0,0,22.55-15.82,26.9-20.97c4.35-5.14-0.29-22.33-13.45-17.8
		c-12.66,4.35-18.59,8.7-24.92,13.45C445.36,671.12,454.07,687.74,456.84,696.44z"/>
	<path class="st8" d="M456.84,696.44c0,0,22.55-15.82,26.9-20.97c4.35-5.14-0.29-22.33-13.45-17.8c-8.06,2.77-9.7,3.26-14.14,6.13
		c2.08,8.41,2.41,9.96,2.8,17.87C459.34,689.58,456.84,696.44,456.84,696.44z"/>
	<path class="st6" d="M413.71,691.56c0,0,6.59,3.96,5.54,12.92C419.25,704.48,421.36,687.6,413.71,691.56z"/>
</g>
<g id="right_hand">
	<path class="st2" d="M357.27,645.6c-0.33-2.57-3.69-5.74-5.87-8.31c-1.68-1.98-5.21-4.35-8.37-3.56
		c-3.16,0.79-12.92,0.26-14.24,0.26c-1.32,0-2.64,3.69-0.26,4.75s8.7,3.49,8.7,3.49s-8.7,7.32-11.08,8.64
		c-2.37,1.32-13.19,0.26-13.19,0.26s-8.18-2.64-8.44,0.26c-0.26,2.9,4.22,4.22,4.22,4.22s-3.43,0.26-3.16,1.58s-0.26,2.97,1.58,4.29
		c1.85,1.32,3.69,1.52,5.8,2.04s-1.05,2.9,4.22,3.43c5.27,0.53,17.67,0,18.73,0.26c1.05,0.26,8.97-3.96,13.45-6.86
		C353.85,657.47,357.6,648.18,357.27,645.6z"/>
	<path class="st6" d="M349.63,655.43c0,0-7.65-2.64-10.29-2.11s-6.86,5.8-6.86,5.8l-11.08,3.16l-7.12,1.05h6.59l12.92-3.43
		c0,0,4.75-4.48,6.59-4.48S349.63,655.43,349.63,655.43z"/>
	<path class="st6" d="M308.75,655.43l12.66-0.26l5.27-1.58c0,0-3.96,2.9-7.12,2.64C316.4,655.96,308.75,655.43,308.75,655.43z"/>
	<path class="st6" d="M326.68,653.58c0,0,0.53,4.22,3.16,5.27c2.64,1.05,4.75-0.53,4.75-0.53L326.68,653.58z"/>
	<path class="st6" d="M329.05,656.22l-10.02,2.9l-8.44-0.26C310.59,658.86,324.04,659.65,329.05,656.22z"/>
</g>
<g id="torso">
	<path class="st9" d="M487.89,655.39c0,0-16.47-0.41-20.27,5.56s-9.98,30.12-5.65,38.26c4.34,8.14,15.95,25.74,23.54,31.16
		c0,0,13.06,17.07,34.17,8.68c20.62-8.19,23.19-6.34,25.36-16.11c2.17-9.76-10.25-45.16-18.2-60.53
		C520.92,650.95,506.68,652.13,487.89,655.39z"/>
	<path class="st10" d="M487.89,655.39c0,0-16.47-0.41-20.27,5.56c-3.07,4.34-5.55,16.9-5.55,16.9s11.14,2.59,19.68,2.37
		c7.49-0.19,20.03-8.47,25.32-7.91c23.74,2.48,15.03,32.44,15.03,32.44s-12.02,28.15-7.12,31.65c0,0-16.41,11.05,4.7,2.66
		c20.62-8.19,23.19-6.34,25.36-16.11c2.17-9.76-10.25-45.16-18.2-60.53C520.92,650.95,506.68,652.13,487.89,655.39z"/>
	<path class="st9" d="M488.09,732.44c0,0-15.82,23.21-29.01,87.56c0,0,33.76,29.54,88.09,34.81s69.1-26.37,69.1-26.37
		s-9.49-52.48-40.62-84.13c-31.12-31.65-36.4-26.9-49.58-24.79C512.88,721.63,488.09,732.44,488.09,732.44z"/>
	<path class="st10" d="M488.09,732.44c0,0-15.82,23.21-29.01,87.56c0,0,33.76,29.54,88.09,34.81s69.1-26.37,69.1-26.37
		S511.3,799.16,490.2,788.09C478.37,781.88,488.09,732.44,488.09,732.44z"/>
	<path class="st10" d="M599.65,830.55c0,0-62.51,37.19-140.57-10.55c0,0,33.76,29.54,88.09,34.81s69.1-26.37,69.1-26.37
		s-9.49-52.48-40.62-84.13c-31.12-31.65-36.4-26.9-49.58-24.79C584.62,755.38,599.65,830.55,599.65,830.55z"/>
	<path class="st10" d="M497.58,749.05c0,0-6.33,35.6-1.58,39.56C500.75,792.57,497.58,779.91,497.58,749.05z"/>
	<path class="st10" d="M568,746.68c0,0,12.66,28.48,16.62,57.76c0,0-13.45-44.84-30.07-63.82C537.93,721.63,559.3,729.27,568,746.68
		z"/>
</g>
<g id="boat">
	<g>
		<path class="st4" d="M300.84,762.77c0,0-18.46,57.49-20.04,68.57c0,0,27.69,142.02,171.69,132.13L300.84,762.77z"/>
		<path class="st11" d="M372.57,923.52l-23.34,14.64c0,0,23.74,22.55,58.95,25.32L372.57,923.52z"/>
		<path class="st5" d="M338.15,864.57c-6.46,12.4-21.76,34.68-23.34,39.82c0,0,18.99,26.64,32.04,32.97l24.92-16.22
			C371.78,921.14,344.11,853.15,338.15,864.57z"/>
		<path class="st11" d="M319.96,820.26l-25.98,49.85c0,0,11.21,23.6,19.52,33.49c0,0,20.31-32.31,23.47-41.01L319.96,820.26z"/>
		<path class="st5" d="M305.32,792.18c0,0-14.24,37.98-19.78,54.99l7.91,21.63c0,0,22.95-42.99,24.13-51.3L305.32,792.18z"/>
		<path class="st5" d="M300.84,763.3l-22.02,58.95c-0.53,1.75-1.19,3.61-0.59,5.34l4.15,15.03c0.59,1.69,1.18,2.1,1.76,0.41
			l22.51-61.79L300.84,763.3z"/>
		<path class="st12" d="M300.31,770.68c0,0-0.26,21.76,2.11,42.73c2.37,20.97,6.07,159.96,150.07,150.07c0,0-44.31-4.75-75.16-40.35
			C346.46,887.52,300.31,770.68,300.31,770.68z"/>
		<path class="st5" d="M296.33,756.17c-0.18-1.29,0.62-2.52,1.87-2.89l17.93-10.68c1.53-0.28,9.54,6.46,10.95,7.12
			c0,0,39.35,40.96,39.24,44.39c-0.91,27.53-10.61,84.26,136.54,154.33l-7.8,4.2c-1.63,0.88-51.94,14.37-53.78,14.33
			c-7.71-0.2-29.54-0.33-29.54-0.33s-39.94-33.24-60.53-72.4C309.18,814.29,297.67,765.78,296.33,756.17z"/>
		<path class="st12" d="M316.13,742.59c1.53-0.28,9.54,6.46,10.95,7.12c0,0,39.35,40.96,39.24,44.39
			c-0.91,27.53-10.61,84.26,136.54,154.33l-7.8,4.2c-1.63,0.88-51.94,14.37-53.78,14.33c-6.17-0.16-21.38-0.27-27.21-0.31
			c-1.52-0.01-2.99-0.57-4.14-1.57c-8.02-6.99-40.75-36.66-58.72-70.84c-11.07-21.07-18.53-41.48-23.5-60.12
			C313.81,782.03,316.13,742.59,316.13,742.59z"/>
		<path class="st4" d="M317.19,743.25c1.53-0.28,25.32,19.65,25.32,19.65s14.27,54.61,15.3,57.89
			c13.48,43,109.19,137.67,104.97,141.89s-20.04,3.16-20.04,3.16s-8.87,0.54-32.18-28.22C343.03,854.29,317.19,743.25,317.19,743.25
			z"/>
		<path class="st4" d="M336.18,760.13c0,0,9.49,34.02,23.74,69.63c32.4,81.01,75.78,123.15,86.52,132.75
			c1.55,1.38,3.56,2.11,5.63,2.03c14.88-0.59,72.87-0.17,115.14-5.02c48.26-5.54,140.44-10.68,193.05-90.2
			c1.94-2.94,6.13-16.29,2.64-15.82c0,0-118.68-20.57-205.19-41.14C482.8,794.54,399.87,779.12,336.18,760.13z"/>
		<path class="st5" d="M330.9,757.49l6.33,21.63c0,0,195.56,45.1,248.97,54.59c53.41,9.49,167.14,36.2,179.01,20.57
			c2.11-2.64-14.44-9.23-14.44-9.23c-14.63,9-377.26-78.9-415.12-87.96L330.9,757.49z"/>
		<path class="st4" d="M722.24,910.31c0,0-18.51,13.9-21.64,15.35c-3.13,1.45-119.14,23.57-294-8.87l-27.69-36.4
			C378.9,880.4,590.9,918.23,722.24,910.31z"/>
		<path class="st11" d="M700.92,925.49c0,0-31.65,17.8-64.88,25.71c-25.22,6-174.86,16.22-188.04,13.05s-41.41-47.47-41.41-47.47
			S629.32,944.88,700.92,925.49z"/>
		<path class="st5" d="M377.32,869.32l25.32,42.33c0,0,103.68,11.45,160.62,15.43c96.13,6.73,139.12-2.18,139.12-2.18l20.36-13.99
			l-0.48-0.63C696.4,909.34,465.75,900.66,377.32,869.32z"/>
		<path class="st11" d="M374.68,865.1l-21.89-44.84c0,0,41.84,17.1,200.18,44.31c161.14,27.69,194.51,19.91,194.51,19.91l0.48,1.65
			c0,0-14.24,17.74-22.42,22.48h-1.14C724.4,908.62,448,893.58,374.68,865.1z"/>
		<path class="st5" d="M339.34,782.29L352,817.1c0,0,281.67,74.21,398.77,65.77c0,0,10.68-12.81,12.81-20.18l-0.94-0.3
			c0,0-16.62,3.23-68.84-4.68C675.36,854.92,449.58,815.52,339.34,782.29z"/>
		<path class="st12" d="M331.43,758.02c0,0,6.59,26.9,20.84,62.51c32.4,81.01,77.08,129.91,87.82,139.52
			c1.55,1.38,5.54,4.22,11.98,4.49c14.88,0.63,72.87-0.17,115.14-5.02c48.26-5.54,140.44-10.68,193.05-90.2
			c1.94-2.94,1.12-2.58-2.37-2.11c0,0-68.47,60.23-155.08,40.09C455.38,873.01,418.99,836.62,331.43,758.02z"/>
		<path class="st11" d="M425.85,820.79c0,0,40.09,6.86,76.48,15.3C538.73,844.53,445.89,831.34,425.85,820.79z"/>
		<path class="st11" d="M502.86,844c0,0,23.64,5.27,29.54,5.27C538.73,849.27,519.74,844,502.86,844z"/>
		<path class="st11" d="M395.25,779.65c0,0,78.55,17.92,91.25,21.63C499.16,804.97,415.82,789.67,395.25,779.65z"/>
		<path class="st11" d="M475.43,806.55c0,0,68.57,15.3,77.54,17.41C561.93,826.07,507.6,809.71,475.43,806.55z"/>
		<path class="st11" d="M747.8,845.38c19.05,3.79-5.14-31.78-38.37-47.08C709.43,798.31,751.96,834.11,747.8,845.38z"/>
		<path class="st11" d="M670.59,873.54c0,0-51.16-8.44-70.68-14.24C599.91,859.3,653.71,866.15,670.59,873.54z"/>
		<path class="st11" d="M699.08,870.9c0,0-33.23-2.64-43.25-5.27C645.8,862.99,682.73,865.63,699.08,870.9z"/>
		<path class="st11" d="M709.1,875.12l-27.96-3.69C681.14,871.43,690.11,876.18,709.1,875.12z"/>
		<path class="st11" d="M726.51,847.16c0,0-21.63-4.75-32.7-6.33C682.73,839.25,707.52,847.16,726.51,847.16z"/>
		<path class="st11" d="M695.91,846.64c0,0-33.76-5.27-53.27-8.44C623.12,835.03,663.21,845.58,695.91,846.64z"/>
		<path class="st11" d="M378.37,843.47c0,0,56.44,10.55,75.96,15.82S378.37,843.47,378.37,843.47z"/>
		<path class="st11" d="M433.76,862.46c0,0,39.03,2.64,64.88,10.02C518.08,878.04,433.76,862.46,433.76,862.46z"/>
		<path class="st5" d="M647.91,891.08c0,0-18.99-4.95-31.05-3.76l5.74,3.1c0,0-25.85-0.53-49.58-2.11
			C584.62,891.47,622.2,893.71,647.91,891.08z"/>
		<path class="st5" d="M501.54,913.63c0,0-53.01,0-69.63-3.96s8.7,0,8.7,0l-34.02-15.82C406.59,893.85,480.18,911.25,501.54,913.63z
			"/>
		<path class="st5" d="M693.01,915.21c0,0-28.48,2.37-39.56,3.16c0,0,9.49,1.58,18.2,1.58
			C680.35,919.96,693.01,915.21,693.01,915.21z"/>
		<path class="st5" d="M665.32,924.7c0,0-59.34,3.96-106.02-3.96C559.3,920.75,636.84,921.54,665.32,924.7z"/>
		<path class="st11" d="M306.9,769.63c0,0,17.41,58.55,32.44,76.75C339.34,846.37,310.07,809.19,306.9,769.63z"/>
		<path class="st5" d="M325.89,814.73c0,0,14.24,34.02,22.95,42.73C348.84,857.45,336.97,828.97,325.89,814.73z"/>
		<path class="st5" d="M335.38,843.21c0,0,12.13,26.37,18.46,35.87c6.33,9.49,3.96,1.58,11.08,10.55c7.12,8.97,35.6,53.8,35.6,53.8
			s-30.59-41.41-38.51-52.48c-7.91-11.08-2.9,3.69-8.44-7.38C348.04,872.48,335.38,843.21,335.38,843.21z"/>
		<path class="st11" d="M502.33,950.02c0,0,61.71-1.85,86.24-0.79c0,0-22.15,2.64-42.2,5.01l11.34,2.9c0,0-93.63-1.58-98.9-3.96
			c13.98-0.26,52.22-0.53,52.22-0.53L502.33,950.02z"/>
	</g>
</g>
<g id="hair">
	<path class="st13" d="M459.6,605.05c0.51-10.79-2.3-22.66,11.87-34.42c18.59-15.43,39.96,6.33,39.96,6.33s10.95-3.24,19.78,11.47
		c9.49,15.82-0.79,28.88-0.79,28.88s13.65,11.08-6.53,27.3c-10.72,8.62-34.02,10.48-45.3,9.49
		C456.11,652.14,458.81,621.67,459.6,605.05z"/>
</g>
<g id="neck">
	<path class="st6" d="M479.05,636.44l0.79,22.95c0,0,1.58,8.7,11.08,7.12s9.23-12.4,9.23-12.4l1.85-24.79L479.05,636.44z"/>
</g>
<g id="left_arm">
	<path class="st2" d="M537.29,694.37c0,0,3.82,29.66,2.34,37.51s-17.63,15.25-21.37,4.56c-3.75-10.69-5.81-29.78-5.82-49.33
		C512.43,675.41,533.51,676.75,537.29,694.37z"/>
	<path class="st6" d="M537.29,694.37c0,0,2.64,20.51,2.68,31.93c0.01,2.31-0.48-3.24-5.99-13.25c-8.7-15.82-21.04-9.45-21.17-11.86
		c-0.24-4.59-0.37-9.32-0.37-14.08C512.43,675.41,533.51,676.75,537.29,694.37z"/>
	<path class="st7" d="M511.12,698.22c0,0-6.29-36.86,1.68-41.8c7.97-4.94,13.02-2.65,18.42,5.94s8.08,34.61,8.08,34.61
		S530.54,695.94,511.12,698.22z"/>
	<path class="st8" d="M530.42,682.2c-2.37-7.78-12.46-26.31-17.62-25.78c7.97-4.94,13.02-2.65,18.42,5.94s8.08,34.61,8.08,34.61
		l-3.81-0.23l-5.08-19.81V682.2z"/>
</g>
<g id="left_forearm">
	<g>
		<path class="st2" d="M541.8,801.6c-1.84,6.03-10.79,4.5-15.34-0.13s-4.64-15-5.65-35.51c-1.67-33.91-7.93-39.42,2.88-44.2
			c9.56-4.23,15.48-2.75,17.93,14C544.08,752.52,543.64,795.58,541.8,801.6z"/>
		<path class="st6" d="M541.8,801.6c-1.84,6.03-13.57,2.48-18.12-2.16c-4.56-4.63,12.09-5.85,14.71-26.22
			c4.82-37.43,2.31-33.13,3.23-37.47C544.08,752.52,543.64,795.58,541.8,801.6z"/>
	</g>
	<path class="st6" d="M519.74,732.44c0,0,7.91-2.37,10.09-2.18C532,730.46,526.46,728.29,519.74,732.44z"/>
</g>
<g id="left_hand">
	<path class="st2" d="M538.33,796.13c0,0,5.93,9.1,1.98,9.49c-3.96,0.4-5.8,1.19-5.8,1.19s-1.42,10.12-2.44,11.54
		c-1.02,1.42-3.62,1.14-4.68,1.22c-1.71,0.13-1.56-0.94-2.04-2.41c-0.79-2.37,0.07,3.1-0.03,3.89c-0.1,0.79-1.55,0.86-4.32,0.86
		s-3.43-3.56-3.43-3.56s0,1.85-3.69,1.58c-3.69-0.26-3.43-3.43-3.43-3.43l-4.48-1.32c0,0-2.11-12.13-2.11-16.48
		c0-4.35,14.24-7.52,15.82-7.12C521.25,791.98,533.98,787.63,538.33,796.13z"/>
	<path class="st6" d="M541.89,797.12c0,0,2.37,8.11-1.58,8.51c-3.96,0.4-5.8,1.19-5.8,1.19s-1.42,10.12-2.44,11.54
		c-1.02,1.42-3.62,1.14-4.68,1.22c-1.71,0.13-1.56-0.94-2.04-2.41c-0.79-2.37,0.07,3.1-0.03,3.89c-0.1,0.79-1.55,0.86-4.32,0.86
		s-3.43-3.56-3.43-3.56s0,1.85-3.69,1.58c-3.69-0.26-3.43-3.43-3.43-3.43s-4.02,0.53-4.48-1.32c-0.46-1.85-0.7-4.05-1.3-8.31
		c-0.11-0.76,2.72-1.89,5.32-3.23c1.91-0.98,3.22-2.51,5.54-1.85c3.69,1.05,7.38,1.5,9.49,0.79c5.23-1.75,5.6-6.3,5.6-7.05
		c0-4.35-10.95-3.96-10.95-3.96S535.96,787.63,541.89,797.12z"/>
</g>
<g id="head">
	<g>
		<path class="st13" d="M445.75,640.22c0,0,9.48,15.81,23.94,9.33c14.46-6.48,18.03-43.28-3.42-42.56
			C444.82,607.7,437.73,629.44,445.75,640.22z"/>
		<g>
			<path class="st13" d="M473.67,585.08c-7.41,3.63-36.14,5.89-38.12-0.41c-1.99-6.3,20.34-18.41,26.76-5.61
				c0,0-8.45-11.96-1.16-17.32S481.08,581.45,473.67,585.08z"/>
			<path class="st2" d="M449.32,608.81c-3.39,31.05,16.38,38.47,37.79,35.73c16.09-2.06,18.34-12.29,17.45-32.59
				c-0.89-20.3-9.18-31.28-25.38-32.4C457.81,578.05,451.52,588.63,449.32,608.81z"/>
			<path class="st6" d="M488.62,606.11c11.08,45.89-22.91,41.17-1.5,38.42c16.09-2.06,18.34-12.29,17.45-32.59
				c-0.89-20.3-9.18-31.28-25.38-32.4c-15.63-1.09-23.2,4.28-26.99,15.13C463.96,585.67,480.31,586.33,488.62,606.11z"/>
			<path class="st6" d="M458.92,639.34c7.2,5.39,17.49,6.57,28.2,5.19c16.09-2.06,18.34-12.29,17.45-32.59
				c-0.89-20.3-1.71,13.69-20.17,26.87C467.5,650.88,451.72,633.95,458.92,639.34z"/>
			<path class="st9" d="M507.87,612.57l-2.77-0.4c0,0-7.21-23.69-22.95-29.67c-16.53-6.28-27.49,6.79-27.49,6.79
				s9.3-19.05,31.65-10.35C505.54,586.44,507.87,612.57,507.87,612.57z"/>
			<path class="st6" d="M498.75,609.5c-1.64,6.21,1.1,13.26,5.95,14.54c4.85,1.28,9.97-3.69,11.61-9.9
				c1.64-6.21-0.96-12.28-5.81-13.56C505.65,599.3,500.39,603.29,498.75,609.5z"/>
		</g>
		<path class="st13" d="M510.26,624.21c0,0-13.39-5.71-21.21,3.27c-7.81,8.98,4.76,31.56,20.02,23.38
			C524.33,642.68,520.52,627.54,510.26,624.21z"/>
	</g>
	<g>
		<g>
			<path class="st13" d="M476.6,590.45c-1.7,0.2-3.09,2.39-3.09,4.89c0,2.5,1.38,4.36,3.09,4.16c1.7-0.2,3.09-2.39,3.09-4.89
				C479.68,592.11,478.3,590.25,476.6,590.45z"/>
			<path class="st13" d="M456.72,592.15c-1.1,0.01-2.14,1.84-2.33,4.07c-0.19,2.24,0.56,4.04,1.66,4.03
				c1.1-0.01,2.14-1.84,2.33-4.07C458.56,593.94,457.81,592.14,456.72,592.15z"/>
		</g>
		<path class="st15" d="M480.24,589.03c0,0-1.91-2.57-7.2-2.87"/>
		<path class="st15" d="M459,587.78c0,0-3.16,0.64-4.28,2.54"/>
	</g>
	<g>
		<path class="st7" d="M496.79,588.7c0,0-0.65,10.67,2.04,18c2.03,5.55,4.79,8.78,4.79,8.78l0.67-2.26l3.3,0.31
			c0,0-6.5-7.46-8.44-24.34L496.79,588.7z"/>
		<path class="st7" d="M496.94,587.53c0,0-4.27,9.8-4.25,17.61c0.01,5.91,1.49,9.89,1.49,9.89l1.4-1.9l2.99,1.42
			c0,0-3.55-9.24,0.41-25.76L496.94,587.53z"/>
		<path class="st7" d="M496.47,594.37c2.14,1.39,13.02-6.79,8.83-11.07c-3.94-4.03-9.1-7.85-11.21-4.02
			C491.98,583.1,494.33,592.98,496.47,594.37z"/>
		<path class="st9" d="M503.25,590.27c0,0,3.24-4.84,1.85-5.96s-1.9,1.76-4.14,4.85C498.72,592.24,501.84,592.26,503.25,590.27z"/>
		<g>
			<path class="st7" d="M496.84,590.92c0,0,1.53-2.19,6.09-1.44c4.57,0.75,7.66,1.73,8.42,4.51c0.76,2.78-3.18,8.26-6.5,9.77
				c-3.32,1.51-7.85-6.2-8.57-8.6C495.57,592.75,496.84,590.92,496.84,590.92z"/>
			<path class="st9" d="M508.63,598.84c0,0-3.06,4.47-5.41,3.48c-3.49-1.47,5.07-7.38,6.31-8.41
				C510.78,592.87,511.72,596.46,508.63,598.84z"/>
		</g>
	</g>
</g>
<g id="diamonds_x2F_sparkles">
	<polygon class="st9" points="340.26,324.18 350.93,298.59 363.47,324.18 353.44,355.56 	"/>
	<polygon class="st16" points="797.98,459.24 804.64,443.25 812.48,459.24 806.21,478.86 	"/>
	<polygon class="st17" points="673.11,705.15 684.37,687.74 697.61,705.15 687.02,726.51 	"/>
	<polygon class="st9" points="230.65,746.68 236.42,730.22 243.21,746.68 237.78,766.88 	"/>
	<polygon class="st17" points="624.18,174.11 629.95,157.65 636.74,174.11 631.3,194.31 	"/>
	<polygon class="st17" points="418.46,183.6 424.23,167.14 431.02,183.6 425.59,203.8 	"/>
	<polygon class="st18" points="488.09,109.23 493.86,92.77 500.65,109.23 495.22,129.43 	"/>
	<polygon class="st18" points="753.19,347.03 762.26,321.16 772.92,347.03 764.39,378.77 	"/>
	<polygon class="st18" points="785.58,310.2 791.35,293.74 798.14,310.2 792.71,330.39 	"/>
	<polygon class="st9" points="557.02,224.92 567.29,203.14 579.37,224.92 569.71,251.65 	"/>
	<polygon class="st9" points="507.18,423.08 512.95,406.61 519.74,423.08 514.31,443.27 	"/>
	<polygon class="st9" points="575.62,536.59 582.38,518.81 590.35,536.59 583.98,558.39 	"/>
	<polygon class="st18" points="185.46,433.1 192.04,417.93 199.79,433.1 193.59,451.16 	"/>
	<polygon class="st17" points="284.06,193.1 292.19,178.86 301.77,193.1 294.11,210.57 	"/>
	<circle class="st9" cx="298.2" cy="599.91" r="3.56"/>
	<circle class="st18" cx="589.36" cy="584.48" r="3.56"/>
	<circle class="st18" cx="644.75" cy="705.14" r="5.14"/>
	<circle class="st18" cx="798.64" cy="534.64" r="5.14"/>
	<circle class="st17" cx="714.57" cy="645.6" r="2.97"/>
	<circle class="st9" cx="695.38" cy="629.19" r="5.14"/>
	<circle class="st19" cx="237.27" cy="655.49" r="4.35"/>
	<circle class="st9" cx="217.3" cy="660.44" r="6.53"/>
	<circle class="st9" cx="301.36" cy="726.9" r="6.33"/>
	<circle class="st17" cx="543.47" cy="367.69" r="6.33"/>
	<circle class="st18" cx="185.85" cy="551.25" r="9.49"/>
	<circle class="st17" cx="573.14" cy="570.64" r="3.16"/>
	<circle class="st18" cx="258.24" cy="733.23" r="3.16"/>
	<circle class="st18" cx="297.41" cy="556" r="5.54"/>
	<circle class="st9" cx="312.44" cy="563.91" r="3.16"/>
	<circle class="st18" cx="610.99" cy="311.52" r="3.16"/>
	<circle class="st9" cx="606.77" cy="291.74" r="5.8"/>
	<circle class="st18" cx="649.49" cy="502.2" r="3.16"/>
	<circle class="st17" cx="644.35" cy="682.99" r="3.96"/>
	<circle class="st18" cx="205.23" cy="796.53" r="6.33"/>
	<circle class="st9" cx="773.71" cy="760.53" r="6.33"/>
	<circle class="st17" cx="755.91" cy="737.98" r="4.35"/>
</g>
<g id="bubble-headphones">
	<circle class="st18" cx="144.51" cy="711.27" r="32.64"/>
	<path class="st3" d="M158.69,692.59c11.84,6.64,16.05,21.62,9.41,33.45c-6.64,11.84-21.62,16.05-33.45,9.41
		S146.85,685.95,158.69,692.59z"/>
	<g>
		<g>
			<path class="st19" d="M156.01,711.51c0-6.87-5.94-12.34-12.97-11.57c-5.42,0.6-9.77,5.05-10.26,10.48
				c-0.42,4.6,2.06,8.71,5.62,10.94c0.46,0.29,0.71,0.82,0.71,1.36c-0.01,0.38-0.01,0.73-0.01,0.77v1.76c0,1.38,0.9,2.51,2.29,2.51
				h4.52c2.03,0,3.67-1.64,3.67-3.67v-0.59c0-0.04,0-0.43-0.01-0.82c-0.01-0.52,0.24-1.02,0.69-1.3
				C153.54,719.32,156.01,715.67,156.01,711.51z"/>
			<path class="st20" d="M141.77,725.44c0,0,1.34-11.82-0.84-12.66c-2.18-0.84-3.1,2.6,0.34,2.35c3.44-0.25,7.38,0.25,7.8-1.59
				c0.42-1.84-1.59-1.93-2.18-0.08c-0.59,1.84-0.92,9.98,0.67,12.07"/>
			<path class="st0" d="M149.37,728.48c0,2.84-2.3,5.14-5.14,5.14c-2.84,0-5.14-2.3-5.14-5.14S149.37,725.64,149.37,728.48z"/>
			<path class="st21" d="M149.51,729.27h-10.28c-0.6,0-1.09-0.49-1.09-1.09v-2.05c0-0.6,0.49-1.09,1.09-1.09h10.28
				c0.6,0,1.09,0.49,1.09,1.09v2.05C150.6,728.78,150.11,729.27,149.51,729.27z"/>
		</g>
		<g>
			<line class="st22" x1="143.23" y1="695.28" x2="143.11" y2="687.34"/>
			<line class="st22" x1="149.93" y1="696.62" x2="152.39" y2="692.82"/>
			<line class="st22" x1="155.52" y1="700.2" x2="160.89" y2="696.4"/>
			<line class="st22" x1="136.07" y1="697.51" x2="133.72" y2="694.61"/>
			<line class="st22" x1="130.37" y1="702.32" x2="125" y2="699.3"/>
			<line class="st22" x1="128.8" y1="709.59" x2="125.11" y2="709.14"/>
			<line class="st22" x1="163.35" y1="706.91" x2="159.66" y2="708.81"/>
		</g>
	</g>
</g>
<g id="bubble-web">
	<circle class="st16" cx="138.91" cy="509.14" r="33.98"/>
	<path class="st9" d="M151.15,484.01c14.32,6.76,20.45,23.84,13.69,38.16c-6.76,14.32-23.84,20.45-38.16,13.69
		C112.36,529.1,136.83,477.25,151.15,484.01z"/>
	<g>
		<circle class="st23" cx="138.9" cy="510.64" r="19.52"/>
		<ellipse class="st23" cx="138.9" cy="510.64" rx="7.38" ry="19.52"/>
		<path class="st23" d="M152.88,496.84c0,0-4.48,7.38-13.98,7.38c-9.49,0-13.98-7.38-13.98-7.38"/>
		<path class="st23" d="M152.88,523.81c0,0-2.64-7.38-13.98-7.38c-11.34,0-13.98,7.38-13.98,7.38"/>
		<line class="st23" x1="119.38" y1="510.7" x2="158.25" y2="510.7"/>
	</g>
</g>
<g id="bubble-headset">
	<circle class="st3" cx="784.92" cy="684.18" r="25.32"/>
	<path class="st18" d="M771.04,696.63c-7.36-7.06-7.61-18.74-0.55-26.1c7.06-7.36,18.74-7.61,26.1-0.55S778.4,703.69,771.04,696.63z
		"/>
	<g>
		<path class="st24" d="M771.67,683.19c0-7.76,6.29-14.04,14.04-14.04c7.76,0,14.04,6.29,14.04,14.04"/>
		<path class="st25" d="M771.67,691.16c0.4,8.97,2.51,10.15,5.39,11.06"/>
		<g>
			<path class="st26" d="M774.34,694.5h1.59v-13.04h-1.59c-3.6,0-6.52,2.92-6.52,6.52l0,0C767.83,691.59,770.74,694.5,774.34,694.5z
				"/>
			<rect x="774.17" y="680.88" class="st0" width="2" height="13.98"/>
		</g>
		<g>
			<path class="st26" d="M797.6,694.5h-1.59v-13.04h1.59c3.6,0,6.52,2.92,6.52,6.52l0,0C804.12,691.59,801.2,694.5,797.6,694.5z"/>
			
				<rect x="795.78" y="680.88" transform="matrix(-1 -4.463553e-11 4.463553e-11 -1 1593.5597 1375.7362)" class="st0" width="2" height="13.98"/>
		</g>
		<circle class="st26" cx="778.06" cy="702.11" r="1.98"/>
	</g>
</g>
<g id="bubble-certificate">
	<circle class="st3" cx="747.41" cy="552.04" r="35.6"/>
	<path class="st18" d="M759.93,524.21c12.79,8.64-18.48,54.96-31.28,46.33c-12.79-8.64-16.16-26.01-7.52-38.8
		C729.77,518.94,747.14,515.57,759.93,524.21z"/>
	<g>
		<rect x="723.6" y="536.68" class="st26" width="46.29" height="32.04"/>
		<polygon class="st21" points="763.16,567.17 729.93,567.17 725.85,562.92 725.85,541.3 729.41,538.23 764.48,538.23 
			767.65,542.35 767.65,563.19 		"/>
		<rect x="733.89" y="543.67" class="st0" width="26.9" height="3.96"/>
		<rect x="738.64" y="552.64" class="st0" width="17.93" height="1.71"/>
		<rect x="738.64" y="554.75" class="st0" width="17.93" height="1.71"/>
		<rect x="738.64" y="557.52" class="st0" width="17.93" height="1.71"/>
	</g>
	<g>
		<path class="st9" d="M769.91,570.09l-2.93-0.17c-0.23-0.01-0.42,0.16-0.44,0.39l-0.16,2.52c-0.02,0.34-0.43,0.51-0.69,0.29
			l-2.08-1.8c-0.18-0.16-0.46-0.13-0.6,0.07l-1.67,2.26c-0.21,0.28-0.64,0.2-0.73-0.14l-0.76-2.8c-0.07-0.24-0.33-0.37-0.56-0.27
			l-2.68,1.16c-0.31,0.13-0.64-0.14-0.57-0.47l0.69-3c0.05-0.24-0.11-0.47-0.35-0.5l-2.55-0.32c-0.34-0.04-0.49-0.46-0.24-0.71
			l2.07-2.03c0.17-0.17,0.16-0.44-0.01-0.6l-1.92-1.73c-0.26-0.23-0.13-0.66,0.21-0.72l2.73-0.48c0.23-0.04,0.39-0.27,0.33-0.5
			l-0.62-2.71c-0.07-0.32,0.24-0.6,0.55-0.48l2.62,0.97c0.21,0.08,0.45-0.03,0.53-0.24l0.95-2.49c0.12-0.3,0.52-0.36,0.72-0.1
			l1.58,2.07c0.13,0.17,0.37,0.21,0.55,0.1l2.31-1.48c0.26-0.17,0.61,0,0.64,0.31l0.25,2.6c0.02,0.21,0.19,0.37,0.4,0.37l2.72,0.06
			c0.3,0.01,0.5,0.33,0.36,0.6l-1.18,2.37c-0.09,0.19-0.03,0.41,0.14,0.53l2.21,1.49c0.26,0.17,0.24,0.56-0.03,0.71l-2.34,1.3
			c-0.19,0.11-0.27,0.34-0.18,0.54l1.14,2.49C770.44,569.79,770.22,570.11,769.91,570.09z"/>
		<circle class="st21" cx="762.67" cy="564.55" r="5.48"/>
	</g>
</g>
<g id="bubble-class">
	<circle class="st18" cx="630.7" cy="451.56" r="37.98"/>
	<path class="st3" d="M655.47,434.72c9.92,9.39,8.77,26.71-2.57,38.68c-11.34,11.97-28.57,14.07-38.49,4.68
		C604.5,468.69,645.56,425.33,655.47,434.72z"/>
	<g>
		<g>
			<path class="st26" d="M649.8,465.35h-38.4c-2.56,0-4.63-2.07-4.63-4.63v-22.93c0-2.56,2.07-4.63,4.63-4.63h38.4
				c2.56,0,4.63,2.07,4.63,4.63v22.93C654.43,463.28,652.36,465.35,649.8,465.35z"/>
			<rect x="609.77" y="435.19" class="st0" width="41.66" height="27.32"/>
			<g>
				<circle class="st7" cx="630.48" cy="443.31" r="5.34"/>
			</g>
			<rect x="624.15" y="465.19" class="st27" width="12.92" height="3.09"/>
			<path class="st26" d="M650.17,469.87h-39.13c-0.41,0-0.75-0.34-0.75-0.75v-0.65c0-0.41,0.34-0.75,0.75-0.75h39.13
				c0.41,0,0.75,0.34,0.75,0.75v0.65C650.92,469.53,650.58,469.87,650.17,469.87z"/>
		</g>
		<g>
			<g>
				<path class="st9" d="M656.66,441.86h-15.47c-2.11,0-3.82-1.71-3.82-3.82v-2.83c0-2.11,1.71-3.82,3.82-3.82h15.47
					c2.11,0,3.82,1.71,3.82,3.82v2.83C660.48,440.15,658.77,441.86,656.66,441.86z"/>
				<path class="st9" d="M641.52,439.65c0.18,2.53-1.44,5.42-1.44,5.42s6.59-1.49,7.32-5.46
					C647.39,439.6,641.34,437.12,641.52,439.65z"/>
			</g>
			<g>
				<circle class="st0" cx="643.32" cy="436.42" r="1.26"/>
				<circle class="st0" cx="649.01" cy="436.42" r="1.26"/>
				<circle class="st0" cx="654.43" cy="436.42" r="1.26"/>
			</g>
		</g>
		<path class="st7" d="M630.65,448.79L630.65,448.79c-4.94,0-8.95,4.01-8.95,8.95v4.76h17.9v-4.76
			C639.6,452.8,635.6,448.79,630.65,448.79z"/>
	</g>
</g>
<g id="bubble-mic">
	<circle class="st9" cx="751.76" cy="243.14" r="43.91"/>
	<path class="st16" d="M723.73,268.83c-12.42-14.17-10.99-35.73,3.18-48.15c14.17-12.42,59.14,38.91,44.97,51.33
		C757.7,284.43,736.14,283.01,723.73,268.83z"/>
	<g>
		<path class="st28" d="M752.48,282.11L752.48,282.11c-1.24,0-2.24-1-2.24-2.24V274c0-1.24,1-2.24,2.24-2.24l0,0
			c1.24,0,2.24,1,2.24,2.24v5.87C754.73,281.11,753.72,282.11,752.48,282.11z"/>
		<path class="st26" d="M751.56,273.74L751.56,273.74c-6.77,0-12.26-5.49-12.26-12.26v-21.96c0-6.77,5.49-12.26,12.26-12.26l0,0
			c6.77,0,12.26,5.49,12.26,12.26v21.96C763.82,268.25,758.33,273.74,751.56,273.74z"/>
		<path class="st28" d="M753.01,239.87H739.3c0,0,0.02-1.12,0.05-1.43c0.03-0.3,0.11-0.9,0.11-0.9h13.55V239.87z"/>
		<rect x="739.29" y="241.94" class="st28" width="13.71" height="2.33"/>
		<rect x="739.29" y="246.85" class="st28" width="13.71" height="2.33"/>
		<rect x="739.29" y="252.02" class="st28" width="13.71" height="2.33"/>
		<rect x="739.3" y="257.46" class="st28" width="13.71" height="2.33"/>
		<path class="st28" d="M753.07,264.44h-13.41c0,0-0.31-0.97-0.35-2.33h13.76V264.44z"/>
	</g>
	<polygon class="st19" points="746.29,203.98 746.81,216.37 750.51,217.56 747.6,227.32 756.57,216.11 751.56,213.74 752.88,203.45 
			"/>
	<polygon class="st19" points="722.71,216.51 727.17,212.28 729.83,223.04 733.66,220.84 738.37,233.57 732.89,225.87 
		730.08,227.84 	"/>
	<polygon class="st19" points="768.97,210.84 773.71,213.74 768.63,221.35 772.54,223.4 764.35,234.23 767.88,225.46 764.71,224.15 
			"/>
</g>
<g id="bubble-cap">
	<circle class="st9" cx="482.75" cy="359.19" r="41.74"/>
	<path class="st16" d="M518.89,361.97c-5.86,10.64-62.55-20.58-56.69-31.22c5.86-10.64,23.3-12.28,38.95-3.65
		C516.81,335.72,524.75,351.33,518.89,361.97z"/>
	<g>
		<g>
			<line class="st29" x1="458.81" y1="351.07" x2="458.81" y2="374.84"/>
			<circle class="st7" cx="459.01" cy="374.29" r="2.11"/>
		</g>
		<polygon class="st17" points="482.97,358.99 449.23,352.53 482.97,336.04 518.24,351.53 		"/>
		<path class="st26" d="M483.66,345.89c-11.17,0-20.54,9.48-20.54,9.48v12.43c0,1.87,7.29-7.5,21-7.5s20.79,9.37,20.79,7.5v-12.43
			C504.92,355.37,494.83,345.89,483.66,345.89z"/>
		<g>
			<path class="st30" d="M457.48,379.16c0,0-1.17-1.58,0.28-3.96"/>
			<path class="st30" d="M458.27,379.21c0,0,0.28-3.48,0.28-4.4"/>
			<path class="st30" d="M460.03,375.11c0,0-0.2,2.88-0.43,3.91"/>
			<path class="st30" d="M460.45,374.71c0,0,0.59,2.27,0.49,4.25"/>
		</g>
	</g>
</g>
<g id="bubble-play_1_">
	<circle class="st18" cx="339.6" cy="511.46" r="38.96"/>
	<path class="st3" d="M356.48,482.58c16.8,8.59,23.45,29.18,14.86,45.98s-29.18,23.45-45.98,14.86
		C308.57,534.82,339.68,473.99,356.48,482.58z"/>
	<g>
		<path class="st27" d="M333.46,490.15h8.04c1.73,0,3.34,0.9,4.24,2.39l2.64,4.36l-16.75,1.02L333.46,490.15z"/>
		<path class="st26" d="M361.36,529.89h-41.68c-1.86,0-3.37-1.51-3.37-3.37v-25.38c0-1.8-0.3-3.51,0.99-4.75l4.52-5.42
			c0.95-0.91,2.22-1.42,3.54-1.42h10.16c1.51,0,2.9,0.78,3.7,2.05l1.78,2.85h20.35c1.86,0,3.37,1.51,3.37,3.37v28.71
			C364.73,528.38,363.22,529.89,361.36,529.89z"/>
		<path class="st9" d="M338.58,502.36l10.16,8.56c0.55,0.55,0.55,1.44,0,1.99l-10.16,8.56c-0.89,0.89-2.4,0.26-2.4-0.99v-17.11
			C336.18,502.1,337.69,501.47,338.58,502.36z"/>
		<line class="st23" x1="324.28" y1="492.5" x2="322.24" y2="495.16"/>
		<line class="st23" x1="328.57" y1="492.5" x2="326.53" y2="495.16"/>
		<line class="st23" x1="332.45" y1="492.5" x2="330.41" y2="495.16"/>
	</g>
</g>
<g id="bubble-subject">
	<circle class="st9" cx="434.88" cy="120.04" r="35.6"/>
	<path class="st16" d="M463.27,135.4c-8.23,13.88-26.16,18.46-40.04,10.23s15.93-58.5,29.81-50.27S471.5,121.52,463.27,135.4z"/>
	<g>
		<ellipse class="st23" cx="435.8" cy="119.12" rx="10.88" ry="26.51"/>
		<ellipse class="st23" cx="435.8" cy="119.12" rx="26.51" ry="10.88"/>
		
			<ellipse transform="matrix(0.7071 -0.7071 0.7071 0.7071 43.4123 343.0484)" class="st31" cx="435.8" cy="119.12" rx="26.51" ry="10.88"/>
		
			<ellipse transform="matrix(0.7071 -0.7071 0.7071 0.7071 43.4123 343.0484)" class="st31" cx="435.8" cy="119.12" rx="10.88" ry="26.51"/>
		<circle class="st32" cx="435.8" cy="118.92" r="2.57"/>
	</g>
</g>
<g id="bubble-book">
	<circle class="st18" cx="256.86" cy="283.3" r="56.97"/>
	<path class="st3" d="M277.37,239.83c24.01,11.33,34.28,39.98,22.96,63.98c-11.33,24.01-39.98,34.28-63.98,22.96
		C212.34,315.44,253.36,228.5,277.37,239.83z"/>
	<g>
		<path class="st7" d="M288.8,255.73l0.23,50.15l-3.33,0.73l-28.51,4.18h-3.69c0,0-27.1-4.12-33.24-3.92l-2.76-0.24l-1.12-44.04
			c0,0,24.55-4.67,34.52,4.84C250.89,267.43,276.73,253.76,288.8,255.73z"/>
		<path class="st19" d="M288.01,256.31l0.22,49.04l-3.26,0.72l-27.89,4.09h-3.61c0,0-26.51-4.03-32.51-3.83l-2.7-0.23l-1.1-43.08
			c0,0,24.01-4.57,33.76,4.73C250.93,267.76,276.2,254.39,288.01,256.31z"/>
		<path class="st0" d="M254.7,308.8l-2.23-42.66c0,0,18.88-15.68,31.75-13.68c0,0,2.65,37.22,2.94,48.72
			c0.02,0.92-1.9,2.89-1.9,2.89L254.7,308.8z"/>
		<path class="st0" d="M252.17,266.31c0,0-12.59-12.55-34.13-4.8l0.57,40.63l1.85,2.88c7.16,0.11,26.98,1.23,34.73,4.65
			L252.17,266.31z"/>
		<path class="st21" d="M252.66,265.94c0,0-15.2-16.41-24.11-16.93l1.1,49.95c0,0,21.8,4.01,25.05,9.82L252.66,265.94z"/>
		<path class="st21" d="M285.26,304.06c0,0-1.49-50.65-1.11-51.61l2.61,0.78l0.66,51.44L285.26,304.06z"/>
		<polygon class="st21" points="287.42,304.68 285.4,303.82 254.7,308.8 255.19,309.67 		"/>
		<path class="st21" d="M220.47,305.02l-1.85-2.88c0,0,29.73,0.34,36.08,6.66l0.52,0.87C255.22,309.67,236.84,305.25,220.47,305.02z
			"/>
	</g>
	<g>
		
			<rect x="275" y="296.43" transform="matrix(0.7427 -0.6697 0.6697 0.7427 -128.8614 261.8363)" class="st27" width="2.49" height="4.3"/>
		<circle class="st26" cx="268.66" cy="290.15" r="10.55"/>
		<circle class="st0" cx="268.66" cy="290.15" r="8.97"/>
		<path class="st21" d="M277.63,290.15c0,4.95-4.01,8.97-8.97,8.97c0,0,11.74-5.93,0-17.93
			C273.61,281.19,277.63,285.2,277.63,290.15z"/>
		<path class="st9" d="M290.16,314.01L290.16,314.01c-1.05,0.95-2.67,0.86-3.62-0.19l-10.1-11.2c-0.95-1.05-0.86-2.67,0.19-3.62h0
			c1.05-0.95,2.67-0.86,3.62,0.19l10.1,11.2C291.3,311.44,291.21,313.06,290.16,314.01z"/>
	</g>
</g>
<g id="paddle">
	<g>
		<path class="st1" d="M712.79,923.65c0,0-153.49-220.75-156.66-226.02c-3.16-5.27,1.85-15.03,9.1-3.82s157.05,227.47,157.05,227.47
			L712.79,923.65z"/>
		<path class="st1" d="M767.38,994.33c9.65,2.3,20.63-0.74,28.14-3.7c-17.69-21.29-51.44-61.78-54.25-63.56
			c-4.05-2.57-41.67-37.45-48-33.23c-6.33,4.22,17.93,66.46,27.96,81.76c6.33,9.66,16.03,21.85,22.33,29.54
			C759.06,999.76,752.64,990.82,767.38,994.33z"/>
		<path class="st2" d="M767.38,994.33c11.64,2.77,25.2-2.22,32.3-5.46c-16.98-20.44-53.37-64.16-56.3-66.01
			c-4.05-2.57-41.67-37.45-48-33.23c-6.33,4.22,17.93,66.46,27.96,81.76c7.06,10.77,18.31,24.7,24.36,32
			C757.96,998.06,754.16,991.18,767.38,994.33z"/>
	</g>
	<path class="st11" d="M644.13,829.34l0.81,3.44c0.16,0.67,1.01,0.9,1.47,0.38c2.25-2.48,7.89-6.91,15.15,0.35l2.24,0.46l-0.07-2.84
		c0,0-7.9-13.78-18.74-4.51C644.22,827.3,643.89,828.35,644.13,829.34z"/>
</g>
</svg>
