<?xml version="1.0" encoding="utf-8"?>
<!-- Generator: Adobe Illustrator 23.1.0, SVG Export Plug-In . SVG Version: 6.00 Build 0)  -->
<svg version="1.1" xmlns="http://www.w3.org/2000/svg" xmlns:xlink="http://www.w3.org/1999/xlink" x="0px" y="0px"
	 viewBox="0 0 1920 1080" style="enable-background:new 0 0 1920 1080;" xml:space="preserve">
<style type="text/css">
	.st0{fill:#866694;}
	.st1{fill:#634874;}
	.st2{fill:#F4E8D8;}
	.st3{fill:url(#SVGID_1_);}
	.st4{fill:none;stroke:#866694;stroke-miterlimit:10;}
	.st5{fill:#7A4630;}
	.st6{fill:#A86243;}
	.st7{fill:#29ACE4;}
	.st8{fill:#13161F;}
	.st9{fill:none;stroke:#29ACE4;stroke-width:2;stroke-linecap:round;stroke-linejoin:round;stroke-miterlimit:10;}
	.st10{fill:#FEED7F;}
	.st11{fill:#F6BE4A;}
	.st12{fill:none;stroke:#FEED7F;stroke-width:3;stroke-miterlimit:10;}
	.st13{opacity:0.5;fill:#29ACE4;}
	.st14{fill:#3D4C6D;}
	.st15{fill:#A96344;}
	.st16{opacity:0.5;}
	.st17{fill:#273150;}
	.st18{fill:#102342;}
	.st19{fill:none;stroke:#273150;stroke-linecap:round;stroke-linejoin:round;stroke-miterlimit:10;}
	.st20{fill:#E2D6C9;}
	.st21{fill:#C93F37;}
	.st22{fill:#F6874E;}
	.st23{fill:#CE6D3E;}
	.st24{fill:#972B28;}
	.st25{fill:#1D2436;}
	.st26{fill:#EC6141;}
	.st27{fill:#48598B;}
	.st28{opacity:0.5;fill:#F6BE4A;}
	.st29{fill:none;stroke:#913636;stroke-miterlimit:10;}
	.st30{fill:none;stroke:#C93F37;stroke-width:0.25;stroke-miterlimit:10;}
	.st31{opacity:0.5;fill:#972B28;}
	.st32{fill:#34273A;}
	.st33{fill:none;stroke:#34273A;stroke-linecap:round;stroke-linejoin:round;stroke-miterlimit:10;}
	.st34{fill:#EC5E4D;}
	.st35{fill:#992C29;}
	.st36{fill:#F4864D;}
	.st37{fill:#EE5D4F;}
	.st38{fill:#F7BC4B;}
	.st39{fill:#1D2538;}
	.st40{fill:#121721;}
</style>
<g id="floor">
	<polygon class="st0" points="454.48,892.13 389.07,924.06 570.23,985.36 763.37,965.26 765.49,934.1 872.56,874.65 784.95,832.06 	
		"/>
	<polygon class="st0" points="1124.96,902.76 874.14,851.33 810.85,821.26 918.45,784.87 896.3,769.44 1210.8,686.36 
		1177.57,674.49 1296.25,650.15 1481,655.9 1576.34,674.49 1551.42,705.35 1514.23,714.45 1559.73,725.53 1518.19,799.11 
		1349.66,815.73 1349.66,839.46 	"/>
	<path class="st0" d="M1492.87,857.66l-76.75,5.54l-52.22-15.87l-225.74,65.49c0,0,100.05,19.56,151.37,34.76l118.68-6.61
		L1492.87,857.66z"/>
	<polygon class="st1" points="1382.4,755.2 1328.78,754.52 1311.05,776.22 1367.44,778.89 	"/>
	<polygon class="st1" points="1357.29,733.29 1323.62,732.87 1312.49,746.49 1347.9,748.17 	"/>
	<polygon class="st1" points="1490.76,658.27 1474.34,660.45 1449.09,682.01 1566.85,683.4 	"/>
	<polygon class="st1" points="1228.18,706.18 1169.26,721.97 1140.07,744.8 1263.29,729.65 	"/>
	<polygon class="st1" points="1052.96,762.71 956.03,786.45 994.21,826.21 1148.69,781.7 	"/>
</g>
<g id="door_x2F_clouds">
	<path class="st2" d="M1561.49,624.29c0,0,16.34-47.3,51.52-60.77c35.19-13.47,37.7,12.67,37.7,12.67s11.31-63.38,42.72-85.23
		c31.42-21.84,26.39,21.08,16.34,35.84c0,0,49.01-10.48,38.96,20.38c-10.05,30.86-83.47,78.82-138.76,93.67
		C1554.68,655.71,1561.49,624.29,1561.49,624.29z"/>
	<path class="st2" d="M1427.49,631.37c-33.23-1.58-126.59-23.74-115.52-93.36s50.64-33.23,72.79,0
		c22.15,33.23,3.16,45.89,3.16,45.89s7.91-25.32,30.07-22.15s55.88,49.05,55.88,49.05S1460.72,632.96,1427.49,631.37z"/>
	<path class="st2" d="M815.79,452.16c-67.12-64.2-67.4-107.03,11.42-112.28c28.55-1.9,75.78-7.51,85.68,35.14
		c3.14,13.53,3.05,16.33,3.05,16.33s17.98-8.44,47.82,4.65c25.49,11.18,26.36,46.6,24.1,57.53c0,0,63.51,0,105.39,2.7
		c23.92,1.54-74.69,25.75-127.01,32.43C905.98,496.35,859.56,494.03,815.79,452.16z"/>
	<path class="st2" d="M1003.22,631.29c0,0-72.45-13.83-82.6-13.06c-10.19,0.77-14.92-4.79-19.53-12.37
		c-4.64-7.6-52.2-25.29-52.2-25.29L809,597.47c0,0-38.76-78.36-69.64-102.46c-31.42-24.52-67.58-5.96-67.58-5.96l-8.4,14.1
		c0,0,20.76-32.93,26.59-64.05c5.85-31.25-21.84-101.97-43.69-132.35c-22.16-30.82-96.98-109.99-217.27-91.02
		c-125.16,19.74-195.13,46.61-213.82,106.91c-18.59,60,7.15,182.31,60.35,224.17c0,0-100.74,57.21-101.74,96.56
		c-1.72,68.11,50.52,111.48,112.08,113.81c60.19,2.28,329.84-46.1,428.84-74.01C810.6,656.14,1003.22,631.29,1003.22,631.29z"/>
	<path class="st2" d="M730.62,269.79c0,0-25.18-29.53-43.42-30.39c0,0-10.42-39.08-96.39-33.87c0,0,45.16,26.05,64.26,39.08
		C674.17,257.63,730.62,269.79,730.62,269.79z"/>
	<path class="st2" d="M735.43,84.82c0,0,1.18,13,32.11,35.43c7.32,5.31,26.37,20.92,71.81,37.62
		c45.44,16.69,97.74,35.65,108.74,42.17c11,6.52-19.8-27.11-39.73-30.21c-19.94-3.11-29.94-12.54-22.15-21.47s3.89-18.08-14.18-28.9
		c-18.07-10.82-60.72-18-71.16-12.69C790.44,112.07,752.1,111.44,735.43,84.82z"/>
	<path class="st2" d="M1145.53,268.6c0,0-30.07-20.57-34.02-26.11s-7.91-22.95-15.82-26.9c-7.91-3.96-11.08-3.96-11.08-3.96
		s-3.96-14.24-18.99-15.82s-21.36,13.45-21.36,13.45s-10.29-3.16-9.49,1.58c0.79,4.75,12.66,12.66,30.07,15.03
		c17.41,2.37,33.23,15.82,48.26,25.32C1128.12,260.69,1145.53,268.6,1145.53,268.6z"/>
	<g>
		<linearGradient id="SVGID_1_" gradientUnits="userSpaceOnUse" x1="1380.3545" y1="188.3819" x2="1380.3545" y2="659.4217">
			<stop  offset="0.1145" style="stop-color:#29ACE4"/>
			<stop  offset="0.7706" style="stop-color:#866694"/>
		</linearGradient>
		<polygon class="st3" points="1299.68,197.53 1439.07,181.18 1461.03,649.57 1302.55,644.03 		"/>
		<g>
			
				<rect x="1336.8" y="498.37" transform="matrix(0.6534 0.757 -0.757 0.6534 843.9455 -840.4809)" class="st0" width="5.96" height="5.96"/>
			
				<rect x="1343.94" y="492.99" transform="matrix(0.6534 0.757 -0.757 0.6534 840.7013 -847.1386)" class="st0" width="2.99" height="2.99"/>
			
				<rect x="1343.69" y="547.47" transform="matrix(0.6534 0.757 -0.757 0.6534 884.1778 -828.9281)" class="st0" width="7.19" height="7.19"/>
			
				<rect x="1386.31" y="587.07" transform="matrix(0.6534 0.757 -0.757 0.6534 933.9222 -849.327)" class="st0" width="16.24" height="16.24"/>
			
				<rect x="1415.7" y="424.06" transform="matrix(0.6534 0.757 -0.757 0.6534 815.4293 -926.113)" class="st0" width="6.69" height="6.69"/>
			
				<rect x="1402.14" y="407.19" transform="matrix(0.6534 0.757 -0.757 0.6534 799.0212 -922.0911)" class="st0" width="8.61" height="8.61"/>
			
				<rect x="1401.13" y="575.25" transform="matrix(0.6534 0.757 -0.757 0.6534 926.6183 -863.3354)" class="st0" width="9.91" height="9.91"/>
			
				<rect x="1396.58" y="549.33" transform="matrix(0.6534 0.757 -0.757 0.6534 901.8671 -867.5618)" class="st0" width="3.47" height="3.47"/>
			
				<rect x="1387.42" y="463.82" transform="matrix(0.6534 0.757 -0.757 0.6534 836.9305 -891.3749)" class="st0" width="8.86" height="8.86"/>
			
				<rect x="1374.49" y="460.11" transform="matrix(0.6534 0.757 -0.757 0.6534 829.6351 -882.8666)" class="st0" width="8.86" height="8.86"/>
			
				<rect x="1400.81" y="328.58" transform="matrix(0.6534 0.757 -0.757 0.6534 739.0762 -948.3412)" class="st0" width="8.66" height="8.66"/>
			
				<rect x="1360.52" y="367.57" transform="matrix(0.6534 0.757 -0.757 0.6534 752.1449 -903.4063)" class="st0" width="4.16" height="4.16"/>
			
				<rect x="1348.19" y="379.97" transform="matrix(0.6534 0.757 -0.757 0.6534 756.5314 -889.501)" class="st0" width="2.84" height="2.84"/>
			
				<rect x="1361.64" y="403.18" transform="matrix(0.6534 0.757 -0.757 0.6534 778.7635 -891.6388)" class="st0" width="2.84" height="2.84"/>
			
				<rect x="1384.47" y="506.58" transform="matrix(0.6534 0.757 -0.757 0.6534 865.8262 -873.4053)" class="st0" width="4.42" height="4.42"/>
			
				<rect x="1386.31" y="321.79" transform="matrix(0.6534 0.757 -0.757 0.6534 726.6594 -938.8817)" class="st0" width="4.58" height="4.58"/>
			
				<rect x="1432.91" y="612.94" transform="matrix(0.6534 0.757 -0.757 0.6534 962.8707 -873.1093)" class="st0" width="3.94" height="3.94"/>
			
				<rect x="1429.84" y="619.76" transform="matrix(0.6534 0.757 -0.757 0.6534 965.8847 -868.013)" class="st0" width="1.97" height="1.97"/>
		</g>
	</g>
	<path class="st2" d="M1637.66,234.98c-11.87,3.96-35.6,16.62-37.98,45.1c0,0-21.36-3.96-33.23,17.41s-24.53,34.02-24.53,34.02
		s-4.75,3.96,24.53-13.45c19.36-11.51,121.05-83.08,140.04-97.32s-26.11,4.75-47.47,23.74
		C1669.31,223.9,1649.53,231.02,1637.66,234.98z"/>
	<g>
		<polyline class="st0" points="1369.88,275.21 1308.52,212.43 1310.49,210.45 		"/>
		<line class="st4" x1="1314.05" y1="267.42" x2="1342.54" y2="299.59"/>
		<line class="st4" x1="1329.09" y1="292.21" x2="1350.19" y2="315.42"/>
		<line class="st4" x1="1341.75" y1="591.29" x2="1357.57" y2="579.95"/>
		<line class="st4" x1="1316.43" y1="617.4" x2="1352.03" y2="591.81"/>
		<line class="st4" x1="1379.73" y1="255.02" x2="1389.62" y2="267.02"/>
		<line class="st4" x1="1395.95" y1="265.84" x2="1403.07" y2="274.54"/>
		<line class="st4" x1="1410.98" y1="290.76" x2="1426.41" y2="308.56"/>
		<line class="st4" x1="1403.07" y1="286.8" x2="1407.81" y2="291.95"/>
		<line class="st4" x1="1362.71" y1="227.86" x2="1391.2" y2="260.03"/>
	</g>
</g>
<g id="m_left_arm">
	<g>
		<path class="st5" d="M1305.85,419.35c0,0,9.29,3.48,6.65,5.71s-4.82,0.53-6.33,1.83c-1.92,1.65-3.76,2.23-3.76,2.23
			s-4.73-1.28-5.86-4.23C1295.41,421.95,1295.61,417.56,1305.85,419.35z"/>
		<path class="st6" d="M1223.51,380.85c0.87-8.84,6.44-18.11,19.21-4.38c3.71,3.99,12.55,14.92,16.48,18.07
			c8.01,6.4,11.45,10.66,10.81,15.56c-0.87,6.63-4.2,13.16-10.81,12.92C1247.26,422.6,1222.64,389.69,1223.51,380.85z"/>
		<path class="st5" d="M1223.51,380.85c0.87-8.84,6.44-18.11,19.21-4.38c3.71,3.99,5.69,26,9.63,29.14
			c8.01,6.4,13.47,17.64,6.86,17.41C1247.26,422.6,1222.64,389.69,1223.51,380.85z"/>
		<path class="st6" d="M1290.71,416.07c0,0-18.74-11.29-22.54-13.36c-9.38-5.1-16.44,19.31-6.86,21.1
			c9.6,1.79,20.41,5.95,25.75,5.29C1293,428.38,1294.54,419.59,1290.71,416.07z"/>
		<path class="st5" d="M1269.95,419.33l-12.58-8.78c-1.74,5.69-1.11,12.24,3.68,13.13c9.6,1.79,20.68,6.08,26.01,5.43
			C1293,428.38,1269.95,419.33,1269.95,419.33z"/>
		<path class="st6" d="M1286.44,416.29l10.32-2.85c6.18,1.12,18.09,9.37,20.65,9.38c2.56,0.01,3.76,3.84,1.41,5.16
			s-9.64-4.72-14.12-4.95c-4.48-0.23-5.84,6.62-5.63,7.95c0.07,0.45,2.31-1.13,3.26-0.92c1.88,0.42,2.96,2.58,1.97,4.49
			c-1.02,1.96-4.39,3.37-6.01,3.65c-0.76,0.13-1.55-0.04-2.18-0.48c-2.13-1.48-7.47-5.25-10.98-8.38
			C1280.66,425.34,1286.44,416.29,1286.44,416.29z"/>
		<path class="st5" d="M1283.4,425.26c0,0,16.51,12.65,14.9,12.93c-0.76,0.13-1.55-0.04-2.18-0.48c-2.13-1.48-7.47-5.25-10.98-8.38
			C1280.66,425.34,1283.4,425.26,1283.4,425.26z"/>
	</g>
</g>
<g id="m_legs">
	<g>
		<g>
			<path class="st7" d="M1150.23,717.53c-0.15,0.05-0.29,0.11-0.43,0.18c-2.14,1.07-19.55,9.65-21.63,12.01
				c-1.7,1.93-1.02,9.23-0.61,12.53c0.13,1.02,0.81,1.88,1.79,2.24c3.97,1.47,14.45,5.4,24.86,4.66
				c13.09-0.93,12.89-5.74,22.79-10.01c6.49-2.8,10.45-4.61,12.41-5.53c0.94-0.44,1.38-1.34,1.47-2.34l0.94-11.06
				c0.12-1.38-0.63-2.63-2.02-2.94C1183.36,715.85,1165.28,712.66,1150.23,717.53z"/>
			<path class="st8" d="M1157.48,713.52c0,0-27.28,12.75-29.46,15.07c-2.19,2.32-0.51,10.61-0.51,10.61s13.8,5.56,26.81,4.81
				c13.05-0.75,13.17-4.69,23.01-8.58c7.63-3.02,11.74-4.77,13.21-5.41c0.39-0.17,0.65-0.52,0.69-0.91l0.87-9.78
				c0.08-0.89-0.57-1.71-1.54-1.93C1184.85,716.13,1173.15,708.83,1157.48,713.52z"/>
			<path class="st9" d="M1140.25,722.32c0,0,9.93-3.14,19.36,1.39"/>
			<path class="st9" d="M1147.53,718.38c0,0,9.94-3.14,19.39,1.38"/>
		</g>
		<g>
			<path class="st7" d="M1259.18,698.25c11.64,4.17,28.66,8.35,29.36,13.44c0.7,5.06,1.15,10.41,0.64,12.29
				c-0.38,1.43-1.03,2.27-2.19,2.71c-2.94,1.13-8.83,3.87-20.59,4.72c-5.07,0.37-16.07-2.52-22.66-7.5
				c-5.22-3.94-11.46-8.52-13.8-10.23c-0.61-0.44-1-1.11-1.09-1.84l-0.68-5.67c-0.14-1.16,0.5-2.29,1.6-2.79
				C1234.91,701.01,1249.73,694.87,1259.18,698.25z"/>
			<path class="st8" d="M1258.67,693.35c10.15,3.47,29.41,11.27,30.07,16.31c0.6,4.56,0.85,7.06,0.66,8.8
				c-0.09,0.85-2.49,1.21-3.67,1.62c-2.99,1.03-8.98,3.51-20.92,4.33c-5.15,0.35-15.16-1.14-21.83-5.58
				c-5.53-3.68-12.21-7.98-14.29-9.32c-0.41-0.27-0.69-0.67-0.76-1.11l-0.68-4.4c-0.29-1.89,0.29-10.02,2.39-10.64
				C1237.3,691.09,1249.68,690.27,1258.67,693.35z"/>
			<path class="st9" d="M1257.21,706.52c0,0,9.77-8.18,20.51-4.78"/>
			<path class="st9" d="M1250.7,702.4c0,0,10.15-7.36,20.86-3.98"/>
		</g>
		<path class="st10" d="M1251.29,497.64c6.27,21.53,13.43,65.65,17.79,94.02c2.38,15.44-6.77,92.93-5.91,101.46
			c0.11,1.12-0.82,2.09-2,2.08c-2.71-0.02-5.95,0.25-15.26,1.35c-9.27,1.09-11.78,3.93-16.58,4.38c-4.79,0.45-3.6-5.86-3.6-5.86
			s-1.28-3.22,0.96-16.29c0.66-3.86-1.39-59.94-2.29-74.24c-1.54-24.42-17.72-59.2-18.9-78.57
			C1202.69,479.67,1243.14,469.67,1251.29,497.64z"/>
		<path class="st10" d="M1163.35,508.75c0,0-2.73,52.3-4.82,76.05c-1.51,17.19-2.63,128.43-2.63,128.43s6.69-0.53,20.5,0.19
			l11.14,2.58c0,0,3.43,2.9,4.63,2.27c1.2-0.63,4.53-3.6,5.11-10.98c1.83-23.36,8.02-103.09,7.78-106.75
			c-0.21-3.3,3.19-49.37,6.75-77.08c1.55-12.07-6.9-35.58-23.72-35.34C1174.81,488.3,1164.29,496.76,1163.35,508.75z"/>
		<path class="st11" d="M1237.31,526.93c1.58-10.29,13.98-29.29,13.98-29.29c-8.15-27.97-51.96,22.17-51.96,22.17
			s23.54,60.31,25.08,84.73c0.9,14.29,2.95,70.38,2.29,74.24c-2.24,13.08-0.96,16.29-0.96,16.29s-1.19,6.31,3.6,5.86
			c0.1-0.01,0.21-0.16,0.33-0.41c10.67-12.97,10.01-43.83,10.01-43.83c-1.34,3.45-3.43,7.83-5.22,11.42
			c3.64-32.14,7.59-76.3,7.59-76.3S1235.73,537.22,1237.31,526.93z"/>
		<path class="st11" d="M1163.35,508.75c0,0-2.73,52.3-4.82,76.05c-1.51,17.19-2.63,128.43-2.63,128.43s6.69-0.53,20.5,0.19
			l11.14,2.58c0,0,3.43,2.9,4.63,2.27c1.2-0.63-7.67-13.84-7.09-21.22c1.83-23.36,5.77-75.46,5.54-79.12
			c-0.21-3.3,18.59-72,18.59-72s-4.3-58.05-21.12-57.81C1174.81,488.3,1164.29,496.76,1163.35,508.75z"/>
		<path class="st11" d="M1189.84,668.56c0,0-3.16-9.49-12.66-23.74c0,0-0.79,37.19,7.91,56.18
			C1193.79,719.99,1189.84,668.56,1189.84,668.56z"/>
		<path class="st11" d="M1204.64,514.52c-24.99,0.23-44.89,6.32-40.42-13.94c4.44-20.14,48.8-22.94,75.18-18.03
			C1264.01,487.13,1229.82,514.29,1204.64,514.52z"/>
		<path class="st11" d="M1203.68,519.81c-24.99,0.23-43.93,1.02-39.47-19.24c4.44-20.14,48.8-22.94,75.18-18.03
			C1264.01,487.13,1228.86,519.58,1203.68,519.81z"/>
		<g>
			<path class="st12" d="M1209.28,495.07c1.41-6.49-3.82-2.37-7.84-0.17c-2.97,1.63-5.32,2.85-2.67,4.65
				C1203.03,502.45,1208.37,499.3,1209.28,495.07z"/>
			<path class="st12" d="M1210.07,494.27c0,0,5.45,5.99,10.53,6.72c5.09,0.74,4.47-6.38,1.1-7.65
				C1218.34,492.07,1212.12,492.15,1210.07,494.27z"/>
			<path class="st12" d="M1210.37,493.75c0,0,6.85,6.36,6.83,15.34"/>
			<path class="st12" d="M1208.78,506.79c0,0,1.05-9.89,1.59-13.04"/>
		</g>
	</g>
</g>
<g id="M_torso">
	<g>
		<path class="st7" d="M1170.01,369.68c0,0-2.75,4.27-3.63,18.19c-0.39,6.2-3.31,25.9-2.79,45.7c0.12,4.44-0.32,25.97-1.33,33.94
			c-2.37,18.72-4.57,23.46-0.45,28.48s29.13-7.9,49.46-7.02c28.88,1.24,35.57,6.93,40.29,6.15c4.72-0.78,0.9-30.86,0.07-40.09
			c-0.83-9.23-2.46-33.92-5.17-50.6c-3.55-21.91-8.74-27.79-9.32-29.87c-1.28-4.56-7.84-7.99-17.75-9.42
			C1204.89,363.05,1180.57,368.16,1170.01,369.68z"/>
		<path class="st13" d="M1170.01,369.68c0,0-2.75,4.27-3.63,18.19c-0.39,6.2-3.31,25.9-2.79,45.7c0.12,4.44-0.32,25.97-1.33,33.94
			c-2.37,18.72-4.57,23.46-0.45,28.48s29.13-7.9,49.46-7.02c28.88,1.24,35.57,6.93,40.29,6.15c4.72-0.78-45.87-19.08-46.7-28.32
			c-0.83-9.23-8.7-35.6-3.96-53.8c4.75-18.2,28.4-46.42,18.48-47.86C1204.89,363.05,1180.57,368.16,1170.01,369.68z"/>
		<path class="st14" d="M1169.26,400.47c0,0,40.85-12.15,76.15-1.87l1.65,9.28c0,0-37.42-15.06-78.71,1.56L1169.26,400.47z"/>
		<path class="st14" d="M1167.04,411.52c0,0,44.75-12.37,80.05-2.09l1.19,9.28c0,0-40.37-14.12-81.66,2.5L1167.04,411.52z"/>
		<path class="st5" d="M1185.29,367.17c-0.94,0.1-0.81,1.48-0.81,1.48c4.87,4.3,16.51,10.06,26.37,10.07
			c9.73,0.02,17.91-0.58,19.82-6.82c0.82-2.69-4.68-5.39-4.68-5.39s-6.69-2.19-15.6-2.48
			C1201.68,363.74,1185.95,367.1,1185.29,367.17z"/>
		<g>
			<path class="st5" d="M1203.21,369.96c-7.83-0.26-7.97-0.92-8.04-4.72l0.56-17.75c-0.05-3.01,3.02-5.5,7.89-5.34l8.41,0.15
				c4.73,0.15,7.14,2.76,7.66,5.68c0,0,1.81,13.04,1.46,17.11C1220.8,369.21,1211.05,370.22,1203.21,369.96z"/>
		</g>
		<g>
			<path class="st15" d="M1203.21,369.96c-7.83-0.26,15.96-24.9,16.49-21.98c0,0,1.81,13.04,1.46,17.11
				C1220.8,369.21,1211.05,370.22,1203.21,369.96z"/>
		</g>
		<path class="st5" d="M1162.85,394.7c0,0,0.65,28.58,4.3,25.09c13.3-12.72,8.48-37.7,7.22-44.08s-3.62-7.43-7.65-4.67
			C1160.53,375.28,1162.85,394.7,1162.85,394.7z"/>
		<g class="st16">
			<path class="st7" d="M1166.63,420.12c0.01,6.35-0.03,12.7-0.12,19.05c-0.03,6.35-0.18,12.71-0.52,19.06
				c-0.36,6.35-0.92,12.68-1.7,18.99l-0.65,4.72c-0.12,0.79-0.2,1.57-0.34,2.37c-0.14,0.79-0.31,1.57-0.48,2.35
				c-0.35,1.55-0.73,3.09-1,4.65c-0.13,0.78-0.24,1.56-0.27,2.35c-0.03,0.78-0.02,1.59,0.25,2.34c-0.6-1.5-0.41-3.17-0.25-4.73
				c0.19-1.58,0.49-3.15,0.77-4.71c0.15-0.78,0.29-1.56,0.4-2.33c0.11-0.77,0.17-1.57,0.26-2.36l0.5-4.73
				c0.68-6.3,1.15-12.63,1.52-18.96c0.41-6.33,0.57-12.67,0.81-19.01C1166.05,432.81,1166.31,426.46,1166.63,420.12z"/>
		</g>
		<path class="st7" d="M1235.73,486.58c0,0-19.1-5.01-30.53-11.25c0,0,17.35,2.61,25.07,0.41
			C1237.99,473.53,1245.34,486.21,1235.73,486.58z"/>
	</g>
</g>
<g id="m_right_arm">
	<g>
		<path class="st5" d="M1172.17,372.81c-1.33-8-19.28,3.01-23.44,8.71c-6.47,8.86-3.96,12.41-8.52,17.66
			c-8.02,9.24-27.04,37.75-16.49,43.71c10.82,6.11,20.4-5.69,28.12-15.37c5.68-7.13,14.55-15.33,19.51-25.66
			C1173.46,397.49,1173.87,383.06,1172.17,372.81z"/>
		<path class="st6" d="M1148.3,418.93c-8.02,9.24-35.12,18-24.57,23.95c10.82,6.11,20.4-5.69,28.12-15.37
			c5.68-7.13,14.55-15.33,19.51-25.66C1173.46,397.49,1152.85,413.68,1148.3,418.93z"/>
	</g>
	<g>
		<path class="st5" d="M1115.08,441.95c6.53-14.14,6.37-15.31,14.95-13.83c14.33,2.47,13.25,11.59,9.95,21.37
			c-3.16,9.39-5.3,10.63-8.66,19.28c-3.3,8.5-6.54,22.76-6.54,22.76s-0.49,4.61-7.33,3.24c-6.97-1.4-7.51-3.84-7.88-9.27
			C1109.02,477.53,1112.56,447.4,1115.08,441.95z"/>
		<path class="st6" d="M1126.14,471.15c0,0-0.3-37.54,6.81-41.19c7.69-3.94,11.97,7.83,7.03,19.53c-3.88,9.18-5.3,10.63-8.66,19.28
			c-3.3,8.5-6.54,22.76-6.54,22.76L1126.14,471.15z"/>
	</g>
</g>
<g id="m_head">
	<g>
		<path class="st17" d="M1235.23,323.41c-0.88,22.35-5.56,29.35-20.42,29.57c-11.25,0.17-20.34-13.3-20.31-29.65
			c0.03-16.35,9.18-29.59,20.42-29.57C1226.17,293.78,1236.02,303.29,1235.23,323.41z"/>
		<path class="st5" d="M1228.91,318.93c-0.04-15.05-1.6-23.66-17.81-24.87c-8.46-0.63-16.8,0.16-21.72,2.77
			c-4.45,2.36-7.14,6.04-8.74,15.91c-1.2,7.44-2.9,20.3-0.53,32.75c1.52,7.98,11.48,10.99,20.27,11.61
			c22.7,1.6,26.21-4.6,27.68-15.58C1230.04,326.65,1228.92,325.1,1228.91,318.93z"/>
		<path class="st15" d="M1228.21,303.02c-3.56-9.49-11.38-6.59-10.15-0.26c2.37,12.26,3.82,27.56,0.26,39.43
			c-3.92,13.06-15.03,11.87-15.03,11.87s2.76,0.93,7.91,1.19c13.29,0.67,15.59-6.54,16.88-17.67
			C1229.18,328.1,1230.4,308.86,1228.21,303.02z"/>
		<path class="st17" d="M1185.9,296.48c-1.36,0.82-1.89,1.63-2.86,6.87c-0.2,1.1,1.84-3.16,3.67-4.82s1.41,0.57,10.99,0.36
			c9.59-0.22,23.19-1.83,23.19-1.83l1.31,13.25l4.93,11.52l3-6.35c0.47-11.28-1.55-17.85-8.95-20.36
			C1207.63,290.53,1190.89,293.47,1185.9,296.48z"/>
		<path class="st18" d="M1209.88,314.74c-0.18,2.24-1.24,2.42-2.37,2.33c-1.13-0.09-1.93-0.41-1.78-2.65
			c0.15-2.26,1.22-4.05,2.38-3.96C1209.26,310.55,1210.06,312.48,1209.88,314.74z"/>
		<path class="st19" d="M1205.85,303.46c0,0,4.65-0.24,6.53,2.03"/>
		<path class="st18" d="M1193.84,315.27c-0.08,2.11-1,2.19-2.07,2.1c-1.07-0.08-1.88-0.3-1.83-2.41c0.06-2.13,0.98-3.81,2.07-3.72
			C1193.1,311.33,1193.92,313.14,1193.84,315.27z"/>
		<path class="st19" d="M1194.21,304.14c0,0-3.28-1.41-6.52,1.18"/>
		<path class="st15" d="M1236.21,327.94c-1.5,6.04-5.79,10.28-9.63,9.65c0,0,0.15-13.71,0.1-16.32c-0.03-1.64,0.92-6.7,5.01-6.03
			C1235.76,315.91,1237.76,321.69,1236.21,327.94z"/>
		<path class="st20" d="M1234.04,332.25c-0.22,1.46-1.6,2.53-3.1,2.4c-1.49-0.12-2.55-1.4-2.35-2.85c0.2-1.47,1.58-2.57,3.1-2.44
			C1233.2,329.48,1234.26,330.78,1234.04,332.25z"/>
	</g>
</g>
<g id="k_jacket-back">
	<g>
		<path class="st2" d="M1460.78,522.69c0,0-1.24,1.48-2.25,1.73s-7.79,0.81-9.18-0.22s-1.43-5.81,2.26-6.93
			c3.7-1.12,13.53,3.66,13.53,3.66l-0.34,3.28L1460.78,522.69z"/>
		<g>
			<path class="st2" d="M1543.27,495.48c0,0-16.4,14.73-29.47,18.96l0.05,2.62c-1.37,3.61,11.26,1.46,21.07-6.48
				c7.59-6.14,11.61-11.76,11.82-13.9C1546.94,494.55,1543.27,495.48,1543.27,495.48z"/>
			<path class="st21" d="M1545.57,494.82c0,0-2.57,4.91-14.42,13.9c-9.76,7.42-35.67,12.18-62.53,13.55
				c-5.23,0.27-17.82,0.25-18.16-2.63c-2.45-20.74,14.34-33.42,39.21-37.58C1541.98,473.33,1545.57,494.82,1545.57,494.82z"/>
		</g>
	</g>
</g>
<g id="k_right_arm">
	<g>
		<path class="st22" d="M1425.24,543.32c0,0,0.24,6.06,0.79,7.69c0.55,1.63,3.32,4.41,3.91,4.97c0.59,0.55,2.29-0.7,2.29-0.7
			L1425.24,543.32z"/>
		<path class="st23" d="M1437.84,534.09c0,0,4.99,8.33,3.18,11.07c-0.65,0.75-1.36-0.46-2.49-1.7c-1.16-1.28-2.72-2.61-2.72-2.61
			c-0.64,1.71-1.84,6.26-2.73,11.11c-0.37,2.03,2.17,3.15,0.3,5.05c-1.16,1.18-6.77-7.58-6.77-7.58s-4.08-10.21,2.19-15.53
			C1435.04,528.6,1437.84,534.09,1437.84,534.09z"/>
		<path class="st21" d="M1435.51,481.84c0,0-2.45,1-4.1,6.13c-1.66,5.17-8.85,35.52-6.26,41.44c1.37,3.15,7.97,2.86,13.49,1.84
			c5.4-1,2.55-8.22,3.76-14.68c1.2-6.41,6.27-23.86,5.17-29.19C1446.48,482.07,1435.51,481.84,1435.51,481.84z"/>
		<path class="st24" d="M1436.3,484.14c0,0,1.25,20.05-0.4,25.19c-1.66,5.17-7.12,13.05-4.95,17.21c1.59,3.04,2.16,5.73,7.68,4.71
			c5.4-1,2.55-8.22,3.76-14.68c1.2-6.41,6.27-23.86,5.17-29.19C1446.48,482.07,1436.3,484.14,1436.3,484.14z"/>
		<path class="st21" d="M1428.91,523.64c0.53,0.13,0.79,2.37,7.12,3.82c0,0-4.09,1.58-7.12,0S1428.38,523.51,1428.91,523.64z"/>
		<path class="st2" d="M1427.22,530.78c0,0-0.73,2.19,0.82,2.51c1.2,0.25,6.77-1.12,10.29-0.18c0.76,0.2,1.42-0.55,1.51-1.23
			l0.14-0.97c0.07-0.47-0.35-0.9-0.9-0.93C1436.34,529.86,1428.98,529.65,1427.22,530.78z"/>
		<path class="st23" d="M1435.17,542.28l0.22,7.53c0,0.14,0.03,0.28,0.08,0.41l1.23,3c0.22,0.53,0,1.2-0.52,1.58l0,0
			c-0.6,0.43-1.37,0.3-1.68-0.29l-3.13-5.92c-0.18-0.35-0.17-0.79,0.05-1.18l1.64-2.96C1433.7,543.34,1435.14,541.08,1435.17,542.28
			z"/>
		<path class="st25" d="M1449.02,447.42c0,0-9.36,16.39-10.89,22.98c-1.55,6.65-5.4,7.98-4.4,12.42c0.5,2.23,4.26,1.97,7.12,3.16
			c4.75,1.98,5.76,4.73,8.35,2.26c5.14-4.92,9.15-20.63,10.71-28.52C1461.46,451.88,1456.99,438.21,1449.02,447.42z"/>
		<path class="st17" d="M1449.02,447.42c0,0-9.36,16.39-10.89,22.98c-1.55,6.65-5.4,7.98-4.4,12.42c0.24,1.08,1.26,1.58,2.56,1.94
			c0,0-0.06-2.8,1.72-7.94c1.78-5.14,6-7.45,9.36-13.58C1451.22,456.23,1456.99,438.21,1449.02,447.42z"/>
		<path class="st17" d="M1448.56,460.34c0,0-2.9,7.91-2.64,13.45c0,0-2.64-1.95-2.64-7.38
			C1443.29,461.26,1448.56,460.34,1448.56,460.34z"/>
	</g>
</g>
<g id="k_left_leg">
	<g>
		<path class="st26" d="M1505.38,661.43c0,0-4.8,11.79-3.18,16.93c1.62,5.14,15.78,4.59,25.62,3.51c9.83-1.08,12.68-9.31,5.81-19.36
			C1526.76,652.45,1505.38,661.43,1505.38,661.43z"/>
		<path class="st8" d="M1505.52,657.81c0,0-4.8,11.79-3.18,16.93s15.78,4.59,25.62,3.51c9.83-1.08,12.68-9.31,5.81-19.36
			C1526.89,648.82,1505.52,657.81,1505.52,657.81z"/>
	</g>
	<g>
		<path class="st27" d="M1485.71,538.32c0,0,3.28,20.56,6.67,35.85c2.35,10.6,4.25,39.07,8.4,62.21c1.98,11.05-6.42,9.5,2.11,20.57
			c3.61,4.69,7.97-3.67,17.93-2.11c10.11,1.58,11.64,4.83,14.39-0.52c4.65-9.04-3.95-12.05-5.31-25.12
			c-1.57-15.02-3.77-40.44-8.96-56.28c-3.42-10.45-2.74-29.27-4.38-46.48c-0.87-9.19,0.7-16.47-3.38-18.2
			C1501.6,503.33,1476.14,491.1,1485.71,538.32z"/>
		<path class="st17" d="M1485.71,538.32l8.35,18.28c2.35,10.6,7.59,56.91,11.74,80.04c1.98,11.05-6.68,7.13,1.85,18.2
			c3.61,4.69,3.22-1.56,13.19,0c10.11,1.58,11.64,4.83,14.39-0.52c4.65-9.04-3.95-12.05-5.31-25.12
			c-1.57-15.02-3.77-40.44-8.96-56.28c-3.42-10.45-2.74-29.27-4.38-46.48c-0.87-9.19,0.7-16.47-3.38-18.2
			C1501.6,503.33,1476.14,491.1,1485.71,538.32z"/>
	</g>
</g>
<g id="k_right_leg">
	<g>
		<path class="st26" d="M1443.65,662.96c0,0-9.39,2-10.34,7.88c-1.01,6.22,0.17,8.83,2.99,9.72c2.9,0.92,7.52,2.51,13.71,2.1
			c11.56-0.77,10.97-0.97,20.29-10.09c9.05-8.86,1.92-12.09,1.13-13.59C1470.66,657.49,1443.65,662.96,1443.65,662.96z"/>
		<path class="st8" d="M1451.99,657.22c0,0-18.02,7.44-18.86,12.79c-0.88,5.63,1.68,8.52,16.88,8.18
			c11.39-0.26,10.79-2.52,19.82-10.7c8.83-8,2.49-9.09,1.7-10.46C1470.76,655.68,1451.99,657.22,1451.99,657.22z"/>
	</g>
	<g>
		<path class="st27" d="M1456.41,515.51c0,0-5.57,62.83-4.68,70.55c0.86,7.48-0.02,24.51-0.92,27.64
			c-0.89,3.09-1.52,35.36-2.19,39.04c-0.66,3.61-1.45,3.26-0.37,5.21c1.07,1.94,6.61-0.39,11.84-0.27
			c11.74,0.26,12.75,4.77,14.24,2.77c1.5-2.03,0.47-8,1.01-10.48c0.55-2.51,1.17-10.44,0.67-13.2c-0.5-2.8,2.9-43.43,2.6-49.88
			c-0.32-6.63,3.44-34.71,4.57-41.78c1.16-7.27,6.15-39.56-8.13-42.97C1460.74,498.72,1458.15,502.26,1456.41,515.51z"/>
		<path class="st17" d="M1456.41,515.51l-2.05,23.56c0,0,8.18,7.91,10.29,11.87c0.83,1.56,2.99,61.16,3.58,76.09
			c0.2,5.13-5.69,22.81-5.69,22.81l3.38-0.94c-3.12,8.95-7.39,8.75-5.82,8.79c11.74,0.26,12.75,4.77,14.24,2.77
			c1.5-2.03,0.47-8,1.01-10.48c0.55-2.51,1.17-10.44,0.67-13.2c-0.5-2.8,2.9-43.43,2.6-49.88c-0.32-6.63,3.44-34.71,4.57-41.78
			c1.16-7.27,10.89-40.27-3.39-43.68C1465.47,498.01,1458.15,502.26,1456.41,515.51z"/>
		<path class="st27" d="M1456.95,543.93c0,0,4.09,2.57,7.03,5.95c2.94,3.38,5.91,15.31,5.91,15.31L1456.95,543.93z"/>
		<path class="st17" d="M1453.31,588.55c0,0,3.16,2.47,6.33,2.47c3.16,0-1.91,3.4-4.55,2.08
			C1452.45,591.78,1453.31,588.55,1453.31,588.55z"/>
	</g>
</g>
<g id="K_torso">
	<path class="st11" d="M1492.12,424.08c0,0-33.6,9.48-36.15,17.76c-1.53,4.94-2.6,46.62-1.73,65.44
		c0.59,12.71,1.55,12.55,1.55,12.55s12.53-5.32,28.26-6.67c17.51-1.5,29.02-0.01,33.49-0.34c0.71-0.05,3.98-3.65,3.82-4.35
		C1518.87,497.49,1502.12,422.07,1492.12,424.08z"/>
	<path class="st28" d="M1465.4,446.47c0,0-6.88-12.92-9.44-4.63c-1.53,4.94-2.6,46.62-1.73,65.44c0.59,12.71,1.55,12.55,1.55,12.55
		s8.7-8.96,24.43-10.31c17.51-1.5,32.85,3.63,37.32,3.3c0.71-0.05,3.98-3.65,3.82-4.35c-1.24-5.49-43.91-33.76-43.91-33.76
		L1465.4,446.47z"/>
	<g>
		<path class="st29" d="M1470.47,430.05c0,0-1.13,1.7-0.87,3.54c1.04,7.39,3.81,26.36,6.6,26.32c2.84-0.04,4.07-0.85,6.39-12.71
			c0.49-2.53,6.04-21.75,3.52-23.1"/>
		
			<ellipse transform="matrix(0.9946 -0.1041 0.1041 0.9946 -40.1489 156.2644)" class="st7" cx="1477.03" cy="462.78" rx="1.5" ry="3.43"/>
	</g>
	<path class="st23" d="M1467.18,418.47l2.84,10.24c0,0-0.06,7.35,6.15,6.61c6.17-0.74,6.09-3.76,6.43-7.69
		c0.25-2.88-2.92-13.7-2.92-13.7L1467.18,418.47z"/>
	<path class="st22" d="M1467.18,418.47l2.84,10.24c0,0-0.06,7.35,6.15,6.61l-2.55-6.23L1467.18,418.47z"/>
	<path class="st24" d="M1465.4,446.47c0,0,0.28,34.22-1.82,41.1s5.13,17.56,1.87,19.29c-5.11,2.73-17.24,16.2-17.55,14.29
		c-1.02-15.61,4.38-40.56,2.75-51.22c-1.63-10.67-0.5-21.58,0.4-23.72c2.59-6.19,10.62-12.28,12.26-10.88
		C1464.94,436.73,1465.4,446.47,1465.4,446.47z"/>
	<path class="st2" d="M1468.94,433.85c-0.1-0.86,0.01-3.26-0.75-3.08c-2.13,0.49-8.74,3.17-8.59,6.92
		c0.21,5.16,5.77,32.76,5.77,32.76S1471.05,451.37,1468.94,433.85z"/>
	<path class="st2" d="M1453.75,492.99l1.51,3.96c0,0-4.61,6.14-6.5,5.94l0.43-4.47C1449.18,498.43,1451.83,495.83,1453.75,492.99z"
		/>
	<g>
		<path class="st24" d="M1487.82,428.84c-0.66,4.27,1.2,21.71,2.76,39.17c1.67,18.81,12.77,32.87,16.21,35.01
			c33.62-16.81,39.54-7.07,39.54-7.07s-0.47-18.14-6.74-26.11c-8.4-10.69-9.11-4.43-18.2-30.1c-3.66-10.32-13.16-25.97-20.29-22.16
			C1494.54,421.08,1488.48,424.57,1487.82,428.84z"/>
		<path class="st21" d="M1487.82,428.84c-0.66,4.27,1.2,21.71,2.76,39.17c1.67,18.81,12.77,32.87,16.21,35.01
			c21.68-8.78,9.03-13,9.03-13l-11.6-2.64l6.86-1.85l-8.7-6.86C1498.71,468.35,1488.48,424.57,1487.82,428.84z"/>
		<path class="st2" d="M1484.13,424.88c-1.83,3.04-0.25,30.71,6.05,38.67c0,0,4.42-37.32,3.4-40.36
			C1492.56,420.14,1485.95,421.84,1484.13,424.88z"/>
		<path class="st2" d="M1506,473.44l-0.28,4.21c0,0,13.82,6.89,18.45,4.2l-1.48-3.99C1517.42,479.23,1506,473.44,1506,473.44z"/>
		<path class="st2" d="M1507.55,501.54c-1.16,0.52-1.52,2.21-0.59,3.11c0.2,0.19,0.42,0.32,0.67,0.33
			c1.13,0.04,18.75-9.34,27.87-10.21c6.36-0.61,9.6,0.35,8.91,2.51c-0.21,0.67,2.27-0.24,2.36-0.97l-0.08,0.15
			c0.12-0.97,0.05-1.75-0.54-2.48c-1.27-1.57-5.14-4.32-12.1-2.62C1526.59,493.2,1512.5,499.34,1507.55,501.54z"/>
		<path class="st30" d="M1519.2,438.82c0,0,3.33,17.61,9.15,23.26c5.82,5.66,11.8,16.06,12.85,28.95"/>
	</g>
	<path class="st2" d="M1465.45,506.87l1.14,2.96c0,0-12.48,9.96-14.24,12.39c-1.76,2.44-4.87,1.78-4.45-1.06
		C1448.33,518.32,1463.78,506.8,1465.45,506.87z"/>
	<path class="st28" d="M1492.87,483.81c0,0-3.94-5.13-7.25-7.78c-1.32-1.05-6.86-2.51-6.86-2.51s2.51,2.37,6.73,5.67
		C1489.7,482.49,1492.87,483.81,1492.87,483.81z"/>
	<path class="st31" d="M1458.85,449.4l-5.01,16.88l-0.26,40.35c0,0-5.36,16.44-5.67,14.54c-1.02-15.61,4.38-40.56,2.75-51.22
		c-1.63-10.67-0.5-21.58,0.4-23.72c2.59-6.19,10.62-12.28,12.26-10.88C1464.94,436.73,1458.85,449.4,1458.85,449.4z"/>
</g>
<g id="k_left_arm">
	<g>
		<path class="st21" d="M1504.48,392.15c-3.48-2.14-0.38-4.84-0.13-5.95c0.43-1.92-1.02-1.17-0.66-3.7
			c0.34-2.34-2.88-20.43-4.82-25.52c-1.94-5.09-1.55-11.46,4.94-13c10.39-2.47,10.4-0.98,12.62,5.07
			c2.91,7.93,6.56,19.47,8.15,26.95c1.33,6.28,3.17,15.16-1.45,17.39C1518.49,395.61,1507.41,393.95,1504.48,392.15z"/>
		<path class="st24" d="M1512.34,393.85c-3.48-2.14-0.38-4.84-0.13-5.95c0.43-1.92-1.02-1.17-0.66-3.7
			c0.34-2.34-3.5-28.13-5.45-33.22c-1.94-5.09-8.79-5.47-2.3-7.01c10.39-2.47,10.4-0.98,12.62,5.07c2.91,7.93,6.56,19.47,8.15,26.95
			c1.33,6.28,3.17,15.16-1.45,17.39C1518.49,395.61,1515.27,395.65,1512.34,393.85z"/>
		<path class="st17" d="M1521.29,435.55c0,0,3.68-16.11,2.86-22.92c-0.81-6.81,2.9-19.05,1.82-21.87c-1.46-3.84-7.66,2.31-12.5,1.82
			c-7.81-0.78-9.97-0.79-10.66,3.46c-1.16,7.26-3.05,22.17-4.32,25.05c-1.26,2.89,13.87,16.63,18.37,17.78
			C1520.94,439.91,1521.29,435.55,1521.29,435.55z"/>
		<path class="st25" d="M1521.29,435.55c0,0,3.68-16.11,2.86-22.92c-0.81-6.81,2.9-19.05,1.82-21.87c-1.46-3.84-7.66,2.31-12.5,1.82
			c-3.17,0.16-1.62,17.06-4.78,20.82c-3.16,3.76-4.88,2.9-10.19,7.7c-0.43,1.23,1.74,4.22,4.9,7.46c4.5,4.62,10.83,9.65,13.47,10.32
			C1520.94,439.91,1521.29,435.55,1521.29,435.55z"/>
		<path class="st22" d="M1503.53,345.24c-0.05-0.01-0.09-0.02-0.13-0.04c-0.63-0.22-3.66,0.48-5.55-1.56
			c-1.5-1.62-7.41-5.75-8.07-9.1l-0.58-2.94c-0.05-0.26,0-0.53,0.14-0.76l0.03-0.06c0.39-0.64,1.29-0.7,1.76-0.12l3.38,3.08
			l2.37-0.5l-0.19-5.48l-3.17-6.71c-0.06-0.17-0.08-0.35-0.05-0.52l0.39-2.74c0.06-0.42,0.36-0.76,0.76-0.88l0.28-0.08
			c0.16-0.05,0.31-0.13,0.43-0.24l0.31-0.29c0.48-0.45,1.25-0.36,1.62,0.19l0.24,0.36c0.31,0.45,0.9,0.61,1.39,0.35l0.29-0.15
			c0.17-0.09,0.35-0.13,0.54-0.12l0.98,0.04c0.42,0.02,0.79,0.27,0.95,0.66l2.87,6.82c0.43,1.03,1.96,0.79,2.06-0.32
			c0.11-1.19,0.22-2.26,0.31-2.62c0.05-0.2,0.09-0.42,0.12-0.65c0.12-0.81,1.07-1.2,1.73-0.7l0,0c0.22,0.17,0.37,0.41,0.42,0.69
			l1.99,11.87c0.01,0.07,0.02,0.13,0.01,0.2c-0.02,0.95-0.26,8.64-2.36,10.77C1506.76,345.73,1504.01,345.33,1503.53,345.24z"/>
		<path class="st2" d="M1509.06,345.51c-1.18,0.27-6.25,1.41-9.08,1.52c-0.42,0.02-0.81-0.22-1-0.6l-0.24-0.48
			c-0.33-0.66,0.1-1.45,0.83-1.53c2.27-0.26,6.45-0.85,7.88-1.77c1.03-0.66,1.89-1.13,2.49-1.42c0.5-0.25,1.1-0.06,1.39,0.42
			l0.35,0.6c0.26,0.45,0.17,1.01-0.23,1.35l-1.95,1.68C1509.38,345.39,1509.23,345.47,1509.06,345.51z"/>
	</g>
</g>
<g id="k_head">
	<g>
		<g>
			<path class="st25" d="M1489,406.7c-3.56,12.41-8.02,14.3-8.02,14.3c-19.08,4.81-30.28-4.87-30.67-16.08
				c-0.84-11.3,1.1-15.77,14.19-18.44C1483.12,382.69,1492.13,395.81,1489,406.7z"/>
			<path class="st14" d="M1488.46,403.41c-3.03,10.51-18.64,5.74-18.64,5.74c-3.13-1.18-13.99-4.59-15.45-10.76
				c-1.25-5.26-2.98-11.21,13.19-12.6C1482.28,384.52,1491.12,394.16,1488.46,403.41z"/>
		</g>
		<g>
			<path class="st23" d="M1464.76,387.77c0,0-11.27,1.75-12.72,3.75c-1.45,2.01,1.52,26.28,5.48,31.87
				c3.97,5.61,24.84-0.75,29.03-5.98c3.42-4.28,2.16-6,2.07-12.11c-0.09-6.36-5.35-9.57-6.21-11.85
				C1480.94,389.58,1464.76,387.77,1464.76,387.77z"/>
		</g>
		<g>
			<path class="st22" d="M1452.52,401.66c-1.45,2.01,1.04,16.14,5,21.74c2.65,3.72,16.61,1.52,13.86-4.59
				c-1.08-2.39-3.34-11.62-8.57-15.03C1456.5,399.66,1453.31,400.57,1452.52,401.66z"/>
		</g>
		<g>
			<path class="st32" d="M1460.16,403.82c0.18,1.48-0.48,2.22-1.25,2.32c-0.77,0.1-1.38-0.48-1.55-1.96
				c-0.17-1.48,0.31-2.76,1.08-2.86C1459.22,401.22,1459.99,402.34,1460.16,403.82z"/>
			<path class="st32" d="M1472.91,399.75c0.18,1.48-0.48,2.22-1.25,2.32c-0.77,0.1-1.38-0.48-1.55-1.96
				c-0.18-1.48,0.31-2.76,1.08-2.86C1471.97,397.16,1472.74,398.27,1472.91,399.75z"/>
			<path class="st33" d="M1471.29,394.57c0,0-1.66-0.59-3,0.41"/>
			<path class="st33" d="M1458.72,398.27c-1.55,0.39-2.5,1.64-2.5,1.64"/>
		</g>
		<path class="st23" d="M1490.68,402.01c-0.31,3.67-2.36,6.69-4.58,6.75c-2.22,0.06-3.76-2.88-3.44-6.55
			c0.32-3.66,2.37-6.67,4.58-6.72C1489.45,395.44,1490.99,398.36,1490.68,402.01z"/>
		<g>
			<g>
				<path class="st25" d="M1471.68,386.14c0,0-1.28,4.09-10.63,8.65c-4.7,2.29-7.92,5.79-10.46,6.48
					c-6.27,1.71-1.59-12.37,7.85-17.23C1467.83,379.21,1471.68,386.14,1471.68,386.14z"/>
			</g>
			<path class="st14" d="M1472.25,387.01c0,0-0.14,1.31-4,3.33c-6.68,3.5-13.86,5.78-17.03,6.64c-5.02,1.36-0.18-8.89,7.23-13.06
				C1466.33,379.47,1472.25,387.01,1472.25,387.01z"/>
			<path class="st25" d="M1464.95,388.19c0,0-5.65,6.8-10.99,8.6C1453.96,396.79,1466.58,392.77,1464.95,388.19z"/>
		</g>
		<path class="st14" d="M1480.41,389.94c0,0,0.31,9.12,1.87,11.61l3.22,3.57l-1.06-12.99L1480.41,389.94z"/>
	</g>
</g>
<g id="s_hair">
	<g>
		<path class="st17" d="M1017.37,298.98c0,0-9.62-13.29-23.36-12.83c-13.74,0.46-21.07,9.16-9.62,13.74
			C995.84,304.48,1012.79,306.31,1017.37,298.98z"/>
		<path class="st17" d="M999.5,302.19c0,0-23.36-2.29-21.53,6.41c1.83,8.7,17.41,5.5,20.61,3.21
			C1001.79,309.52,999.5,302.19,999.5,302.19z"/>
		<path class="st17" d="M1009.58,290.28c9.62-2.75,35.92-9.54,48.1,13.29c12.18,22.83,2.29,33.9,2.29,33.9s10.99,10.99,5.04,28.86
			s-38.69,14.24-38.69,14.24s-42.04,34.42-63.01-9.66c-6.89-14.48,11.45-24.74,11.45-24.74s-15.46-1.5-12.37-16.49
			c3.21-15.58,26.57-19.7,26.57-19.7C997.67,301.73,999.96,293.03,1009.58,290.28z"/>
	</g>
</g>
<g id="s_skirt">
	<path class="st34" d="M894.1,561.58c-0.03,5.32,20.11,7.11,25.46,14.14c7.72,10.14,1.35,10.74,69.72,13.79
		c55.31,2.47,101.02-17.34,100.87-20.7c-1.02-11.06-71.13-39.75-112.76-38.53c-28.98,0.85-60.02,14.56-74.97,23.97
		C895.86,558.37,894.12,558.14,894.1,561.58z"/>
</g>
<g id="s_left_leg">
	<g>
		<path class="st17" d="M1041.35,513.3c-8.84,6-11.92,20.59-8.42,36.37c3.5,15.77,3.36,53.49,7.84,60.4
			c4.47,6.91,17.95,9.23,27.61,4.06c11.37-6.09,11.67-19.81,11.77-33.29c0.1-13.48,1.82-36.09-1.02-53.58
			C1076.28,509.77,1050.19,507.3,1041.35,513.3z"/>
		<path class="st17" d="M1043.08,602.6c-3.47,5.36-4.46,17.34-5.69,25.96c-1.66,11.6-1.19,20.06,1.34,35.05
			c2.57,15.23,39.4-8.08,40.64-20.24c1.24-12.16,0.28-31.27-0.5-41.8S1052.34,588.3,1043.08,602.6z"/>
		<path class="st27" d="M1061.49,623.2c-1.66,11.6-0.11,17.35,2.42,32.34c2.57,15.23,14.22,0,15.45-12.15
			c1.24-12.16,0.49-24.14-0.3-34.67C1078.28,598.19,1062.72,614.57,1061.49,623.2z"/>
		<path class="st22" d="M1036.49,639.52c-1.85,12.02,2.45,38.49,11.73,73.74c5.64,21.46,3.44,37.76,13.41,37.17
			s11.72-0.56,12.22-12.5c0.51-12.1,5.15-86.75,5.9-99.34c0,0-13.8-0.71-25.58-0.51C1043.98,638.26,1036.49,639.52,1036.49,639.52z"
			/>
		<path class="st23" d="M1036.49,639.52c-1.85,12.02,2.45,38.49,11.73,73.74c5.64,21.46,3.44,37.76,13.41,37.17
			s11.72-0.56,12.22-12.5c0.19-4.51-5.47-12.56-8.72-43.82c-2.36-22.7-3.89-55.99-3.89-55.99
			C1048.82,637.54,1036.49,639.52,1036.49,639.52z"/>
		<path class="st23" d="M1053.62,738.09c-1.35,3.11-2.24,8.31-5.67,16.8c-2.94,7.28,12.07,10.08,17.51,15.25
			c-4.57-2.41,39.15,8.7,48.25,7.74c20.57-2.17-21.63-23.28-9.95-16.85c0,0-24.45-12.41-27.93-22.33S1054.97,734.98,1053.62,738.09z
			"/>
		<path class="st35" d="M1048.95,748.77c0.65-1.2,1.81-2.26,2-1.09c0.19,1.17,2.06,5.63,4.66,6.93c2.6,1.31,32.3,15.66,42.8,12.53
			c6.41-1.9,2.34-6.25-2.43-9.77c-3.16-2.33-8.66-6.56-8.66-6.56s12.62,8.07,18.74,11.21c6.12,3.14,18.92,14.14,20.1,18.56
			c1.18,4.42-41.92,4.06-48.58,1.35c-6.66-2.71-16.01-7.6-20.2-10.09c-3.31-1.96-7.35-1.47-8.59-2.79
			C1045.97,766.08,1047,752.37,1048.95,748.77z"/>
	</g>
</g>
<g id="s_right_leg">
	<g>
		<path class="st17" d="M971.21,569.34c0,0,1.98-46.99,4.96-60.6c2.99-13.61,53.53-19.56,55.24,4.72
			c1.71,24.28-6.76,60.08-11.49,76.28c-4.72,16.2-6.98,26.12-31.1,23C964.03,609.52,969.87,600.11,971.21,569.34z"/>
		<path class="st17" d="M997.41,582.4c-12.64-1.47-27.42,2.49-28.5,17.31c-0.76,10.44-8.55,18.21-14.95,38.77
			s45.99,32.37,49.89,6.43C1007.74,618.97,1022.29,585.3,997.41,582.4z"/>
		<path class="st27" d="M1000.98,613.31c0,0-6.99,19.5-13.4,40.06c-6.41,20.56,12.36,17.48,16.26-8.46
			c1.44-9.58,4.33-20.21,6.15-29.96C1013.11,598.3,1000.98,613.31,1000.98,613.31z"/>
		<path class="st22" d="M1003.84,644.91c-3.9,25.94-31.02,95.59-33.43,108.57c-2.42,12.99-10.44,21.22-10.44,21.22
			s-12.64,6.28-13.13-22.82c-0.37-22.23,0.71-92.85,7.12-113.41c0,0,14.72-3.98,26.05-1.35
			C991.33,639.77,1003.84,644.91,1003.84,644.91z"/>
		<path class="st23" d="M973.78,710.35c-4.36,18.87-5.7,30.41-8.12,43.4c-2.42,12.99-5.69,20.96-5.69,20.96s-12.64,6.28-13.13-22.82
			c-0.37-22.23,0.71-92.85,7.12-113.41c0,0,14.72-3.98,26.05-1.35c2.99,0.69,11.64,3.52,11.64,3.52S986.5,655.27,973.78,710.35z"/>
		<path class="st23" d="M961.97,747.88c-11-0.29-14.93,12.92-14.93,12.92s-7.52,12.42-6.43,16.83c0.69,2.67,3.61,9.44,3.61,9.44
			s4.12,21.11,4.9,23.9c1.18,4.17,42.17,12.3,45.02,13.27c2.86,0.98-1.9-22.97-1.9-22.97s-15.34-21.53-19.01-30.98
			C969.61,761.02,967.44,748.02,961.97,747.88z"/>
		<path class="st35" d="M947.28,760.46c0.13-0.21-0.11-0.46-0.33-0.33c-1.37,0.79-3.24,2.42-3.62,3.5
			c-1.98,5.68-3.62,11.02-2.99,14.34c0.24,1.29,1.6,4.57,3.08,10.83c1.64,6.89,1.06,19.42,5.07,24.56
			c4.01,5.14,37.22,15.55,44.48,13.96c7.26-1.59,2.47-22.97,1.78-27.18c-0.73-4.44-17.29-24.09-24.4-38.75c0,0,0.05,1.63,1.23,5.31
			c2.76,8.62,11.48,25.83,1.4,27.58c-9.65,1.68-24.1-11.57-24.88-18.19c-0.77-6.53-1.99-11.73-1.85-13.08
			C946.34,762.17,946.88,761.14,947.28,760.46z"/>
	</g>
</g>
<g id="s_left_arm">
	<g>
		<path class="st22" d="M1070.36,415.87c0,0,6.29,14.46,12.54,25.07c5.6,9.5,30.01,38.23,32.68,42.4c5.64,8.81-1.74,12.13-9.5,9.83
			c-4.14-1.23-29.52-29.37-37.67-40.1c-6.78-8.93-13.51-22.49-15.71-26.35C1047.82,418.17,1058.65,401.66,1070.36,415.87z"/>
		<path class="st23" d="M1070.36,415.87c0,0,1.31,26.33,7.51,36.88c5.55,9.45,24.58,28.8,27.24,32.97c5.62,8.8,9.5,10.33,1.74,8.03
			c-4.14-1.23-30.28-29.96-38.44-40.69c-6.78-8.93-13.51-22.49-15.71-26.35C1047.34,417.33,1059.26,402.41,1070.36,415.87z"/>
		<path class="st34" d="M1072.41,419.02c0,0-16.87-29.06-27.56-30.07c-10.52-1-10.49,8.54-6.79,18.3
			c5.39,14.24,19.88,32.88,19.88,32.88S1062.41,424.16,1072.41,419.02z"/>
	</g>
	<path class="st5" d="M1119.01,470.53l-7.29,2.32c-0.32,0.1-0.61,0.27-0.86,0.48l-7.18,6.28c-1.26,1.1-2.12,2.57-2.47,4.21l0.3,8.19
		c-0.08,0.38-0.07,0.77,0.03,1.14l1.26,8.07c0.29,1.06,3.26,1.98,4.35,1.98c0,0,2.41,2.44,4.15,2.77c1.75,0.33,4.09-0.92,4.55-1.29
		c0.46-0.36-1.45-3.2-1.45-3.2s2.31,3.47,3.03,3.64s6.86,0.08,6.33-1.14l-0.4-4.95c-0.35-0.8-1.72-0.79-1.19-1.48l4.24-7.07
		c1-1.3,5.07-2.05,5.99-0.69l1.02,1.51c1.11,2.3,0.34,2.53,1.14,2.53l4.58-2.14c1.33,0-0.49-7.62-0.49-7.62l-3.82-4.88
		c0,0-1.89-2.14-2.7-2.55l-11.32-5.98C1120.26,470.39,1119.61,470.34,1119.01,470.53z"/>
	<path class="st23" d="M1132.14,484.86c4.3,1.23,4.9,4.19,4.28,5.42c-0.61,1.23-0.2,5.93-0.2,5.93l-0.92,3.16
		c0,0-6.36,5.67-7.32,5.93c-0.96,0.27-4.42-2.08-4.42-2.08s-3.86-2.95-4.05-3.76s2.14-3.13,2.14-3.13s-0.75-0.7-0.92-1.45
		s-0.04-1.63,0.58-1.97c0.81-0.45,2.02-0.65,2.02-0.65s-0.33-0.56-0.58-0.85c-0.25-0.29-0.83-2.74,0.77-2.78
		c0,0,3.38-0.39,4.31-0.27s3.47,0.66,1.02-0.28c-2.27-0.87-3.27-0.92-3.34-2.25C1125.34,483.06,1127.84,483.63,1132.14,484.86z"/>
</g>
<g id="s_torso">
	<g>
		<path class="st11" d="M1034.53,386.73c0,0,4.67,1.1,9.02,3.88c7.82,4.99,17.09,9.94,17.31,21.6c0.18,9.29-1.55,23.12-2.77,36.79
			c-0.59,6.61-4.47,12.68-11.08,15.43c-20.13,8.38-34.23,11.75-45.1,4.75c-4.04-2.6-4.12,0.08-9.1-15.56
			c-3.69-11.6-6.34-16.33-10.02-26.9c-11.14-31.97,13.14-37.07,26.64-38.63C1021.08,386.74,1034.53,386.73,1034.53,386.73z"/>
		<path class="st28" d="M1049.81,448.74c0,0-37.02,27.44-47.89,20.44c-4.04-2.6-4.12,0.08-9.1-15.56
			c-3.69-11.6-6.34-16.33-10.02-26.9c-11.14-31.97,12.1,24.37,22.09,8.1c6.6-10.76,17.34-15.62,27.1-17.06
			c11.28-1.67,23.95,4.76,24.66,8.44C1058.61,436.4,1049.81,448.74,1049.81,448.74z"/>
		<path class="st11" d="M1057.7,434.36c0,0-4.75-8.31-14.64-9.49c0,0,7.52-2.77,14.64,3.96V434.36z"/>
		<g>
			<path class="st22" d="M1029.75,399.29c-3.69,1.05-16.97-3.32-16.87-7.62l0.55-23.29c0.1-4.3,3.67-7.71,7.98-7.61l2.4,0.06
				c4.3,0.1,7.71,3.67,7.61,7.98l3.86,22.31C1035.18,395.41,1033.44,398.23,1029.75,399.29z"/>
			<path class="st23" d="M1024.08,383.33c-2.78,0.17-11.13,2.09-11.03-2.21l0.55-23.29c0.1-4.3,3.67-7.71,7.98-7.61l2.4,0.06
				c4.3,0.1,8.24,17.28,8.14,21.59C1032.12,371.86,1026.85,383.16,1024.08,383.33z"/>
		</g>
		<g>
			<path class="st34" d="M973.33,546.36l-17.61,16.48c-1.85,1.55-4.53,0.46-4.22-1.75C952.59,553.52,956.05,540.68,973.33,546.36z"
				/>
			<path class="st11" d="M1051.46,454.7c3.13,5.53,30.99,49.43,38.69,114.11c0,0-47.35-22.62-79.29-20.46
				c-55.92,3.79-52.25,7.8-53.53,11.94c-0.85,2.75-3.76,4.25-6.51,3.4c-0.71-0.22-1.51-0.49-2.39-0.81
				c-12.48-4.55-34.14-11.36-53.88-3.69c0,0,48.17-32.75,83.29-74.99C1008.04,447.87,1048.33,449.17,1051.46,454.7z"/>
			<path class="st28" d="M1056.6,512.63c-8.12,14.62-26.74,34.44-45.74,35.73c-55.92,3.79-52.25,7.8-53.53,11.94
				c-0.85,2.75-3.76,4.25-6.51,3.4c-0.71-0.22-1.51-0.49-2.39-0.81c-12.48-4.55-34.14-11.36-53.88-3.69c0,0,48.17-32.75,83.29-74.99
				c22.62-27.21,50.89-33.31,64.98-32.34C1047.54,452.19,1064.72,498.01,1056.6,512.63z"/>
			<path class="st28" d="M955.79,557.84c0,0,4.01-37.08,16.48-48.75c0,0-4.86,8.87-4.66,15.54l6.03-4.29c0,0-6.09,9.61-10.19,19.3
				C959.86,548.14,958.4,556.8,955.79,557.84z"/>
			<path class="st28" d="M1060.66,509.38c0,0,1.62,8.93-10.56,19.49c-12.18,10.56-12.18,10.56-12.18,10.56s16.24-3.25,19.49-8.93
				C1060.66,524.81,1060.66,509.38,1060.66,509.38z"/>
		</g>
	</g>
</g>
<g id="s_right_arm">
	<g>
		<path class="st22" d="M963.46,412.29c0,0-25.02,22.48-28.9,28.3c-3.91,5.87-3.3,6.43,0.5,11.96c3.78,5.51,15.03,9.56,21.94,3.41
			c6.82-6.08,27.39-24.8,30.33-28.25c2.92-3.44,2.8-11.82-1.17-15.86C982.17,407.8,971.13,406.88,963.46,412.29z"/>
		<path class="st23" d="M963.46,412.29c0,0-34.3,29.76-29.73,30.79c4.57,1.04,7.02-3.06,11.5-6.79
			c9.81-8.16,21.19-20.64,21.19-20.64S971.13,406.88,963.46,412.29z"/>
		<g>
			<path class="st34" d="M981.81,435.07c0,0,26.66-24.91,20.09-35.41c-6.28-10.03-15.47-7.53-26.19-0.06
				c-10.95,7.64-16.01,15.23-16.01,15.23S971.04,419.26,981.81,435.07z"/>
			<path class="st21" d="M986.5,400.29c3.74-1.25,15.4-0.63,15.4-0.63c-6.28-10.03-15.47-7.53-26.19-0.06
				c-10.95,7.64-16.01,15.23-16.01,15.23s1.13,0.66,4.14,2.52C964.6,417.83,982.76,401.54,986.5,400.29z"/>
		</g>
		<path class="st36" d="M887.63,497.02c0,0,20.03-7.98,29.07-14.46c7.97-5.71,22.33-11.39,30.75-18.7
			c12.34-10.71,4.42-18.23-1.59-23.23c-5.07-4.22-13.01,0.62-21.35,6.73c-8.31,6.09-42.75,28.44-49.65,36.74
			C868,492.34,874.99,506.94,887.63,497.02z"/>
		<path class="st23" d="M900.36,469.54c7.51-6.29,41.83-30.5,41.83-30.5c-2.91-1.87-9.34,2.21-17.68,8.33
			c-7,5.13-32.59,21.83-44.58,31.92C877.69,481.16,889.97,475.08,900.36,469.54z"/>
	</g>
	<path class="st36" d="M890.1,488.43c-0.79-4.72-6.73-13.45-16.62-12.66c-9.89,0.79-27.69,1.98-33.23,5.93
		c-5.54,3.96-2.77,6.33-0.4,7.12c2.37,0.79,11.87-0.79,16.22-0.79c4.35,0,1.58,8.7-5.54,14.64c-7.12,5.93-11.87,20.18-14.64,27.3
		c-2.77,7.12-1.19,8.7,1.58,8.31c2.77-0.4,8.31-12.26,11.47-17.01c3.16-4.75-5.93,13.05-5.93,16.62c0,3.56,4.75,3.16,4.75,3.16
		l8.7-16.22c0,0-3.1,9.43-1.91,10.22s5.93-0.4,5.93-0.4l4.29-9.43l3.96-8.7c0,0,0.79,12.26,2.37,12.26c1.58,0,5.14-5.54,5.14-5.54
		s1.79-8.63,4.35-12.66C883.37,506.23,891.29,495.55,890.1,488.43z"/>
</g>
<g id="s_head">
	<g>
		<path class="st22" d="M1053.39,329.31c6.72,32.3-6.46,43.31-29.25,42.6c-17.12-0.53-31.15-11.38-32.28-32.81
			c-1.13-21.44,7.9-39.02,24.81-41.85C1039,293.51,1049.02,308.33,1053.39,329.31z"/>
		<path class="st23" d="M1050.98,335.07c1.58,28.68-17.85,34.65-28.48,34.42c-14.89-0.33-29.09-9.12-30.07-28.09
			c-0.98-18.97,9.41-36.67,24.13-39.16C1050.85,296.43,1050.36,323.8,1050.98,335.07z"/>
		
			<ellipse transform="matrix(0.9882 -0.1529 0.1529 0.9882 -40.7774 155.6109)" class="st23" cx="991.08" cy="342.86" rx="7.08" ry="12.28"/>
		<path class="st11" d="M991.86,330.22l0.76,3.26c0,0-0.2-17.96,19.58-24.92c17.61-6.2,34.81,0.4,34.81,0.4s-13.69-19.87-37.63-9.58
			C989.36,307.99,991.86,330.22,991.86,330.22z"/>
		<g>
			<path class="st37" d="M1045.07,307.26c0,0,3.27,7.19,7.57,11.06c3.25,2.92,6.17,4.08,6.17,4.08l-0.35-1.71l2.26-0.94
				c0,0-6.83-2.62-13.94-12.98L1045.07,307.26z"/>
			<path class="st37" d="M1044.76,306.44c0,0,0.61,7.88,3.32,12.98c2.05,3.85,4.4,5.95,4.4,5.95l0.26-1.72l2.45-0.11
				c0,0-5.52-4.8-8.66-16.97L1044.76,306.44z"/>
			<path class="st37" d="M1046.83,311.07c1.88,0.17,6.15-8.95,1.94-10.3c-3.97-1.27-8.66-1.98-8.72,1.25
				C1039.99,305.26,1044.95,310.9,1046.83,311.07z"/>
			<path class="st38" d="M1049.83,306.04c0,0,0.44-4.28-0.86-4.53c-1.3-0.25-0.63,1.81-1.03,4.6
				C1047.56,308.9,1049.6,307.83,1049.83,306.04z"/>
			<g>
				<path class="st37" d="M1045.87,308.68c0,0,0.24-1.96,3.48-3.05s5.6-1.52,7.06,0.03s0.78,6.49-0.86,8.63
					c-1.65,2.14-7.28-1.33-8.58-2.65C1045.67,310.33,1045.87,308.68,1045.87,308.68z"/>
				<path class="st38" d="M1056.32,309.77c0,0-0.45,3.98-2.33,4.15c-2.79,0.25,0.76-6.57,1.21-7.68S1057.51,307.15,1056.32,309.77z"
					/>
			</g>
		</g>
	</g>
	<g>
		<path class="st17" d="M1011.18,334.93c0,3.01-1.31,3.3-2.91,3.3c-1.61,0-2.91-0.3-2.91-3.3s1.31-5.44,2.91-5.44
			C1009.88,329.49,1011.18,331.92,1011.18,334.93z"/>
		<path class="st17" d="M1038,332.6c0,3.01-1.31,3.3-2.92,3.3c-1.61,0-2.91-0.3-2.91-3.3s1.31-5.44,2.91-5.44
			C1036.7,327.15,1038,329.59,1038,332.6z"/>
		<path class="st19" d="M1031.56,315.39c3.96-0.99,7.12,2.77,7.12,2.77"/>
		<path class="st19" d="M1010.99,317.3c-3.36-0.59-6.23,3.35-6.23,3.35"/>
	</g>
</g>
<g id="dog">
	<g>
		<path class="st35" d="M741.56,733.28c0,0,6.25,22.53,10.82,27.98l6.04-11.06C758.42,750.21,752.23,738.3,741.56,733.28z"/>
		<path class="st35" d="M744.15,742.91c0,0-4.77,18.04-3.51,24.65l9.55-2.31C750.2,765.24,750.41,753.6,744.15,742.91z"/>
		<path class="st39" d="M505.74,809.95c0,0-6.83,50.19-5.48,62.03c1.35,11.84-7.5,24.8-12.84,32.16c-5.38,7.4,4.88,22.92,4.88,22.92
			s13.96,5.28,28.07,1.53c12.33-3.28,9.96-10.59,2.64-14.65c-7.39-4.1,16.56-32.72,16.56-32.72s13.89-54.35,15.39-62.41
			C556.47,810.75,515.15,783.85,505.74,809.95z"/>
		<g>
			<path class="st39" d="M728.41,744.36c-12.24,1.63-57.88,12.53-64.9-10.93c-7.06-23.6-19.86-57.71-20.28-72.8
				c0,0-5.71-11.1-10.47-24.43c-4.78-13.39-2.07-15.35,5.18-11.22c7.19,4.09,20.26,18.5,20.26,18.5s18.91-11.49,43.92-11.76
				c24.25-0.26,19.94-1.17,28.11,10.71l5.72,10.66c0,0,19.3-5.56,30.99-6c11.52-0.43,17.13,3.68,18.95,17.62
				c1.82,13.92,1.12,20.91-2.26,28.36c-3.4,7.49-14.47,21.18-26.29,31.05C757.34,724.13,740.45,742.76,728.41,744.36z"/>
			<path class="st40" d="M782.47,653.18c3.94,6.09-5.17,11.92-9.16,5.8c-4.01-6.15-16.16-9.26-8.77-11.36
				C769.63,646.18,778.51,647.06,782.47,653.18z"/>
			<path class="st39" d="M690.49,638.81c0,0-1.4-17.6-0.66-30.66c0.71-12.46,7.26-9.92,13.11,0.67
				c6.09,11.03,14.2,31.98,15.62,36.15C719.98,649.13,696.13,653.49,690.49,638.81z"/>
			<path class="st17" d="M697.81,611.2c-1.48-12.65,0.65-8.72,6.49,1.85c6.08,11,11.21,22.54,12.62,26.72
				C718.34,643.93,699.13,622.44,697.81,611.2z"/>
		</g>
		<g>
			<path class="st17" d="M695.62,893.48c-1.36-4.89-10.06-5.7-10.33-6.92c-4.51-20.7-4.55-41.38-5.01-46.24
				c-0.95-9.98,5.96-28.71,4.05-50.2c-1.84-20.71-37.72-3.64-36.11,20.97c0.93,14.21,7.04,62.33,8.82,75.41
				c0.25,1.85,0.9,3.61,1.9,5.21l12.19,13.1c2.15,4.08,4.74,0.94,13.9-1.06C694.06,901.78,697.46,900.11,695.62,893.48z"/>
			<path class="st17" d="M765.13,897.92c-2.24-10.69-17.54-9.08-17.54-9.08c-1.04-1.34-4.3-3.76-4.76-5.17
				c-3.45-10.7-5.24-36.01-6.29-40.81c-2.18-9.99-2.82-40.77-7.31-63.86c-4.51-23.2-35.38-0.32-33.23,22.89
				c1.53,16.53,23,80.81,25.14,86.99c0,0,19.58,19.99,27.98,18.49C757.43,905.9,766.52,904.51,765.13,897.92z"/>
			<path class="st39" d="M689.49,723.18c0,0-18.39-7.52-64.93,8.08c-31.93,10.7-54.56,9.32-91.08,16.81
				c-23.82,4.89-36.43,74.75-27.12,89.19c7.16,11.35,30.14,3.02,57.89,1.42c68.59-3.95,85.46,3.53,92.17,1.98
				c33.38-7.7,57.09-17.63,68.29-27.48c4.04-3.56,6.38-14.02,9.67-24.96c4.76-15.84,12.64-33.87,3.43-49.37
				C731.55,728.33,707.66,723.89,689.49,723.18z"/>
			<path class="st17" d="M711.64,745.44l-17.68,27.94c0,0-19.62,25.48-18.07,25.55l15.36,31.94c0,0,22.24-7.84,33.43-17.7
				c4.04-3.56,6.38-14.02,9.67-24.96c4.76-15.84,12.64-33.87,3.43-49.37L711.64,745.44z"/>
			<g>
				<path class="st35" d="M656.21,712.46c0,0-0.89,3.66-0.97,10.43c0,0,14.05,13.47,54.18,22.37c20.37,4.51,36.31,2.62,36.31,2.62
					l-0.65-12.44C745.06,735.45,700.44,737.84,656.21,712.46z"/>
			</g>
			<path class="st17" d="M554.73,770.16c-1.8-4.56-14.57-27.69-15.82-38.22c-1.25-10.54-3.09-35.43,11.11-43.85
				c0,0-15.71-4.97-31.45,23.64c-16.09,29.25,9.58,67.97,11.75,71.18C539.94,797.16,559.85,783.16,554.73,770.16z"/>
			<path class="st39" d="M554.73,770.16c-1.8-4.56-15.96-5.33-21.26-22.1c-5.3-16.76-4.37-52.15,16.54-59.97
				c0,0-15.71-4.97-31.45,23.64c-16.09,29.25,9.58,67.97,11.75,71.18C539.94,797.16,559.85,783.16,554.73,770.16z"/>
		</g>
		<path class="st39" d="M563.9,813.93c0,0,13.43,66.64,18.28,77.57c4.83,10.87-7.84,23.1-11.2,30.89
			c-3.38,7.84,10.16,26.92,10.16,26.92s23.48-1.49,27.03-1.95c3.53-0.45,12.78-12.14,4.12-14.62c-8.76-2.51,5.94-40.84,5.94-40.84
			s0.47-69.57-0.28-77.58C617.19,806.34,565.97,787.06,563.9,813.93z"/>
	</g>
</g>
</svg>
