<svg height="512pt" viewBox="0 0 512 512" width="512pt" xmlns="http://www.w3.org/2000/svg"><path d="m0 96v384c0 17.679688 14.320312 32 32 32h448c17.679688 0 32-14.320312 32-32v-384zm0 0" fill="#e1eaf7"/><path d="m0 0h512v128h-512zm0 0" fill="#b0bec5"/><path d="m64 48h32v32h-32zm0 0" fill="#fff"/><path d="m128 48h32v32h-32zm0 0" fill="#fff"/><path d="m432 80h-224c-8.832031 0-16-7.167969-16-16s7.167969-16 16-16h224c8.832031 0 16 7.167969 16 16s-7.167969 16-16 16zm0 0" fill="#90a4ae"/><path d="m208 378v-180l144 90zm0 0" fill="#e76e54"/><path d="m432 448h-240v-32h240c8.832031 0 16 7.167969 16 16s-7.167969 16-16 16zm0 0" fill="#c1cee3"/><path d="m144 480c-8.832031 0-16-7.167969-16-16v-64c0-8.832031 7.167969-16 16-16s16 7.167969 16 16v64c0 8.832031-7.167969 16-16 16zm0 0" fill="#ffcb5a"/><path d="m64 416h32v32h-32zm0 0" fill="#c1cee3"/></svg>