<svg id="Flat" enable-background="new 0 0 512 512" viewBox="0 0 512 512" xmlns="http://www.w3.org/2000/svg"><path d="m256 296v-32c0-35.3 28.7-64 64-64v32c0 35.3-28.7 64-64 64z" fill="#35a872"/><path d="m192 232c35.3 0 64 28.7 64 64v32c-35.3 0-64-28.7-64-64z" fill="#2e9163"/><path d="m160 56c53 0 96 43 96 96v48c-53 0-96-43-96-96z" fill="#35a872"/><path d="m256 168v-48c0-53 43-96 96-96v48c0 53-43 96-96 96z" fill="#2e9163"/><path d="m310.7 100.4c2.5-3.7 1.5-8.6-2.2-11.1s-8.6-1.5-11.1 2.2l-48 72c-.9 1.3-1.3 2.9-1.3 4.4v5.6l-33.3-50c-2.5-3.7-7.4-4.7-11.1-2.2s-4.7 7.4-2.2 11.1l46.7 70v99.2l-17.3-26c-2.5-3.7-7.4-4.7-11.1-2.2s-4.7 7.4-2.2 11.1l30.7 46v45.5c0 4.4 3.6 8 8 8s8-3.6 8-8v-77.6l30.7-46c2.5-3.7 1.5-8.6-2.2-11.1s-8.6-1.5-11.1 2.2l-17.3 26v-99.2z" fill="#20754d"/><path d="m404.8 408c-15.2 0-30-5.4-41.5-15.3-22.9-19.7-62.4-32.7-107.3-32.7s-84.4 13-107.2 32.7c-11.6 9.9-26.3 15.3-41.5 15.3h-83.3v80h464v-80z" fill="#95573a"/><g fill="#b37a60"><circle cx="128" cy="440" r="8"/><circle cx="56" cy="456" r="8"/><circle cx="192" cy="456" r="8"/><path d="m264 360.1v28.5l13.7 13.6c1.5 1.5 2.3 3.5 2.3 5.7v16h8c1.7 0 3.4.6 4.8 1.6l32 24c3.5 2.6 4.3 7.7 1.6 11.2-2.6 3.5-7.7 4.3-11.2 1.6l-29.9-22.3h-13.3c-4.4 0-8-3.6-8-8v-20.7l-8-8-10.3 10.4c-1.5 1.5-3.5 2.3-5.7 2.3h-8v24c0 4.4-3.6 8-8 8s-8-3.6-8-8v-32c0-4.4 3.6-8 8-8h12.7l11.3-11.3v-28.5h16z"/><circle cx="376" cy="448" r="8"/><circle cx="320" cy="408" r="8"/><circle cx="456" cy="456" r="8"/></g></svg>