<svg width="0" height="0" class="hidden">
  <symbol xmlns="http://www.w3.org/2000/svg" viewBox="0 0 512 512" id="android">
    <path d="M378.5 167h-246c-8.284 0-15 6.716-15 15v212.78c0 8.284 6.716 15 15 15h19V467c0 24.813 20.187 45 45 45s45-20.187 45-45v-57.22h30V467c0 24.813 20.187 45 45 45s45-20.187 45-45v-57.22h17c8.284 0 15-6.716 15-15V182c0-8.284-6.716-15-15-15zm-321 0c-24.813 0-45 20.187-45 45v89c0 24.813 20.187 45 45 45s45-20.187 45-45v-89c0-24.813-20.187-45-45-45zM390.107 4.394c-5.857-5.858-15.355-5.858-21.213 0l-26.491 26.491C318.66 11.586 288.41 0 255.5 0c-32.4 0-62.223 11.229-85.795 29.992L144.107 4.394c-5.857-5.858-15.355-5.858-21.213 0s-5.858 15.355 0 21.213l25.491 25.491C129.086 74.84 117.5 105.091 117.5 138c0 8.284 6.716 15 15 15h246c8.284 0 15-6.716 15-15 0-32.4-11.229-62.223-29.992-85.795l26.599-26.599c5.857-5.857 5.857-15.354 0-21.212z" fill="#b6f068"></path>
    <path d="M378.5 167H256v242.78h15.5V467c0 24.813 20.187 45 45 45s45-20.187 45-45v-57.22h17c8.284 0 15-6.716 15-15V182c0-8.284-6.716-15-15-15zm76 0c-24.813 0-45 20.187-45 45v89c0 24.813 20.187 45 45 45s45-20.187 45-45v-89c0-24.813-20.187-45-45-45zM390.107 25.607c5.858-5.858 5.858-15.355 0-21.213-5.857-5.858-15.355-5.858-21.213 0l-26.491 26.491C318.781 11.684 288.716.123 256 .006V153h122.5c8.284 0 15-6.716 15-15 0-32.4-11.229-62.223-29.992-85.795l26.599-26.598z" fill="#6de661"></path>
  </symbol>
  <symbol xmlns="http://www.w3.org/2000/svg" viewBox="0 0 512 512" id="edge">
    <path d="M257.749 506.996c-88.405-16.092-151.983-70.757-176.65-141.071-10.83-30.87-13.584-63.639-7.964-94.765 6.111-33.918 19.021-62.818 38.37-85.894 24.018-28.644 57.266-47.329 98.82-55.539 13.371-2.64 23.038 12.557 15.031 23.547-12.748 17.498-21.101 36.922-23.933 55.129h145.604c-2.573-25.357-11.816-46.459-27.113-61.61-18.363-18.189-45.449-27.803-78.33-27.803-127.197 0-192.695 103.111-193.342 104.152-7.939 12.784-27.743 7.115-27.743-7.912 0-29.223 8.086-57.978 24.033-85.469 14.531-25.049 34.87-47.904 60.451-67.93C154.441 23.115 218.377 0 276.011 0c57.725 0 112.079 25.744 153.051 72.488 40.264 45.938 62.438 106.214 62.438 169.724v54.608c0 8.284-6.716 14.999-15 14.999H200.478c25.386 85.074 137.945 64.235 222.8 36.784 9.686-3.133 19.617 4.107 19.617 14.271v117.307a15 15 0 01-10.93 14.437c-56.763 16.005-116.674 22.851-174.216 12.378z" fill="#51caf3"></path>
    <path d="M423.278 348.604c-47.105 15.239-102.74 28.428-147.268 22.605v138.519c51.871 6.186 105.172-.791 155.955-15.109a15 15 0 0010.93-14.437V362.876c0-10.165-9.931-17.405-19.617-14.272zm5.784-276.116C388.09 25.744 333.735 0 276.011 0v123.001c17.561 4.417 32.434 12.432 43.903 23.792 15.297 15.151 24.54 36.254 27.113 61.61H276.01V311.82h200.489c8.284 0 15-6.716 15-15v-54.608c0-63.51-22.174-123.786-62.437-169.724z" fill="#3fa0e1"></path>
  </symbol>
  <symbol xmlns="http://www.w3.org/2000/svg" viewBox="0 0 512 512" id="chrome">
    <path d="M256 512c-21.501 0-42.859-2.67-63.481-7.936-9.625-2.458-14.24-13.44-9.279-22.033l116.101-201.1c19.127-33.13-4.894-74.951-43.3-74.951-8.284 0-15-6.716-15-15s6.716-15 15-15h232.08a14.998 14.998 0 0114.444 10.956C508.826 209.297 512 232.534 512 256c0 141.491-114.497 256-256 256z" fill="#ffd664"></path>
    <path d="M502.564 186.936a15 15 0 00-14.444-10.956H256.04l-.04.002v29.996l.04.002c38.406 0 62.427 41.821 43.3 74.951L256 356v156c141.503 0 256-114.509 256-256 0-23.466-3.174-46.703-9.436-69.064z" fill="#ff9842"></path>
    <path d="M192.521 504.064C83.954 476.357 0 377.64 0 256c0-44.006 11.357-87.412 32.843-125.526 4.874-8.644 16.663-10.251 23.674-3.24l163.93 163.94.087.086c22.962 23.035 61.748 18.463 78.472-9.758 4.207-7.098 13.357-9.465 20.478-5.3 7.122 4.166 9.542 13.302 5.417 20.447l-115.68 200.38a14.997 14.997 0 01-16.7 7.035z" fill="#b6f068"></path>
    <path d="M319.484 276.202c-7.121-4.165-16.271-1.798-20.478 5.3-9.518 16.061-26.181 24.449-43.006 24.462v110.035l68.901-119.35c4.125-7.145 1.704-16.281-5.417-20.447z" fill="#6de661"></path>
    <path d="M199.233 312.387l-163.93-163.94a15 15 0 01-2.461-17.971C76.87 52.35 160.555 0 256 0c118.286 0 216.656 79.909 246.566 186.943 2.672 9.563-4.532 19.037-14.446 19.037H256c-44.11 0-66.872 53.674-35.519 85.228 5.832 5.87 5.809 15.354-.052 21.196-5.86 5.841-15.344 5.834-21.196-.017z" fill="#ff6d4a"></path>
    <path d="M502.566 186.943C472.656 79.909 374.286 0 256 0v205.98h232.12c9.914 0 17.119-9.475 14.446-19.037z" fill="#fe4234"></path>
    <circle cx="256" cy="256" r="80" fill="#51caf3"></circle>
    <path d="M256 176v160c44.183 0 80-35.817 80-80s-35.817-80-80-80z" fill="#3fa0e1"></path>
  </symbol>
  <symbol xmlns="http://www.w3.org/2000/svg" viewBox="0 0 512 512" id="explorer">
    <path d="M273.647 35.201c-131.828 0-238.353 106.523-238.353 238.399 0 131.856 106.504 238.4 238.353 238.4 100.519 0 185.893-61.935 221.076-149.004 3.977-9.844-3.276-20.619-13.903-20.619H370.698a14.994 14.994 0 00-11.346 5.192c-21.587 24.985-52.825 39.314-85.705 39.314-42.634 0-81.665-24.111-100.981-62.088-.805-2.28-2.035-8.259 6.053-8.259l-.006-.012h316.571c7.568 0 13.951-5.641 14.882-13.154A242.76 242.76 0 00512 273.599c0-131.853-106.502-238.398-238.353-238.398zm95.038 195.461H178.652c-9.007 0-6.233-7.622-5.802-8.688 19.414-37.781 58.347-61.674 100.772-61.674 42.696 0 81.781 24.176 101.072 62.243.691 2.078 2.011 8.119-6.009 8.119z" fill="#91e0ff"></path>
    <g fill="#51caf3">
      <path d="M273.647 35.201V160.3c42.686.009 81.76 24.183 101.047 62.243.691 2.078 2.01 8.119-6.009 8.119h-95.038v85.863h221.637c7.568 0 13.951-5.641 14.882-13.154A242.76 242.76 0 00512 273.6c0-131.854-106.502-238.399-238.353-238.399z"></path>
      <path d="M471.697 140.747a238.942 238.942 0 00-24.154-30.258c4.259-28.758-.52-51.277-14.097-64.856-41.43-41.438-164.775 1.075-275.701 112.044C47.235 268.187 4.136 391.836 45.723 433.431 59.3 447.01 81.814 451.79 110.567 447.53a239.087 239.087 0 0030.252 24.159C100.562 482.7 53.907 484.045 24.518 454.65c-62.066-62.099.426-206.591 112.022-318.183C251.818 21.14 394.205-36.025 454.662 24.423c24.853 24.859 30.812 65.986 17.035 116.324z"></path>
    </g>
    <path d="M454.662 24.423C417.167-13.066 348.157-5.305 273.647 33.5v34.106c70.693-40.277 132.731-49.048 159.8-21.974 13.577 13.579 18.355 36.098 14.096 64.856a239.013 239.013 0 0124.154 30.258c13.777-50.337 7.818-91.464-17.035-116.323z" fill="#3fa0e1"></path>
    <path d="M494.723 362.996c3.977-9.844-3.277-20.619-13.904-20.619H370.698a14.994 14.994 0 00-11.346 5.192c-21.587 24.985-52.825 39.314-85.705 39.314V512c100.519 0 185.893-61.934 221.076-149.004z" fill="#51caf3"></path>
  </symbol>
  <symbol xmlns="http://www.w3.org/2000/svg" viewBox="0 0 512 512" id="firefox">
    <path d="M256.007 512C114.53 512 .035 397.503.035 256 .035 114.508 114.52 0 256.007 0c141.476 0 255.972 114.497 255.972 256-.001 141.492-114.485 256-255.972 256z" fill="#3fa0e1"></path>
    <path d="M256.007 0v512c141.487 0 255.972-114.508 255.972-256C511.978 114.498 397.483 0 256.007 0z" fill="#2568bd"></path>
    <path d="M256.007.001c-5.378 0-10.727.184-16.048.511 73.415 25.748 163.669 134.691 172.176 246.086 7.541 98.771-50.199 203.193-266.039 240.742C179.998 503.48 217.347 512 256.007 512c141.476 0 255.972-114.497 255.972-256C511.978 114.508 397.494.001 256.007.001z" fill="#ff9842"></path>
    <path d="M256.007 0v7.332c69.914 34.606 148.232 135.872 156.127 239.265 6.054 79.302-29.978 162.246-156.127 211.297V512c141.476 0 255.972-114.497 255.972-256C511.978 114.508 397.494 0 256.007 0z" fill="#ff8322"></path>
    <path d="M102.598 90.058L26.192 4.978A14.998 14.998 0 00.035 15.001V256c0 8.284 6.715 15 14.998 15s14.998-6.716 14.998-15c0-44.546 12.924-87.338 36.933-123.874l35.634-42.068zm54.83 245.5a15.003 15.003 0 01-9.603-5.73c-22.578-29.655-34.512-65.398-34.512-103.367 0-13.089 15.679-19.905 25.247-10.952 25.509 23.876 47.056 20.416 74.335 16.036 32.381-5.199 72.682-11.672 115.757 38.212 8.39 9.713 9.412 23.547 2.543 34.423-6.868 10.874-19.797 15.89-32.171 12.484-29.967-8.242-43.709-1.818-61.099 6.318-17.985 8.412-40.378 18.886-80.497 12.576z" fill="#ff9842"></path>
    <path d="M501.76 184.034c-47.3 273.425-348.299 221.884-358.202 51.019l82.048-46.578a15 15 0 007.594-13.045v-22.359a15 15 0 00-8.655-13.592l-60.857-28.412V15.001A15 15 0 00137.53 4.979L70.763 79.336c-95.439 100.067-94.644 258.782 4.245 357.683 47.042 47.046 111.081 74.98 180.999 74.98 67.785 0 132.389-26.364 180.999-74.98 69.033-69.041 89.846-166.832 64.754-252.985z" fill="#ffd664"></path>
    <path d="M328.651 269.756c-25.549-29.587-50.121-39.348-72.644-41.309v87.084c11.149-3.398 23.716-4.177 43.016 1.131 12.375 3.406 25.303-1.61 32.171-12.484 6.869-10.875 5.847-24.709-2.543-34.422z" fill="#ff8322"></path>
    <path d="M501.76 184.034c-28.817 166.581-151.8 212.543-245.753 184.39v143.575c67.785 0 132.389-26.364 180.999-74.98 69.033-69.041 89.846-166.832 64.754-252.985z" fill="#ff9842"></path>
  </symbol>
  <symbol xmlns="http://www.w3.org/2000/svg" viewBox="0 0 512 512" id="opera">
    <path d="M256 0c-77.903 0-139.386 111.526-139.99 253.917a316.45 316.45 0 01.001-.086C116.953 165.134 177.91 91 256 91c78.871 0 140 75.474 140 165 0 89.528-61.133 165-140 165-78.084 0-139.047-74.114-139.989-162.901-.001-.094-.002-.153 0-.017C116.614 400.474 178.097 512 256 512c141.491 0 256-114.497 256-256C512 114.509 397.503 0 256 0z" fill="#fe4234"></path>
    <g fill="#e33745">
      <path d="M256 0v91c78.871 0 140 75.474 140 165 0 89.528-61.133 165-140 165v91c141.491 0 256-114.497 256-256C512 114.509 397.503 0 256 0z"></path>
      <path d="M512 256c0 141.288-114.276 256-256 256v-91c78.899 0 140-75.516 140-165 0-89.508-61.122-165-140-165V0c141.495 0 256 114.497 256 256z"></path>
    </g>
    <path d="M0 256c0 141.491 114.497 256 256 256v-30c-27.354 0-53.904-21.982-74.761-61.898-6.188-11.843-11.616-24.799-16.245-38.637-65.166-65.884-65.53-184.679 0-250.93C179.464 87.281 210.697 30 256 30V0C114.509 0 0 114.497 0 256z" fill="#ff6d4a"></path>
  </symbol>
  <symbol xmlns="http://www.w3.org/2000/svg" viewBox="0 0 512 512" id="safari">
    <path d="M511.56 241c-2.01-35.18-11.12-69.02-26.63-99.85-4.48-8.92-9.5-17.59-15.04-25.96a258.524 258.524 0 00-32.87-40.21 258.524 258.524 0 00-40.21-32.87 251.745 251.745 0 00-25.96-15.04C340.02 11.56 306.18 2.45 271 .44c-4.98-.3-9.98-.44-15-.44s-10.02.14-15 .44c-35.18 2.01-69.02 11.12-99.85 26.63-8.92 4.48-17.59 9.5-25.96 15.04-28.167 18.628-53.483 43.447-73.08 73.08a251.745 251.745 0 00-15.04 25.96C11.56 171.98 2.45 205.82.44 241c-.3 4.98-.44 9.98-.44 15s.14 10.02.44 15c2.01 35.18 11.12 69.02 26.63 99.85 4.48 8.92 9.5 17.59 15.04 25.96a258.524 258.524 0 0032.87 40.21 258.524 258.524 0 0040.21 32.87c8.37 5.54 17.04 10.56 25.96 15.04 30.83 15.51 64.67 24.62 99.85 26.63 4.98.3 9.98.44 15 .44s10.02-.14 15-.44c35.18-2.01 69.02-11.12 99.85-26.63 8.92-4.48 17.59-9.5 25.96-15.04a258.524 258.524 0 0040.21-32.87 258.524 258.524 0 0032.87-40.21c5.54-8.37 10.56-17.04 15.04-25.96 15.51-30.83 24.62-64.67 26.63-99.85.3-4.98.44-9.98.44-15s-.14-10.02-.44-15z" fill="#51caf3"></path>
    <path d="M115.19 469.89c8.37 5.54 17.04 10.56 25.96 15.04 30.83 15.51 64.67 24.62 99.85 26.63 4.98.3 9.98.44 15 .44s10.02-.14 15-.44c35.18-2.01 69.02-11.12 99.85-26.63 8.92-4.48 17.59-9.5 25.96-15.04a258.524 258.524 0 0040.21-32.87 258.524 258.524 0 0032.87-40.21c5.54-8.37 10.56-17.04 15.04-25.96 15.51-30.83 24.62-64.67 26.63-99.85.3-4.98.44-9.98.44-15s-.14-10.02-.44-15c-2.01-35.18-11.12-69.02-26.63-99.85-4.48-8.92-9.5-17.59-15.04-25.96a258.524 258.524 0 00-32.87-40.21L74.98 437.02a258.524 258.524 0 0040.21 32.87z" fill="#3fa0e1"></path>
    <path d="M287.82 309.033l-84.853-84.853a15 15 0 014.698-24.394l148.492-63.64a15 15 0 0119.697 19.696l-63.64 148.492a15.003 15.003 0 01-24.394 4.699z" fill="#fe4234"></path>
    <path d="M245.394 266.606l42.427 42.426a14.999 14.999 0 0024.393-4.698l63.64-148.492a15 15 0 00-3.181-16.515L245.394 266.606z" fill="#e33745"></path>
    <path d="M271 .44V45c0 8.28-6.72 15-15 15s-15-6.72-15-15V.44c4.98-.3 9.98-.44 15-.44s10.02.14 15 .44zM158 86.26c-7.174 4.134-16.341 1.689-20.49-5.49l-22.32-38.66c8.37-5.54 17.04-10.56 25.96-15.04l22.34 38.7c4.14 7.17 1.68 16.35-5.49 20.49zM86.26 158c-4.143 7.169-13.308 9.629-20.49 5.49l-38.7-22.34c4.48-8.92 9.5-17.59 15.04-25.96l38.66 22.32c7.17 4.14 9.63 13.32 5.49 20.49zM60 256c0 8.28-6.72 15-15 15H.44c-.3-4.98-.44-9.98-.44-15s.14-10.02.44-15H45c8.28 0 15 6.72 15 15zm20.77 118.49l-38.66 22.32a251.745 251.745 0 01-15.04-25.96l38.7-22.34c7.17-4.14 16.35-1.68 20.49 5.49s1.68 16.35-5.49 20.49zM396.81 42.11l-22.32 38.66c-4.147 7.175-13.312 9.627-20.49 5.49-7.17-4.14-9.63-13.32-5.49-20.49l22.34-38.7c8.92 4.48 17.59 9.5 25.96 15.04zM202.975 202.975a14.979 14.979 0 00-3.188 4.69l-63.64 148.492a15 15 0 0019.696 19.696l148.493-63.64a14.99 14.99 0 004.69-3.188l-106.051-106.05z" fill="#eee"></path>
    <path d="M139.328 372.672a15 15 0 0016.515 3.181l148.493-63.64a14.99 14.99 0 004.69-3.188L256 256 139.328 372.672zM271 467v44.56c-4.98.3-9.98.44-15 .44s-10.02-.14-15-.44V467c0-8.28 6.72-15 15-15s15 6.72 15 15zm125.81 2.89a251.745 251.745 0 01-25.96 15.04l-22.34-38.7c-4.14-7.17-1.68-16.35 5.49-20.49s16.35-1.68 20.49 5.49l22.32 38.66zm88.12-99.04c-4.48 8.92-9.5 17.59-15.04 25.96l-38.66-22.32c-7.17-4.14-9.63-13.32-5.49-20.49s13.32-9.63 20.49-5.49l38.7 22.34zM512 256c0 5.02-.14 10.02-.44 15H467c-8.28 0-15-6.72-15-15s6.72-15 15-15h44.56c.3 4.98.44 9.98.44 15zm-27.07-114.85l-38.7 22.34c-7.183 4.139-16.347 1.678-20.49-5.49-4.14-7.17-1.68-16.35 5.49-20.49l38.66-22.32c5.54 8.37 10.56 17.04 15.04 25.96zM163.49 446.23l-22.34 38.7c-8.92-4.48-17.59-9.5-25.96-15.04l22.32-38.66c4.14-7.17 13.31-9.63 20.49-5.49 7.17 4.14 9.63 13.32 5.49 20.49z" fill="#c6c6c6"></path>
  </symbol>
</svg>