<svg xmlns="http://www.w3.org/2000/svg" height="48" width="48" viewBox="0 0 478 472" xmlns:xlink="http://www.w3.org/1999/xlink">
<defs>
<linearGradient id="e" y2="318.7" gradientUnits="userSpaceOnUse" x2="308.8" gradientTransform="scale(1.008 .9918)" y1="167.4" x1="157.5">
<stop stop-color="#ffffe0" offset="0"/>
<stop stop-color="#edc39c" offset="1"/>
</linearGradient>
<linearGradient id="g" y2="128.5" gradientUnits="userSpaceOnUse" x2="264.8" gradientTransform="scale(1.017 .9837)" y1="228.9" x1="341.7">
<stop stop-color="#ff7f00" offset="0"/>
<stop stop-color="#ff0" offset="1"/>
</linearGradient>
<linearGradient id="f" y2="145.4" gradientUnits="userSpaceOnUse" x2="452.8" gradientTransform="scale(1.029 .9721)" y1="63.5" x1="373.4">
<stop stop-color="#e0e0e0" offset="0"/>
<stop stop-color="#666" offset="1"/>
</linearGradient>
</defs>
<g transform="matrix(.5497 0 0 .5497 159 312)">
<use xlink:href="#a" stroke="#000" stroke-width="76.7"/>
<g id="a">
<g id="b">
<g id="c" fill="#fff">
<circle id="d" r="45.2" cx="-202"/>
<path d="m201-32h-402v64h402"/>
<use xlink:href="#d" x="404"/>
</g>
<use xlink:href="#c" transform="rotate(90)"/>
</g>
<use xlink:href="#b" transform="rotate(45)"/>
</g>
</g>
<path d="m188.8 210 16-47 155-148 107 100-158 157-44 12-76-74z" fill="url(#g)"/>
<path d="m335.6 40.3c-11.5 39.75 55.5 115.2 109.2 98.75l21-21-103-101-27.25 23.25z" fill="url(#f)"/>
<rect opacity=".4" transform="matrix(.6958 .7182 -.7182 .6958 0 0)" height="232.7" width="42.35" y="-232.1" x="281.8" fill="#fff"/>
<rect opacity=".4" transform="matrix(.6958 .7182 -.7182 .6958 0 0)" height="232.7" width="14" y="-227.7" x="294.6" fill="#fff"/>
<ellipse rx="67.79" transform="matrix(.7719 .6357 -.6357 .7719 0 0)" ry="34.82" cy="-214.2" cx="361.4" fill="#ea7598"/>
<path d="m212.1 166c-8.5 47 36.25 103.8 99.25 96.75l-152.5 53.25 53.25-150z" fill="url(#e)"/>
<path d="m181.3 242.5c0.5 20.5 26.75 45 46.75 48.5l-66.25 20 19.5-68.5z" fill="#27382f"/>
<path stroke-width="17" stroke="#800000" fill="none" d="m152.8 317l51-152 157-153c40-12 118 48 105 105l-157 153-156 47z"/>
</svg>