<?xml version="1.0"?>
<svg xmlns="http://www.w3.org/2000/svg" xmlns:xlink="http://www.w3.org/1999/xlink" xmlns:svgjs="http://svgjs.com/svgjs" version="1.1" width="512" height="512" x="0" y="0" viewBox="0 0 512 512" style="enable-background:new 0 0 512 512" xml:space="preserve" class=""><g><g xmlns="http://www.w3.org/2000/svg"><g><path d="m502 136v326c0 22.09-17.91 40-40 40h-46v-10c0-16.57-13.43-30-30-30s-30 13.43-30 30v10h-306c-22.09 0-40-17.91-40-40v-46h40v-40h-40v-326c0-22.09 17.91-40 40-40h46v10c0 16.57 13.43 30 30 30s30-13.43 30-30v-10h306c22.09 0 40 17.91 40 40v46h-40v40z" fill="#527a53" data-original="#d8ec84" style="" class=""/><path d="m356 116h-240v240l40 40h240v-240c-15.62-15.62-24.38-24.38-40-40z" fill="#eefaff" data-original="#eefaff" style="" class=""/><g fill="#d8ec84"><path d="m356 176v20c0 44.18-35.82 80-80 80v-20c0-44.18 35.82-80 80-80z" fill="#527a53" data-original="#d8ec84" style="" class=""/><path d="m236 296h-20c-33.14 0-60-26.86-60-60h20c33.14 0 60 26.86 60 60z" fill="#527a53" data-original="#d8ec84" style="" class=""/></g></g><g><circle cx="436" cy="50" r="10" fill="#2c2c2c" data-original="#000000" style="" class=""/><circle cx="396" cy="50" r="10" fill="#2c2c2c" data-original="#000000" style="" class=""/><circle cx="356" cy="356" r="10" fill="#2c2c2c" data-original="#000000" style="" class=""/><circle cx="156" cy="156" r="10" fill="#2c2c2c" data-original="#000000" style="" class=""/><path d="m176 452c5.523 0 10-4.477 10-10v-36h20v36c0 5.523 4.477 10 10 10s10-4.477 10-10v-36h20v36c0 5.523 4.477 10 10 10s10-4.477 10-10v-36h20v36c0 5.523 4.477 10 10 10s10-4.477 10-10v-36h20v36c0 5.523 4.477 10 10 10s10-4.477 10-10v-36h50c5.523 0 10-4.477 10-10v-50h36c5.523 0 10-4.477 10-10s-4.477-10-10-10h-36v-20h36c5.523 0 10-4.477 10-10s-4.477-10-10-10h-36v-20h36c5.523 0 10-4.477 10-10s-4.477-10-10-10h-36v-20h36c5.523 0 10-4.477 10-10s-4.477-10-10-10h-36v-20h36c5.523 0 10-4.477 10-10s-4.477-10-10-10h-36v-10c0-2.652-1.054-5.196-2.929-7.071l-40-40c-1.875-1.875-4.419-2.929-7.071-2.929h-10v-36c0-5.523-4.477-10-10-10s-10 4.477-10 10v36h-20v-36c0-5.523-4.477-10-10-10s-10 4.477-10 10v36h-20v-36c0-5.523-4.477-10-10-10s-10 4.477-10 10v36h-20v-36c0-5.523-4.477-10-10-10s-10 4.477-10 10v36h-20v-36c0-5.523-4.477-10-10-10s-10 4.477-10 10v36h-50c-5.523 0-10 4.477-10 10v50h-36c-5.523 0-10 4.477-10 10s4.477 10 10 10h36v20h-36c-5.523 0-10 4.477-10 10s4.477 10 10 10h36v20h-36c-5.523 0-10 4.477-10 10s4.477 10 10 10h36v20h-36c-5.523 0-10 4.477-10 10s4.477 10 10 10h36v20h-36c-5.523 0-10 4.477-10 10s4.477 10 10 10h36v10c0 2.652 1.054 5.196 2.929 7.071l40 40c1.875 1.875 4.419 2.929 7.071 2.929h10v36c0 5.523 4.477 10 10 10zm-15.858-66-34.142-34.142v-225.858h225.858l34.142 34.142v225.858z" fill="#2c2c2c" data-original="#000000" style="" class=""/><path d="m356 166c-49.626 0-90 40.374-90 90v16.029c-6.6 7.343-11.661 15.736-15.046 24.783l-5.098-5.098c-2.224-36.609-32.698-65.714-69.856-65.714h-20c-5.523 0-10 4.477-10 10 0 38.598 31.402 70 70 70h15.857c3.038 3.612 10.847 8.451 13.416 20h-29.273c-5.523 0-10 4.477-10 10s4.477 10 10 10h80c5.523 0 10-4.477 10-10s-4.477-10-10-10h-30c.17-.98-1.847-21.557 14.45-40.111 47.567-2.328 85.55-41.755 85.55-89.889v-20c0-5.523-4.477-10-10-10zm-140 120c-24.146 0-44.349-17.206-48.996-40h8.996c24.146 0 44.349 17.206 48.996 40zm130-90c0 35.203-26.122 64.421-60 69.288v-9.288c0-35.203 26.122-64.421 60-69.288z" fill="#2c2c2c" data-original="#000000" style="" class=""/><path d="m462 0h-306c-5.523 0-10 4.477-10 10v10c0 11.028-8.972 20-20 20s-20-8.972-20-20v-10c0-5.523-4.477-10-10-10h-46c-27.57 0-50 22.43-50 50v326c0 5.523 4.477 10 10 10h30v20h-30c-5.523 0-10 4.477-10 10v46c0 27.57 22.43 50 50 50h111c5.523 0 10-4.477 10-10s-4.477-10-10-10h-111c-16.542 0-30-13.458-30-30v-36h30c5.523 0 10-4.477 10-10v-40c0-5.523-4.477-10-10-10h-30v-316c0-16.542 13.458-30 30-30h36c0 22.056 17.944 40 40 40s40-17.944 40-40h296c16.542 0 30 13.458 30 30v36h-30c-5.523 0-10 4.477-10 10v40c0 5.523 4.477 10 10 10h30v316c0 16.542-13.458 30-30 30h-36c0-22.056-17.944-40-40-40s-40 17.944-40 40h-95c-5.523 0-10 4.477-10 10s4.477 10 10 10h105c5.523 0 10-4.477 10-10v-10c0-11.028 8.972-20 20-20s20 8.972 20 20v10c0 5.523 4.477 10 10 10h46c27.57 0 50-22.43 50-50v-326c0-5.523-4.477-10-10-10h-30v-20h30c5.523 0 10-4.477 10-10v-46c0-27.57-22.43-50-50-50z" fill="#2c2c2c" data-original="#000000" style="" class=""/><circle cx="206" cy="502" r="10" fill="#2c2c2c" data-original="#000000" style="" class=""/></g></g></g></svg>
