<?xml version="1.0" encoding="UTF-8" standalone="no"?>
<!DOCTYPE svg PUBLIC "-//W3C//DTD SVG 1.1//EN" "http://www.w3.org/Graphics/SVG/1.1/DTD/svg11.dtd">
<svg version="1.1" xmlns="http://www.w3.org/2000/svg" xmlns:xlink="http://www.w3.org/1999/xlink" preserveAspectRatio="xMidYMid meet" viewBox="0 0 920 700" width="920" height="700"><defs><path d="M891.84 652.72C894.03 647.31 895.25 644.3 895.49 643.7C899.94 642.5 904.45 641.55 909 640.86C908.98 641.15 908.88 642.62 908.7 645.25C909.83 642.48 910.45 640.94 910.58 640.63C916.22 639.83 920 639.66 920 639.66C920 639.66 912.4 657.92 899.94 670.97C899.11 671 894.95 671.15 887.46 671.43C893.03 673.03 896.12 673.92 896.74 674.1C895.2 675.5 893.58 676.8 891.88 678C874.72 690.02 856.89 694.15 852.05 687.24C847.21 680.33 857.19 664.98 874.35 652.97C879.9 649.27 885.99 646.45 892.39 644.6C892.32 645.68 892.13 648.39 891.84 652.72Z" id="a3uQmvTX7h"></path><path d="M859.46 611.35C856.68 603.36 855.13 598.92 854.82 598.03C858.51 592.47 862.52 587.12 866.81 582.01C867.07 582.35 868.36 584.04 870.68 587.08C869.25 582.98 868.46 580.71 868.3 580.26C873.68 573.99 877.63 570.18 877.63 570.18C877.63 570.18 886.83 597.35 885.75 623.47C884.88 624.3 880.49 628.45 872.6 635.91C880.2 632.33 884.42 630.34 885.26 629.95C884.93 632.94 884.41 635.91 883.71 638.84C876.52 668.34 861.06 689.91 849.17 687.02C837.29 684.12 833.48 657.86 840.66 628.35C843.17 619.02 847.1 610.13 852.3 601.98C853.26 603.23 855.64 606.36 859.46 611.35Z" id="bCUfiqVvY"></path><path d="M908.25 690.1C908.25 694.32 841.84 697.75 759.92 697.75C678 697.75 611.59 694.32 611.59 690.1C611.59 685.87 678 682.44 759.92 682.44C841.84 682.44 908.25 685.87 908.25 690.1Z" id="b1LbCgpSe7"></path><path d="M156.32 119.21L156.32 121.13C219.19 121.13 254.11 121.13 261.1 121.13C271.84 121.13 280.55 129.84 280.55 140.58C280.55 151.32 271.84 160.03 261.1 160.03C245.24 160.03 118.4 160.03 102.54 160.03C91.8 160.03 83.09 151.32 83.09 140.58C83.09 129.84 91.8 121.13 102.54 121.13C102.94 121.13 104.91 121.13 108.47 121.13L108.47 119.21C104.91 119.21 102.94 119.21 102.54 119.21C90.74 119.21 81.18 128.78 81.18 140.58C81.18 152.38 90.74 161.94 102.54 161.94C118.4 161.94 245.24 161.94 261.1 161.94C272.9 161.94 282.47 152.38 282.47 140.58C282.47 128.78 272.9 119.21 261.1 119.21C261.1 119.21 226.17 119.21 156.32 119.21Z" id="bIytAkZ4X"></path><path d="M156.32 185.24L156.32 187.16C219.19 187.16 254.11 187.16 261.1 187.16C271.84 187.16 280.55 195.87 280.55 206.61C280.55 217.35 271.84 226.06 261.1 226.06C245.24 226.06 118.4 226.06 102.54 226.06C91.8 226.06 83.09 217.35 83.09 206.61C83.09 195.87 91.8 187.16 102.54 187.16C102.94 187.16 104.91 187.16 108.47 187.16L108.47 185.24C104.91 185.24 102.94 185.24 102.54 185.24C90.74 185.25 81.18 194.82 81.19 206.62C81.2 218.41 90.75 227.97 102.54 227.97C118.4 227.97 245.24 227.97 261.1 227.97C272.9 227.97 282.46 218.39 282.45 206.59C282.44 194.81 272.89 185.25 261.1 185.24C261.1 185.24 226.17 185.24 156.32 185.24Z" id="cvVRUr5eL"></path><path d="M156.32 251.27L156.32 253.19C219.19 253.19 254.11 253.19 261.1 253.19C271.84 253.19 280.55 261.9 280.55 272.64C280.55 283.38 271.84 292.09 261.1 292.09C261.1 292.09 261.1 292.09 261.1 292.09C245.24 292.09 118.4 292.09 102.54 292.09C91.8 292.09 83.09 283.38 83.09 272.64C83.09 261.9 91.8 253.19 102.54 253.19C102.94 253.19 104.91 253.19 108.47 253.19L108.47 251.27C104.91 251.27 102.94 251.27 102.54 251.27C90.74 251.27 81.18 260.84 81.18 272.64C81.18 284.44 90.74 294 102.54 294C118.4 294 245.24 294 261.1 294C272.9 294 282.46 284.42 282.45 272.62C282.44 260.84 272.89 251.28 261.1 251.27C261.1 251.27 226.17 251.27 156.32 251.27Z" id="d3TZ1Qc6uI"></path><path d="M120.29 114.16C117.15 114.21 114.65 116.8 114.7 119.94C114.75 123.01 117.23 125.49 120.29 125.54C122.79 125.54 142.76 125.54 145.26 125.54C148.4 125.59 150.99 123.08 151.04 119.94C151.08 116.8 148.58 114.21 145.44 114.16C145.38 114.16 145.32 114.16 145.26 114.16C131.94 114.16 123.62 114.16 120.29 114.16Z" id="b1WJCihjJ1"></path><path d="M120.29 181.14C117.15 181.2 114.65 183.78 114.7 186.93C114.75 190 117.22 192.47 120.29 192.52C122.79 192.52 142.76 192.52 145.26 192.52C148.4 192.58 150.99 190.07 151.04 186.93C151.09 183.78 148.59 181.2 145.44 181.14C145.38 181.14 145.32 181.14 145.26 181.14C131.94 181.14 123.62 181.14 120.29 181.14Z" id="ac3JXvEuN"></path><path d="M120.29 246.22C117.15 246.27 114.65 248.86 114.7 252C114.75 255.07 117.22 257.55 120.29 257.6C122.79 257.6 142.76 257.6 145.26 257.6C148.4 257.65 150.99 255.14 151.04 252C151.09 248.86 148.59 246.27 145.44 246.22C145.38 246.22 145.32 246.22 145.26 246.22C131.94 246.22 123.62 246.22 120.29 246.22Z" id="b1j5150Bra"></path><path d="M110.39 134.89C107.25 134.94 104.75 137.53 104.8 140.67C104.85 143.74 107.32 146.22 110.39 146.27C124.66 146.27 238.8 146.27 253.06 146.27C256.2 146.32 258.79 143.81 258.85 140.67C258.9 137.53 256.39 134.94 253.25 134.89C253.19 134.89 253.12 134.89 253.06 134.89C176.97 134.89 129.42 134.89 110.39 134.89Z" id="dhvD9BHVl"></path><path d="M156.32 57.01L156.32 58.93C219.19 58.93 254.11 58.93 261.1 58.93C271.84 58.93 280.55 67.63 280.55 78.38C280.55 89.12 271.84 97.83 261.1 97.83C245.24 97.83 118.4 97.83 102.54 97.83C91.8 97.82 83.1 89.11 83.1 78.36C83.11 67.63 91.81 58.93 102.54 58.93C102.94 58.93 104.91 58.93 108.47 58.93L108.47 57.01C104.91 57.01 102.94 57.01 102.54 57.01C90.74 57.02 81.18 66.59 81.19 78.39C81.2 90.18 90.75 99.73 102.54 99.74C118.4 99.74 245.24 99.74 261.1 99.74C272.9 99.73 282.46 90.16 282.45 78.36C282.44 66.57 272.89 57.02 261.1 57.01C261.1 57.01 226.17 57.01 156.32 57.01Z" id="a1hkJdd6k5"></path><path d="M120.29 51.96C117.15 52.01 114.65 54.6 114.7 57.74C114.75 60.81 117.22 63.29 120.29 63.34C122.79 63.34 142.76 63.34 145.26 63.34C148.4 63.39 150.99 60.88 151.04 57.74C151.09 54.6 148.59 52.01 145.44 51.96C145.38 51.95 145.32 51.95 145.26 51.96C131.94 51.96 123.62 51.96 120.29 51.96Z" id="b8hnE82kE"></path><path d="M110.39 72.69C107.25 72.74 104.75 75.33 104.8 78.47C104.85 81.54 107.32 84.02 110.39 84.07C124.66 84.07 238.8 84.07 253.06 84.07C256.2 84.12 258.8 81.62 258.85 78.48C258.91 75.33 256.4 72.74 253.26 72.69C253.26 72.69 253.25 72.69 253.25 72.69C253.19 72.69 253.12 72.69 253.06 72.69C176.97 72.69 129.42 72.69 110.39 72.69Z" id="g1LWOxLcuw"></path><path d="M110.39 200.92C107.25 200.97 104.75 203.56 104.8 206.7C104.85 209.77 107.32 212.25 110.39 212.3C124.66 212.3 238.8 212.3 253.06 212.3C256.2 212.35 258.79 209.84 258.85 206.7C258.9 203.56 256.39 200.97 253.25 200.92C253.25 200.92 253.25 200.92 253.25 200.92C253.19 200.92 253.12 200.92 253.06 200.92C176.97 200.92 129.42 200.92 110.39 200.92Z" id="c4LGcpwCtw"></path><path d="M110.39 266.95C107.25 267 104.75 269.59 104.8 272.73C104.85 275.8 107.32 278.28 110.39 278.33C124.66 278.33 238.8 278.33 253.06 278.33C256.2 278.38 258.79 275.87 258.85 272.73C258.9 269.59 256.39 267 253.25 266.95C253.25 266.95 253.25 266.95 253.25 266.95C253.19 266.95 253.12 266.95 253.06 266.95C176.97 266.95 129.42 266.95 110.39 266.95Z" id="bSWrPkBuz"></path><path d="M303.45 194.62L303.45 219.48L324.98 207.05L303.45 194.62L303.45 219.48L324.98 207.05L324.98 207.05L303.45 194.62Z" id="amYsqVoVM"></path><path d="M343.64 342.84C141.76 342.84 29.61 342.84 7.18 342.84C4.8 342.84 2.87 340.91 2.87 338.53C2.87 305.42 2.87 40.54 2.87 7.43C2.87 5.05 4.8 3.12 7.18 3.12C42.11 3.12 321.54 3.12 356.47 3.12C358.84 3.12 360.77 5.05 360.77 7.43C360.77 20.5 360.77 85.84 360.77 203.46L363.64 203.46C363.64 85.84 363.64 20.5 363.64 7.43C363.64 3.46 360.43 0.25 356.47 0.25C321.54 0.25 42.11 0.25 7.18 0.25C3.22 0.25 0 3.46 0 7.43C0 40.54 0 305.42 0 338.53C0 342.49 3.22 345.71 7.18 345.71C29.61 345.71 141.76 345.71 343.64 345.71L343.64 342.84Z" id="a2V1YEGQJ9"></path><path d="M350.74 198.68C346.82 198.68 343.64 201.16 343.64 204.21C343.64 208.56 343.64 230.32 343.64 269.49L659.44 269.49C659.44 230.32 659.44 208.56 659.44 204.21C659.44 201.16 656.26 198.68 652.35 198.68C592.03 198.68 380.9 198.68 350.74 198.68Z" id="d2KVFCB6GN"></path><path d="M348.91 196.76C344.94 196.77 341.73 199.98 341.73 203.94C341.73 228.34 341.73 423.56 341.73 447.97C341.73 451.93 344.94 455.14 348.91 455.14C379.43 455.14 623.65 455.14 654.18 455.14C658.14 455.14 661.35 451.93 661.35 447.97C661.35 423.56 661.35 228.34 661.35 203.94C661.35 199.98 658.14 196.77 654.18 196.76C593.12 196.76 379.43 196.76 348.91 196.76ZM658.48 447.97C658.48 450.34 656.55 452.27 654.18 452.27C623.65 452.27 379.43 452.27 348.91 452.27C346.53 452.27 344.6 450.34 344.6 447.97C344.6 423.56 344.6 228.34 344.6 203.94C344.6 201.57 346.53 199.64 348.91 199.64C379.43 199.64 623.65 199.64 654.18 199.64C656.55 199.64 658.48 201.57 658.48 203.94C658.48 252.75 658.48 399.16 658.48 447.97Z" id="a3Awz1QrwH"></path><path d="M476.04 305.2L476.04 307.12C538.91 307.12 573.84 307.12 580.82 307.12C591.56 307.12 600.27 315.83 600.27 326.57C600.27 337.31 591.56 346.02 580.82 346.02C580.82 346.02 580.82 346.02 580.82 346.02C564.97 346.02 438.12 346.02 422.26 346.02C411.52 346.02 402.81 337.31 402.81 326.57C402.81 315.83 411.52 307.12 422.26 307.12C422.66 307.12 424.63 307.12 428.19 307.12L428.19 305.2C424.63 305.2 422.66 305.2 422.26 305.2C410.46 305.2 400.9 314.77 400.9 326.57C400.9 338.37 410.46 347.93 422.26 347.93C438.12 347.93 564.97 347.93 580.82 347.93C592.62 347.93 602.19 338.37 602.19 326.57C602.19 314.77 592.62 305.2 580.82 305.2C566.85 305.2 531.92 305.2 476.04 305.2Z" id="c1MSb9pVV5"></path><path d="M476.04 371.23L476.04 373.15C538.91 373.15 573.84 373.15 580.82 373.15C591.56 373.15 600.27 381.86 600.27 392.6C600.27 403.34 591.56 412.05 580.82 412.05C564.97 412.05 438.12 412.05 422.26 412.05C411.52 412.05 402.81 403.34 402.81 392.6C402.81 381.86 411.52 373.15 422.26 373.15C422.66 373.15 424.63 373.15 428.19 373.15L428.19 371.23C424.63 371.23 422.66 371.23 422.26 371.23C410.46 371.23 400.9 380.8 400.9 392.6C400.9 404.4 410.46 413.96 422.26 413.96C438.12 413.96 564.97 413.96 580.82 413.96C592.62 413.96 602.19 404.4 602.19 392.6C602.19 380.8 592.62 371.23 580.82 371.23C566.85 371.23 531.92 371.23 476.04 371.23Z" id="eaTcOKGa9"></path><path d="M440.02 301.1C436.87 301.15 434.37 303.74 434.42 306.89C434.47 309.96 436.95 312.43 440.02 312.48C442.51 312.48 462.48 312.48 464.98 312.48C468.12 312.54 470.71 310.03 470.76 306.89C470.81 303.74 468.31 301.16 465.16 301.1C465.1 301.1 465.04 301.1 464.98 301.1C451.66 301.1 443.34 301.1 440.02 301.1Z" id="a167wZ5pa"></path><path d="M440.02 366.18C436.87 366.23 434.37 368.82 434.42 371.96C434.47 375.03 436.95 377.51 440.02 377.56C442.51 377.56 462.48 377.56 464.98 377.56C468.12 377.61 470.71 375.1 470.76 371.96C470.81 368.82 468.31 366.23 465.16 366.18C465.1 366.18 465.04 366.18 464.98 366.18C451.66 366.18 443.34 366.18 440.02 366.18Z" id="d2ysTwfmud"></path><path d="M430.11 320.88C426.97 320.93 424.47 323.52 424.52 326.66C424.57 329.73 427.04 332.21 430.11 332.26C444.38 332.26 558.52 332.26 572.78 332.26C575.92 332.31 578.51 329.8 578.57 326.66C578.62 323.52 576.11 320.93 572.97 320.88C572.97 320.88 572.97 320.88 572.97 320.88C572.91 320.88 572.84 320.88 572.78 320.88C496.69 320.88 449.14 320.88 430.11 320.88Z" id="aOKvJAWrY"></path><path d="M430.11 386.91C426.97 386.96 424.47 389.55 424.52 392.69C424.57 395.76 427.04 398.24 430.11 398.29C444.38 398.29 558.52 398.29 572.78 398.29C575.92 398.34 578.51 395.83 578.57 392.69C578.62 389.55 576.11 386.96 572.97 386.91C572.97 386.91 572.97 386.91 572.97 386.91C572.91 386.91 572.84 386.91 572.78 386.91C496.69 386.91 449.14 386.91 430.11 386.91Z" id="a18aHgMfCI"></path><path d="M385.67 213.5C374.3 213.5 365.09 222.72 365.09 234.09C365.09 245.46 374.3 254.67 385.67 254.67C397.04 254.67 406.26 245.46 406.26 234.09C406.26 222.72 397.04 213.5 385.67 213.5Z" id="a2Oxcuqz1"></path><path d="M422.59 217.84C419.78 217.88 417.53 220.2 417.58 223.02C417.62 225.77 419.84 227.99 422.59 228.04C435.38 228.04 537.68 228.04 550.47 228.04C553.29 228.08 555.61 225.84 555.65 223.02C555.7 220.2 553.45 217.88 550.64 217.84C550.58 217.83 550.53 217.83 550.47 217.84C482.27 217.84 439.64 217.84 422.59 217.84Z" id="aSjIIWxF"></path><path d="M422.59 240.14C419.78 240.18 417.53 242.5 417.58 245.32C417.62 248.07 419.84 250.29 422.59 250.34C443.61 250.34 611.79 250.34 632.81 250.34C635.63 250.38 637.95 248.14 638 245.32C638.04 242.5 635.8 240.18 632.98 240.14C632.93 240.14 632.87 240.14 632.81 240.14C520.7 240.14 450.62 240.14 422.59 240.14Z" id="a1kxzWiIzk"></path><path d="M785.42 264.88C786 251.94 784.9 239.88 780.64 229.47C784.08 228.22 811.64 218.27 815.09 217.03C812 229.91 817.8 244.6 827.53 260.09C819.11 261.05 789.63 264.4 785.42 264.88Z" id="cw0lFzHzo"></path><path d="M832.6 403.72C840.79 418.32 845.33 426.44 846.24 428.06C849.66 434.16 847.48 441.87 841.39 445.28C841.39 445.28 841.39 445.28 841.39 445.28C841.33 445.31 841.28 445.34 841.22 445.37C841.22 445.37 841.22 445.37 841.22 445.37C835.08 448.7 827.4 446.41 824.08 440.26C823.27 438.77 822.77 437.13 822.61 435.45C822.46 433.89 821.73 426.14 820.39 412.18L812.84 323.36L799.95 264.94L826.71 257.35L839.17 323.04L832.6 403.72Z" id="c2Lq7xetDk"></path><path d="M855.28 662.97L838.05 662.01L799.77 491.67L718.43 662.97L701.21 662.01L750.97 397.89L751.93 350.04C789.25 347.75 809.98 346.47 814.13 346.22C837.38 371.78 850.54 398.22 852.41 425.64C852.79 457.29 853.75 536.4 855.28 662.97Z" id="c6gXwMKOvC"></path><path d="M708.29 685.01C700.41 695.29 682.07 692.06 682.15 690.88C679.62 690.06 678.23 687.36 679.04 684.83C679.06 684.75 679.09 684.68 679.12 684.61C679.12 684.61 679.12 684.61 679.12 684.61C679.67 683.13 680.92 682.02 682.45 681.63C683 681.5 685.72 680.81 690.63 679.59L703.48 657L716.59 656.11C716.59 656.11 716.59 656.11 716.59 656.11C722.52 663.66 724.65 673.51 722.39 682.84C721.2 687.7 719.36 691.82 717.04 692.88C713.78 694.36 710.64 681.95 708.29 685.01Z" id="b7U6aaQJbZ"></path><path d="M844.26 685.01C835.18 696.84 817.5 692.76 818.11 690.88C815.58 690.06 814.19 687.36 815.01 684.83C815.01 684.83 815.01 684.83 815.01 684.83C815.03 684.75 815.05 684.68 815.08 684.61C815.08 684.61 815.08 684.61 815.08 684.61C815.64 683.13 816.88 682.02 818.42 681.63C818.96 681.5 821.69 680.81 826.6 679.59L839.44 657L853.44 655.22C853.66 655.57 853.77 655.76 853.8 655.8C859.27 664.63 860.68 675.38 857.67 685.32C856.5 689.05 854.92 692 853 692.88C849.74 694.36 846.61 681.95 844.26 685.01Z" id="a5wZELJcvQ"></path><path d="M789.25 178.75C772.86 178.75 759.58 192.03 759.58 208.42C759.58 224.8 772.86 238.08 789.25 238.08C805.63 238.08 818.91 224.8 818.91 208.42C818.91 192.03 805.63 178.75 789.25 178.75Z" id="a35lXGn3r5"></path><path d="M816.04 351L751.93 354.83C748.48 333.01 746.57 320.89 746.19 318.46C740.24 302.12 747.67 287.1 759.58 272.53C761.24 270.68 769.54 261.43 784.46 244.78L818.91 243.82C818.91 243.82 818.91 243.82 818.91 243.82C828.38 246.93 835.2 255.22 836.42 265.11C838.9 285.46 835.19 306.08 825.77 324.28C824.47 327.84 821.23 336.75 816.04 351Z" id="e1orpnze89"></path><path d="M746.19 432.34C748.94 448.86 750.47 458.03 750.77 459.87C751.92 466.76 747.27 473.28 740.37 474.43C740.37 474.43 740.37 474.43 740.37 474.43C740.31 474.44 740.25 474.45 740.19 474.46C740.19 474.46 740.19 474.46 740.19 474.46C733.28 475.5 726.83 470.75 725.79 463.84C725.53 462.17 725.62 460.46 726.04 458.81C726.42 457.3 728.36 449.76 731.83 436.17L754.8 350.04L762.45 290.71L790.21 292.63L779.68 358.66L746.19 432.34Z" id="a1j9rYTvVO"></path><path d="M824.14 322.77C811.2 311.56 799.95 298.99 809.03 283.25C801.33 263.7 792.75 243.4 793.26 230.85C793.81 221.56 790.82 212.41 784.9 205.24C776.71 195.68 774.89 191.41 759.94 195.03C759.94 195.03 759.94 195.03 759.94 195.03C759.73 179.39 772.23 166.53 787.87 166.31C788.35 166.31 788.82 166.31 789.29 166.33C794.9 166.53 798.01 166.65 798.63 166.67C805.78 166.93 828.61 169.85 833.51 174.56C838.55 179.57 840.96 186.64 840.02 193.69C839.1 201.48 841.56 208.36 848.13 214.13C860.71 227.14 865.9 240.64 858.77 254.95C853.39 270.1 853.64 282.57 867.53 288.56C867.53 288.56 867.53 288.56 867.53 288.56C872.04 305.87 842.71 322.77 824.82 322.77C824.69 322.77 824.21 322.77 824.14 322.77Z" id="a4pI6LapQe"></path><path d="M793.08 302.2C781.2 293.11 769.39 292.39 757.67 301.24C757.99 297.61 760.55 268.53 760.87 264.9C760.69 254.22 769.02 245.33 779.69 244.82C779.69 244.82 779.69 244.82 779.69 244.82C790.59 244.31 799.84 252.72 800.36 263.62C800.36 263.62 800.36 263.62 800.36 263.62C800.38 264.04 800.39 264.47 800.38 264.89C796.48 284.79 794.05 297.22 793.08 302.2Z" id="ab0DQkF5"></path><path d="M793.55 214.16C793.55 218.12 791.84 221.33 789.73 221.33C787.61 221.33 785.9 218.12 785.9 214.16C785.9 210.19 787.61 206.98 789.73 206.98C791.84 206.98 793.55 210.19 793.55 214.16Z" id="bKmuJKqzS"></path></defs><g><g><g><use xlink:href="#a3uQmvTX7h" opacity="1" fill="#e6e6e6" fill-opacity="1"></use><g><use xlink:href="#a3uQmvTX7h" opacity="1" fill-opacity="0" stroke="#000000" stroke-width="1" stroke-opacity="0"></use></g></g><g><use xlink:href="#bCUfiqVvY" opacity="1" fill="#e6e6e6" fill-opacity="1"></use><g><use xlink:href="#bCUfiqVvY" opacity="1" fill-opacity="0" stroke="#000000" stroke-width="1" stroke-opacity="0"></use></g></g><g><use xlink:href="#b1LbCgpSe7" opacity="1" fill="#e6e6e6" fill-opacity="1"></use><g><use xlink:href="#b1LbCgpSe7" opacity="1" fill-opacity="0" stroke="#000000" stroke-width="1" stroke-opacity="0"></use></g></g><g><use xlink:href="#bIytAkZ4X" opacity="1" fill="#5c5c5c" fill-opacity="1"></use><g><use xlink:href="#bIytAkZ4X" opacity="1" fill-opacity="0" stroke="#000000" stroke-width="1" stroke-opacity="0"></use></g></g><g><use xlink:href="#cvVRUr5eL" opacity="1" fill="#527a53" fill-opacity="1"></use><g><use xlink:href="#cvVRUr5eL" opacity="1" fill-opacity="0" stroke="#000000" stroke-width="1" stroke-opacity="0"></use></g></g><g><use xlink:href="#d3TZ1Qc6uI" opacity="1" fill="#5c5c5c" fill-opacity="1"></use><g><use xlink:href="#d3TZ1Qc6uI" opacity="1" fill-opacity="0" stroke="#000000" stroke-width="1" stroke-opacity="0"></use></g></g><g><use xlink:href="#b1WJCihjJ1" opacity="1" fill="#3f3d56" fill-opacity="1"></use><g><use xlink:href="#b1WJCihjJ1" opacity="1" fill-opacity="0" stroke="#000000" stroke-width="1" stroke-opacity="0"></use></g></g><g><use xlink:href="#ac3JXvEuN" opacity="1" fill="#3f3d56" fill-opacity="1"></use><g><use xlink:href="#ac3JXvEuN" opacity="1" fill-opacity="0" stroke="#000000" stroke-width="1" stroke-opacity="0"></use></g></g><g><use xlink:href="#b1j5150Bra" opacity="1" fill="#3f3d56" fill-opacity="1"></use><g><use xlink:href="#b1j5150Bra" opacity="1" fill-opacity="0" stroke="#000000" stroke-width="1" stroke-opacity="0"></use></g></g><g><use xlink:href="#dhvD9BHVl" opacity="1" fill="#5c5c5c" fill-opacity="1"></use><g><use xlink:href="#dhvD9BHVl" opacity="1" fill-opacity="0" stroke="#000000" stroke-width="1" stroke-opacity="0"></use></g></g><g><use xlink:href="#a1hkJdd6k5" opacity="1" fill="#5c5c5c" fill-opacity="1"></use><g><use xlink:href="#a1hkJdd6k5" opacity="1" fill-opacity="0" stroke="#000000" stroke-width="1" stroke-opacity="0"></use></g></g><g><use xlink:href="#b8hnE82kE" opacity="1" fill="#3f3d56" fill-opacity="1"></use><g><use xlink:href="#b8hnE82kE" opacity="1" fill-opacity="0" stroke="#000000" stroke-width="1" stroke-opacity="0"></use></g></g><g><use xlink:href="#g1LWOxLcuw" opacity="1" fill="#5c5c5c" fill-opacity="1"></use><g><use xlink:href="#g1LWOxLcuw" opacity="1" fill-opacity="0" stroke="#000000" stroke-width="1" stroke-opacity="0"></use></g></g><g><use xlink:href="#c4LGcpwCtw" opacity="1" fill="#527a53" fill-opacity="1"></use><g><use xlink:href="#c4LGcpwCtw" opacity="1" fill-opacity="0" stroke="#000000" stroke-width="1" stroke-opacity="0"></use></g></g><g><use xlink:href="#bSWrPkBuz" opacity="1" fill="#5c5c5c" fill-opacity="1"></use><g><use xlink:href="#bSWrPkBuz" opacity="1" fill-opacity="0" stroke="#000000" stroke-width="1" stroke-opacity="0"></use></g></g><g><use xlink:href="#amYsqVoVM" opacity="1" fill="#527a53" fill-opacity="1"></use><g><use xlink:href="#amYsqVoVM" opacity="1" fill-opacity="0" stroke="#000000" stroke-width="1" stroke-opacity="0"></use></g></g><g><use xlink:href="#a2V1YEGQJ9" opacity="1" fill="#5c5c5c" fill-opacity="1"></use><g><use xlink:href="#a2V1YEGQJ9" opacity="1" fill-opacity="0" stroke="#000000" stroke-width="1" stroke-opacity="0"></use></g></g><g><use xlink:href="#d2KVFCB6GN" opacity="1" fill="#527a53" fill-opacity="1"></use><g><use xlink:href="#d2KVFCB6GN" opacity="1" fill-opacity="0" stroke="#000000" stroke-width="1" stroke-opacity="0"></use></g></g><g><use xlink:href="#a3Awz1QrwH" opacity="1" fill="#5c5c5c" fill-opacity="1"></use><g><use xlink:href="#a3Awz1QrwH" opacity="1" fill-opacity="0" stroke="#000000" stroke-width="1" stroke-opacity="0"></use></g></g><g><use xlink:href="#c1MSb9pVV5" opacity="1" fill="#5c5c5c" fill-opacity="1"></use><g><use xlink:href="#c1MSb9pVV5" opacity="1" fill-opacity="0" stroke="#000000" stroke-width="1" stroke-opacity="0"></use></g></g><g><use xlink:href="#eaTcOKGa9" opacity="1" fill="#5c5c5c" fill-opacity="1"></use><g><use xlink:href="#eaTcOKGa9" opacity="1" fill-opacity="0" stroke="#000000" stroke-width="1" stroke-opacity="0"></use></g></g><g><use xlink:href="#a167wZ5pa" opacity="1" fill="#3f3d56" fill-opacity="1"></use><g><use xlink:href="#a167wZ5pa" opacity="1" fill-opacity="0" stroke="#000000" stroke-width="1" stroke-opacity="0"></use></g></g><g><use xlink:href="#d2ysTwfmud" opacity="1" fill="#3f3d56" fill-opacity="1"></use><g><use xlink:href="#d2ysTwfmud" opacity="1" fill-opacity="0" stroke="#000000" stroke-width="1" stroke-opacity="0"></use></g></g><g><use xlink:href="#aOKvJAWrY" opacity="1" fill="#5c5c5c" fill-opacity="1"></use><g><use xlink:href="#aOKvJAWrY" opacity="1" fill-opacity="0" stroke="#000000" stroke-width="1" stroke-opacity="0"></use></g></g><g><use xlink:href="#a18aHgMfCI" opacity="1" fill="#5c5c5c" fill-opacity="1"></use><g><use xlink:href="#a18aHgMfCI" opacity="1" fill-opacity="0" stroke="#000000" stroke-width="1" stroke-opacity="0"></use></g></g><g><use xlink:href="#a2Oxcuqz1" opacity="1" fill="#ffffff" fill-opacity="1"></use><g><use xlink:href="#a2Oxcuqz1" opacity="1" fill-opacity="0" stroke="#000000" stroke-width="1" stroke-opacity="0"></use></g></g><g><use xlink:href="#aSjIIWxF" opacity="1" fill="#ffffff" fill-opacity="1"></use><g><use xlink:href="#aSjIIWxF" opacity="1" fill-opacity="0" stroke="#000000" stroke-width="1" stroke-opacity="0"></use></g></g><g><use xlink:href="#a1kxzWiIzk" opacity="1" fill="#ffffff" fill-opacity="1"></use><g><use xlink:href="#a1kxzWiIzk" opacity="1" fill-opacity="0" stroke="#000000" stroke-width="1" stroke-opacity="0"></use></g></g><g><use xlink:href="#cw0lFzHzo" opacity="1" fill="#a0616a" fill-opacity="1"></use><g><use xlink:href="#cw0lFzHzo" opacity="1" fill-opacity="0" stroke="#000000" stroke-width="1" stroke-opacity="0"></use></g></g><g><use xlink:href="#c2Lq7xetDk" opacity="1" fill="#a0616a" fill-opacity="1"></use><g><use xlink:href="#c2Lq7xetDk" opacity="1" fill-opacity="0" stroke="#000000" stroke-width="1" stroke-opacity="0"></use></g></g><g><use xlink:href="#c6gXwMKOvC" opacity="1" fill="#2f2e41" fill-opacity="1"></use><g><use xlink:href="#c6gXwMKOvC" opacity="1" fill-opacity="0" stroke="#000000" stroke-width="1" stroke-opacity="0"></use></g></g><g><use xlink:href="#b7U6aaQJbZ" opacity="1" fill="#2f2e41" fill-opacity="1"></use><g><use xlink:href="#b7U6aaQJbZ" opacity="1" fill-opacity="0" stroke="#000000" stroke-width="1" stroke-opacity="0"></use></g></g><g><use xlink:href="#a5wZELJcvQ" opacity="1" fill="#2f2e41" fill-opacity="1"></use><g><use xlink:href="#a5wZELJcvQ" opacity="1" fill-opacity="0" stroke="#000000" stroke-width="1" stroke-opacity="0"></use></g></g><g><use xlink:href="#a35lXGn3r5" opacity="1" fill="#a0616a" fill-opacity="1"></use><g><use xlink:href="#a35lXGn3r5" opacity="1" fill-opacity="0" stroke="#000000" stroke-width="1" stroke-opacity="0"></use></g></g><g><use xlink:href="#e1orpnze89" opacity="1" fill="#e6e6e6" fill-opacity="1"></use><g><use xlink:href="#e1orpnze89" opacity="1" fill-opacity="0" stroke="#000000" stroke-width="1" stroke-opacity="0"></use></g></g><g><use xlink:href="#a1j9rYTvVO" opacity="1" fill="#a0616a" fill-opacity="1"></use><g><use xlink:href="#a1j9rYTvVO" opacity="1" fill-opacity="0" stroke="#000000" stroke-width="1" stroke-opacity="0"></use></g></g><g><use xlink:href="#a4pI6LapQe" opacity="1" fill="#2f2e41" fill-opacity="1"></use><g><use xlink:href="#a4pI6LapQe" opacity="1" fill-opacity="0" stroke="#000000" stroke-width="1" stroke-opacity="0"></use></g></g><g><use xlink:href="#ab0DQkF5" opacity="1" fill="#e6e6e6" fill-opacity="1"></use><g><use xlink:href="#ab0DQkF5" opacity="1" fill-opacity="0" stroke="#000000" stroke-width="1" stroke-opacity="0"></use></g></g><g><use xlink:href="#bKmuJKqzS" opacity="1" fill="#a0616a" fill-opacity="1"></use><g><use xlink:href="#bKmuJKqzS" opacity="1" fill-opacity="0" stroke="#000000" stroke-width="1" stroke-opacity="0"></use></g></g></g></g></svg>